<svg width="27" height="27" viewBox="0 0 27 27" fill="none" xmlns="http://www.w3.org/2000/svg"><path d="M13.5 19.042c-.87 0-1.583.712-1.583 1.583 0 .87.712 1.583 1.583 1.583.87 0 1.583-.712 1.583-1.583 0-.87-.712-1.583-1.583-1.583zM8.75 4.792c-.87 0-1.583.712-1.583 1.583 0 .87.712 1.583 1.583 1.583.87 0 1.583-.712 1.583-1.583 0-.87-.712-1.583-1.583-1.583zm0 4.75c-.87 0-1.583.712-1.583 1.583 0 .87.712 1.583 1.583 1.583.87 0 1.583-.712 1.583-1.583 0-.87-.712-1.583-1.583-1.583zm0 4.75c-.87 0-1.583.712-1.583 1.583 0 .87.712 1.583 1.583 1.583.87 0 1.583-.712 1.583-1.583 0-.87-.712-1.583-1.583-1.583zm9.5-6.334c.87 0 1.583-.712 1.583-1.583 0-.87-.712-1.583-1.583-1.583-.87 0-1.583.712-1.583 1.583 0 .87.712 1.583 1.583 1.583zm-4.75 6.334c-.87 0-1.583.712-1.583 1.583 0 .87.712 1.583 1.583 1.583.87 0 1.583-.712 1.583-1.583 0-.87-.712-1.583-1.583-1.583zm4.75 0c-.87 0-1.583.712-1.583 1.583 0 .87.712 1.583 1.583 1.583.87 0 1.583-.712 1.583-1.583 0-.87-.712-1.583-1.583-1.583zm0-4.75c-.87 0-1.583.712-1.583 1.583 0 .87.712 1.583 1.583 1.583.87 0 1.583-.712 1.583-1.583 0-.87-.712-1.583-1.583-1.583zm-4.75 0c-.87 0-1.583.712-1.583 1.583 0 .87.712 1.583 1.583 1.583.87 0 1.583-.712 1.583-1.583 0-.87-.712-1.583-1.583-1.583zm0-4.75c-.87 0-1.583.712-1.583 1.583 0 .87.712 1.583 1.583 1.583.87 0 1.583-.712 1.583-1.583 0-.87-.712-1.583-1.583-1.583z" fill="#FFE29D"/></svg>