<svg width="24" height="24" viewBox="0 0 24 24" fill="none" xmlns="http://www.w3.org/2000/svg">
<path d="M19.9253 8.88808C19.9031 8.87861 19.8784 8.87603 19.8547 8.88067C19.8309 8.8853 19.8091 8.89694 19.792 8.91408L13.294 15.4107C12.9502 15.7543 12.4841 15.9474 11.998 15.9474C11.5119 15.9474 11.0458 15.7543 10.702 15.4107L4.20667 8.91408C4.18967 8.89678 4.16784 8.88503 4.14403 8.88039C4.12023 8.87575 4.09558 8.87843 4.07333 8.88808C4.05147 8.89749 4.03286 8.91313 4.01982 8.93305C4.00678 8.95296 3.99989 8.97627 4 9.00008V17.0001C4 17.3537 4.14048 17.6928 4.39053 17.9429C4.64057 18.1929 4.97971 18.3334 5.33333 18.3334H18.6667C19.0203 18.3334 19.3594 18.1929 19.6095 17.9429C19.8595 17.6928 20 17.3537 20 17.0001V9.00008C20.0001 8.9761 19.993 8.95264 19.9797 8.9327C19.9664 8.91275 19.9475 8.89721 19.9253 8.88808V8.88808Z" fill="#1F1F1F"/>
<path d="M11.41 14.7041C11.5665 14.8601 11.7784 14.9477 11.9993 14.9477C12.2203 14.9477 12.4322 14.8601 12.5887 14.7041L19.046 8.24675C19.0897 8.20303 19.1204 8.14802 19.1347 8.08786C19.1489 8.0277 19.1461 7.96476 19.1267 7.90608C19.0533 7.68675 18.8493 7.66675 18.6667 7.66675H5.33333C5.15 7.66675 4.94466 7.68675 4.87266 7.90608C4.8532 7.96476 4.85043 8.0277 4.86467 8.08786C4.87892 8.14802 4.90962 8.20303 4.95333 8.24675L11.41 14.7041Z" fill="#1F1F1F"/>
</svg>
