<svg width="21" height="21" viewBox="0 0 21 21" fill="none" xmlns="http://www.w3.org/2000/svg"><g clip-path="url(#clip0)" fill="#1F1F1F"><path d="M16.94 7.159a.099.099 0 00-.109.021l-5.28 5.279a1.49 1.49 0 01-2.106 0L4.168 7.18a.098.098 0 00-.152.016A.099.099 0 004 7.25v6.5a1.083 1.083 0 001.083 1.083h10.834A1.084 1.084 0 0017 13.75v-6.5a.098.098 0 00-.06-.091z"/><path d="M10.02 11.884a.678.678 0 00.958 0l5.247-5.246a.271.271 0 00.065-.277c-.06-.178-.225-.194-.373-.194H5.083c-.149 0-.315.016-.374.194a.27.27 0 00.066.277l5.246 5.246z"/></g><defs><clipPath id="clip0"><path fill="#fff" transform="translate(4 4)" d="M0 0h13v13H0z"/></clipPath></defs></svg>