<svg width="24" height="24" viewBox="0 0 24 24" fill="none" xmlns="http://www.w3.org/2000/svg">
<path d="M15.6667 4H8.33333C7.1846 4.00176 6.08343 4.45888 5.27115 5.27115C4.45888 6.08343 4.00176 7.1846 4 8.33333V15.6667C4.00176 16.8154 4.45888 17.9166 5.27115 18.7288C6.08343 19.5411 7.1846 19.9982 8.33333 20H15.6667C16.8154 19.9982 17.9166 19.5411 18.7288 18.7288C19.5411 17.9166 19.9982 16.8154 20 15.6667V8.33333C19.9982 7.1846 19.5411 6.08343 18.7288 5.27115C17.9166 4.45888 16.8154 4.00176 15.6667 4V4ZM12 15.6667C11.2748 15.6667 10.5659 15.4516 9.96291 15.0487C9.35993 14.6458 8.88996 14.0732 8.61244 13.4032C8.33492 12.7332 8.26231 11.9959 8.40379 11.2847C8.54527 10.5734 8.89448 9.92007 9.40728 9.40728C9.92007 8.89448 10.5734 8.54527 11.2847 8.40379C11.9959 8.26231 12.7332 8.33492 13.4032 8.61244C14.0732 8.88996 14.6458 9.35993 15.0487 9.96291C15.4516 10.5659 15.6667 11.2748 15.6667 12C15.6667 12.9725 15.2804 13.9051 14.5927 14.5927C13.9051 15.2804 12.9725 15.6667 12 15.6667ZM16.3333 8.33333C16.1356 8.33333 15.9422 8.27468 15.7778 8.1648C15.6133 8.05492 15.4851 7.89874 15.4095 7.71602C15.3338 7.53329 15.314 7.33222 15.3525 7.13824C15.3911 6.94426 15.4864 6.76608 15.6262 6.62623C15.7661 6.48637 15.9443 6.39113 16.1382 6.35255C16.3322 6.31396 16.5333 6.33377 16.716 6.40945C16.8987 6.48514 17.0549 6.61331 17.1648 6.77776C17.2747 6.94221 17.3333 7.13555 17.3333 7.33333C17.3333 7.59855 17.228 7.8529 17.0404 8.04044C16.8529 8.22798 16.5986 8.33333 16.3333 8.33333Z"/>
</svg>
