<svg width="16" height="16" viewBox="0 0 16 16" fill="none" xmlns="http://www.w3.org/2000/svg"><path d="M4.333 5.667H1.667A.333.333 0 001.333 6v8.667c0 .184.15.333.334.333h2.666c.184 0 .334-.15.334-.333V6a.333.333 0 00-.334-.333zM2.987 4.333A1.66 1.66 0 004.64 2.667C4.64 1.747 3.9 1 2.987 1a1.66 1.66 0 00-1.654 1.667c0 .92.74 1.666 1.654 1.666zM12.333 15h2a.333.333 0 00.334-.333v-5.6c0-2.514-1.42-3.734-3.407-3.734a2.807 2.807 0 00-2.113.847.273.273 0 01-.48-.18.333.333 0 00-.334-.333h-2A.333.333 0 006 6v8.667a.333.333 0 00.333.333h2a.333.333 0 00.334-.333v-5a1.667 1.667 0 113.333 0v5a.333.333 0 00.333.333z" /></svg>