<svg width="48" height="48" viewBox="0 0 48 48" fill="none" xmlns="http://www.w3.org/2000/svg">
<rect width="48" height="48" rx="4" fill="#FFE29D"/>
<g clip-path="url(#clip0)">
<path d="M24 12C21.879 12.0024 19.8456 12.846 18.3458 14.3458C16.846 15.8456 16.0024 17.879 16 20C16 23.51 21 32.025 23.148 35.524C23.2375 35.6695 23.3628 35.7897 23.512 35.873C23.6611 35.9563 23.8292 36 24 36C24.1711 36.0008 24.3395 35.9573 24.4888 35.8737C24.6381 35.7901 24.7633 35.6693 24.852 35.523C27 32.026 32 23.514 32 20C31.9976 17.879 31.154 15.8456 29.6542 14.3458C28.1544 12.846 26.121 12.0024 24 12V12ZM24 23.5C23.3078 23.5 22.6311 23.2947 22.0555 22.9101C21.4799 22.5256 21.0313 21.9789 20.7664 21.3394C20.5015 20.6999 20.4322 19.9961 20.5673 19.3172C20.7023 18.6383 21.0356 18.0146 21.5251 17.5251C22.0146 17.0356 22.6382 16.7023 23.3172 16.5673C23.9961 16.4322 24.6999 16.5015 25.3394 16.7664C25.9789 17.0313 26.5256 17.4799 26.9101 18.0555C27.2947 18.6311 27.5 19.3078 27.5 20C27.5 20.9283 27.1313 21.8185 26.4749 22.4749C25.8185 23.1313 24.9283 23.5 24 23.5V23.5Z" fill="#1F1F1F"/>
</g>
<defs>
<clipPath id="clip0">
<rect width="24" height="24" fill="white" transform="translate(12 12)"/>
</clipPath>
</defs>
</svg>
