<svg width="10" height="9" viewBox="0 0 10 9" fill="none" xmlns="http://www.w3.org/2000/svg">
<g clip-path="url(#clip0)">
<path d="M5 0C4.20462 0.000893291 3.44208 0.317251 2.87967 0.879666C2.31725 1.44208 2.00089 2.20462 2 3C2 4.31625 3.875 7.50937 4.6805 8.8215C4.71407 8.87607 4.76106 8.92112 4.817 8.95237C4.87293 8.98362 4.93593 9.00002 5 9C5.06417 9.0003 5.12732 8.98399 5.18331 8.95264C5.2393 8.9213 5.28622 8.87599 5.3195 8.82113C6.125 7.50975 8 4.31775 8 3C7.99911 2.20462 7.68275 1.44208 7.12033 0.879666C6.55792 0.317251 5.79538 0.000893291 5 0V0ZM5 4.3125C4.74041 4.3125 4.48665 4.23552 4.27081 4.0913C4.05497 3.94708 3.88675 3.7421 3.78741 3.50227C3.68807 3.26244 3.66208 2.99854 3.71272 2.74394C3.76336 2.48934 3.88837 2.25548 4.07192 2.07192C4.25548 1.88837 4.48934 1.76336 4.74394 1.71272C4.99854 1.66208 5.26244 1.68807 5.50227 1.78741C5.7421 1.88675 5.94708 2.05497 6.0913 2.27081C6.23552 2.48665 6.3125 2.74041 6.3125 3C6.3125 3.3481 6.17422 3.68194 5.92808 3.92808C5.68194 4.17422 5.3481 4.3125 5 4.3125Z" fill="#FFCF5C"/>
</g>
<defs>
<clipPath id="clip0">
<rect width="9" height="9" fill="white" transform="translate(0.5)"/>
</clipPath>
</defs>
</svg>
