<svg width="10" height="9" viewBox="0 0 10 9" fill="none" xmlns="http://www.w3.org/2000/svg">
<g clip-path="url(#clip0)">
<path d="M9.458 2.18697C9.44547 2.18164 9.43163 2.18019 9.41826 2.1828C9.4049 2.18541 9.39262 2.19195 9.383 2.20159L5.72788 5.85597C5.53449 6.04924 5.27228 6.15781 4.99888 6.15781C4.72547 6.15781 4.46326 6.04924 4.26988 5.85597L0.616251 2.20159C0.606691 2.19186 0.594408 2.18526 0.581019 2.18264C0.567631 2.18003 0.553766 2.18154 0.541251 2.18697C0.528953 2.19226 0.518485 2.20106 0.511151 2.21226C0.503816 2.22346 0.499938 2.23658 0.500001 2.24997V6.74997C0.500001 6.94888 0.579018 7.13964 0.719671 7.2803C0.860323 7.42095 1.05109 7.49997 1.25 7.49997H8.75C8.94891 7.49997 9.13968 7.42095 9.28033 7.2803C9.42098 7.13964 9.5 6.94888 9.5 6.74997V2.24997C9.50005 2.23648 9.49608 2.22329 9.4886 2.21207C9.48112 2.20085 9.47047 2.19211 9.458 2.18697Z" fill="#FFCF5C"/>
<path d="M4.66811 5.4585C4.75612 5.54625 4.87533 5.59553 4.99961 5.59553C5.12389 5.59553 5.2431 5.54625 5.33111 5.4585L8.96336 1.82625C8.98795 1.80166 9.00522 1.77071 9.01323 1.73687C9.02125 1.70303 9.01969 1.66763 9.00874 1.63463C8.96749 1.51125 8.85274 1.5 8.74999 1.5H1.24999C1.14686 1.5 1.03136 1.51125 0.990863 1.63463C0.979912 1.66763 0.978356 1.70303 0.986369 1.73687C0.994382 1.77071 1.01165 1.80166 1.03624 1.82625L4.66811 5.4585Z" fill="#FFCF5C"/>
</g>
<defs>
<clipPath id="clip0">
<rect width="9" height="9" fill="white" transform="translate(0.5)"/>
</clipPath>
</defs>
</svg>
