<svg width="10" height="9" viewBox="0 0 10 9" fill="none" xmlns="http://www.w3.org/2000/svg">
<g clip-path="url(#clip0)">
<path d="M9.00238 6.37835L8.08288 5.45848C7.98497 5.36039 7.86868 5.28257 7.74066 5.22947C7.61264 5.17638 7.47541 5.14905 7.33681 5.14905C7.19822 5.14905 7.06099 5.17638 6.93297 5.22947C6.80495 5.28257 6.68866 5.36039 6.59075 5.45848L6.40325 5.64598C5.47916 4.8717 4.62556 4.01697 3.8525 3.09185L4.04 2.90435C4.23744 2.70633 4.34831 2.43811 4.34831 2.15848C4.34831 1.87885 4.23744 1.61062 4.04 1.4126L3.11863 0.493853C2.91748 0.30169 2.65 0.194458 2.37181 0.194458C2.09363 0.194458 1.82615 0.30169 1.625 0.493853L1.1225 0.998603C0.881033 1.24181 0.730597 1.56069 0.696455 1.90171C0.662312 2.24272 0.746542 2.5851 0.935001 2.87135C2.43316 5.12879 4.36774 7.06375 6.62488 8.56235C6.91211 8.74909 7.25444 8.83228 7.59534 8.79819C7.93623 8.7641 8.25531 8.61477 8.49988 8.37485L9.00425 7.8701C9.10232 7.77226 9.18012 7.65603 9.23321 7.52807C9.28629 7.40012 9.31362 7.26295 9.31362 7.12442C9.31362 6.98589 9.28629 6.84872 9.23321 6.72076C9.18012 6.5928 9.10232 6.47657 9.00425 6.37873L9.00238 6.37835Z" fill="#FFCF5C"/>
</g>
<defs>
<clipPath id="clip0">
<rect width="9" height="9" fill="white" transform="translate(0.5)"/>
</clipPath>
</defs>
</svg>
