<svg width="260" height="160" viewBox="0 0 260 160" fill="none" xmlns="http://www.w3.org/2000/svg">
<path d="M0 4C0 1.79086 1.79086 0 4 0H256C258.209 0 260 1.79086 260 4V160H0V4Z" fill="#EDF2F7"/>
<g clip-path="url(#clip0)">
<path d="M156.667 48H112.667C111.252 48 109.896 48.5619 108.895 49.5621C107.895 50.5623 107.333 51.9188 107.333 53.3333V97.3333C107.333 98.7478 107.895 100.104 108.895 101.105C109.896 102.105 111.252 102.667 112.667 102.667H156.667C158.081 102.667 159.438 102.105 160.438 101.105C161.438 100.104 162 98.7478 162 97.3333V53.3333C162 51.9188 161.438 50.5623 160.438 49.5621C159.438 48.5619 158.081 48 156.667 48V48ZM123.779 81.1547C123.987 80.7365 124.302 80.3805 124.692 80.1223C125.081 79.8642 125.532 79.713 125.998 79.6838C126.465 79.6546 126.931 79.7485 127.349 79.9561C127.768 80.1638 128.125 80.4777 128.384 80.8667L130.597 84.1893C130.661 84.2849 130.749 84.3623 130.852 84.4139C130.954 84.4656 131.069 84.4897 131.184 84.4841C131.299 84.4785 131.41 84.4432 131.507 84.3817C131.605 84.3203 131.684 84.2347 131.739 84.1333L138.237 72.0613C138.467 71.6216 138.818 71.2568 139.249 71.0097C139.679 70.7627 140.171 70.6436 140.667 70.6667C141.16 70.68 141.641 70.8301 142.054 71.1004C142.467 71.3706 142.798 71.7504 143.008 72.1973L152.549 92.464C152.645 92.6673 152.688 92.8916 152.674 93.1159C152.66 93.3402 152.589 93.5573 152.468 93.747C152.348 93.9367 152.181 94.0929 151.984 94.201C151.787 94.3091 151.566 94.3656 151.341 94.3653H119.333C119.106 94.3653 118.882 94.3072 118.684 94.1964C118.485 94.0856 118.318 93.9259 118.199 93.7325C118.079 93.539 118.011 93.3182 118.001 93.091C117.991 92.8639 118.039 92.6379 118.141 92.4347L123.779 81.1547ZM118.667 64.6587C118.667 63.6038 118.979 62.5727 119.565 61.6956C120.151 60.8186 120.984 60.135 121.959 59.7313C122.933 59.3276 124.006 59.222 125.04 59.4278C126.075 59.6336 127.025 60.1416 127.771 60.8874C128.517 61.6333 129.025 62.5836 129.231 63.6182C129.437 64.6528 129.331 65.7251 128.927 66.6996C128.524 67.6742 127.84 68.5071 126.963 69.0932C126.086 69.6792 125.055 69.992 124 69.992C122.585 69.992 121.229 69.4301 120.229 68.4299C119.228 67.4297 118.667 66.0732 118.667 64.6587Z" fill="#1F1F1F"/>
<path d="M150 106.667H104.667C104.313 106.667 103.974 106.526 103.724 106.276C103.474 106.026 103.333 105.687 103.333 105.333V60C103.333 59.2928 103.052 58.6145 102.552 58.1144C102.052 57.6143 101.374 57.3334 100.667 57.3334C99.9594 57.3334 99.2811 57.6143 98.781 58.1144C98.281 58.6145 98 59.2928 98 60V106.667C98 108.081 98.5619 109.438 99.5621 110.438C100.562 111.438 101.919 112 103.333 112H150C150.707 112 151.386 111.719 151.886 111.219C152.386 110.719 152.667 110.041 152.667 109.333C152.667 108.626 152.386 107.948 151.886 107.448C151.386 106.948 150.707 106.667 150 106.667Z" fill="#1F1F1F"/>
</g>
<defs>
<clipPath id="clip0">
<rect width="64" height="64" fill="white" transform="translate(98 48)"/>
</clipPath>
</defs>
</svg>
