<svg width="981" height="545" viewBox="0 0 981 545" fill="none" xmlns="http://www.w3.org/2000/svg">
<path d="M0 4.00002C0 1.79088 1.79086 0 4 0H977C979.209 0 981 1.79086 981 4V541C981 543.209 979.209 545 977 545H4.00002C1.79088 545 0 543.209 0 541V4.00002Z" fill="#EDF2F7"/>
<g clip-path="url(#clip0)">
<path d="M545 207H454.25C451.333 207 448.535 208.159 446.472 210.222C444.409 212.285 443.25 215.083 443.25 218V308.75C443.25 311.667 444.409 314.465 446.472 316.528C448.535 318.591 451.333 319.75 454.25 319.75H545C547.917 319.75 550.715 318.591 552.778 316.528C554.841 314.465 556 311.667 556 308.75V218C556 215.083 554.841 212.285 552.778 210.222C550.715 208.159 547.917 207 545 207V207ZM477.168 275.381C477.599 274.519 478.248 273.785 479.052 273.252C479.855 272.72 480.785 272.408 481.747 272.348C482.709 272.288 483.67 272.481 484.533 272.91C485.397 273.338 486.133 273.985 486.667 274.787L491.232 281.641C491.364 281.838 491.545 281.997 491.757 282.104C491.969 282.21 492.205 282.26 492.442 282.248C492.679 282.237 492.909 282.164 493.109 282.037C493.31 281.911 493.474 281.734 493.586 281.525L506.989 256.626C507.464 255.72 508.188 254.967 509.075 254.458C509.963 253.948 510.978 253.703 512 253.75C513.018 253.777 514.009 254.087 514.862 254.644C515.714 255.202 516.395 255.985 516.829 256.907L536.508 298.707C536.705 299.126 536.794 299.589 536.765 300.052C536.735 300.514 536.59 300.962 536.341 301.353C536.093 301.744 535.749 302.067 535.343 302.29C534.936 302.512 534.48 302.629 534.017 302.628H468C467.531 302.628 467.07 302.509 466.66 302.28C466.251 302.052 465.907 301.722 465.66 301.323C465.414 300.924 465.274 300.469 465.253 300C465.232 299.532 465.331 299.066 465.541 298.647L477.168 275.381ZM466.625 241.359C466.625 239.183 467.27 237.056 468.479 235.247C469.688 233.438 471.405 232.028 473.415 231.196C475.425 230.363 477.637 230.145 479.771 230.57C481.905 230.994 483.865 232.042 485.403 233.58C486.942 235.119 487.989 237.079 488.414 239.213C488.838 241.346 488.62 243.558 487.788 245.568C486.955 247.578 485.545 249.296 483.736 250.505C481.927 251.713 479.801 252.358 477.625 252.358C474.708 252.358 471.91 251.2 469.847 249.137C467.784 247.074 466.625 244.276 466.625 241.359Z" fill="#1F1F1F"/>
<path d="M531.25 328H437.75C437.021 328 436.321 327.71 435.805 327.195C435.29 326.679 435 325.979 435 325.25V231.75C435 230.291 434.421 228.892 433.389 227.861C432.358 226.829 430.959 226.25 429.5 226.25C428.041 226.25 426.642 226.829 425.611 227.861C424.579 228.892 424 230.291 424 231.75V328C424 330.917 425.159 333.715 427.222 335.778C429.285 337.841 432.083 339 435 339H531.25C532.709 339 534.108 338.421 535.139 337.389C536.171 336.358 536.75 334.959 536.75 333.5C536.75 332.041 536.171 330.642 535.139 329.611C534.108 328.579 532.709 328 531.25 328Z" fill="#1F1F1F"/>
</g>
<defs>
<clipPath id="clip0">
<rect width="132" height="132" fill="white" transform="translate(424 207)"/>
</clipPath>
</defs>
</svg>
