<svg width="48" height="48" viewBox="0 0 48 48" fill="none" xmlns="http://www.w3.org/2000/svg">
<rect width="48" height="48" rx="4" fill="#FFE29D"/>
<g clip-path="url(#clip0)">
<path d="M33.5 31C33.2348 31 32.9804 31.1054 32.7929 31.2929C32.6054 31.4804 32.5 31.7348 32.5 32C32.5 32.5304 32.2893 33.0391 31.9142 33.4142C31.5391 33.7893 31.0304 34 30.5 34C29.9696 34 29.4609 33.7893 29.0858 33.4142C28.7107 33.0391 28.5 32.5304 28.5 32V17C28.4984 15.6744 27.9711 14.4036 27.0338 13.4662C26.0964 12.5289 24.8256 12.0016 23.5 12L21.5 12C20.1744 12.0016 18.9036 12.5289 17.9662 13.4662C17.0289 14.4036 16.5016 15.6744 16.5 17V17.5C16.5 17.7652 16.6054 18.0196 16.7929 18.2071C16.9804 18.3946 17.2348 18.5 17.5 18.5C17.7652 18.5 18.0196 18.3946 18.2071 18.2071C18.3946 18.0196 18.5 17.7652 18.5 17.5V17C18.5 16.2044 18.8161 15.4413 19.3787 14.8787C19.9413 14.3161 20.7044 14 21.5 14H23.5C24.2956 14 25.0587 14.3161 25.6213 14.8787C26.1839 15.4413 26.5 16.2044 26.5 17V32C26.5 33.0609 26.9214 34.0783 27.6716 34.8284C28.4217 35.5786 29.4391 36 30.5 36C31.5609 36 32.5783 35.5786 33.3284 34.8284C34.0786 34.0783 34.5 33.0609 34.5 32C34.5 31.7348 34.3946 31.4804 34.2071 31.2929C34.0196 31.1054 33.7652 31 33.5 31Z" fill="#1F1F1F"/>
<path d="M31 27C31 27.663 31.2634 28.2989 31.7323 28.7678C32.2011 29.2366 32.837 29.5 33.5 29.5C34.1631 29.5 34.799 29.2366 35.2678 28.7678C35.7366 28.2989 36 27.663 36 27V17.75C36 17.6837 35.9737 17.6201 35.9268 17.5732C35.8799 17.5263 35.8163 17.5 35.75 17.5H31.25C31.1837 17.5 31.1201 17.5263 31.0733 17.5732C31.0264 17.6201 31 17.6837 31 17.75V27Z" fill="#1F1F1F"/>
<path d="M35.947 16.2761L33.947 12.2761C33.9008 12.1988 33.8353 12.1349 33.7569 12.0904C33.6786 12.046 33.5901 12.0227 33.5 12.0227C33.41 12.0227 33.3215 12.046 33.2431 12.0904C33.1648 12.1349 33.0993 12.1988 33.053 12.2761L31.053 16.2761C31.041 16.2996 31.0353 16.3258 31.0363 16.3522C31.0374 16.3787 31.0452 16.4043 31.0591 16.4268C31.0729 16.4493 31.0924 16.4679 31.1155 16.4807C31.1386 16.4935 31.1646 16.5002 31.191 16.5001H35.809C35.8355 16.5002 35.8615 16.4935 35.8846 16.4807C35.9077 16.4679 35.9271 16.4493 35.941 16.4268C35.9548 16.4043 35.9627 16.3787 35.9637 16.3522C35.9648 16.3258 35.959 16.2996 35.947 16.2761V16.2761Z" fill="#1F1F1F"/>
<path d="M22.75 25C22.8163 25 22.8799 24.9737 22.9268 24.9268C22.9737 24.8799 23 24.8163 23 24.75V22.5C23 21.837 22.7366 21.2011 22.2678 20.7322C21.799 20.2634 21.1631 20 20.5 20H18.5C18.4337 20 18.3701 20.0263 18.3233 20.0732C18.2764 20.1201 18.25 20.1837 18.25 20.25V24.75C18.25 24.8163 18.2764 24.8799 18.3233 24.9268C18.3701 24.9737 18.4337 25 18.5 25H22.75Z" fill="#1F1F1F"/>
<path d="M16.75 20.25C16.75 20.1837 16.7237 20.1201 16.6768 20.0732C16.6299 20.0263 16.5663 20 16.5 20H14.5C13.837 20 13.2011 20.2634 12.7322 20.7322C12.2634 21.2011 12 21.837 12 22.5V24.75C12 24.8163 12.0263 24.8799 12.0732 24.9268C12.1201 24.9737 12.1837 25 12.25 25H16.5C16.5663 25 16.6299 24.9737 16.6768 24.9268C16.7237 24.8799 16.75 24.8163 16.75 24.75V20.25Z" fill="#1F1F1F"/>
<path d="M12 30.5C12 31.9587 12.5795 33.3576 13.6109 34.3891C14.6424 35.4205 16.0413 36 17.5 36C18.9587 36 20.3576 35.4205 21.3891 34.3891C22.4205 33.3576 23 31.9587 23 30.5V26.75C23 26.6837 22.9737 26.6201 22.9268 26.5732C22.8799 26.5263 22.8163 26.5 22.75 26.5H12.25C12.1837 26.5 12.1201 26.5263 12.0732 26.5732C12.0263 26.6201 12 26.6837 12 26.75V30.5Z" fill="#1F1F1F"/>
</g>
<defs>
<clipPath id="clip0">
<rect width="24" height="24" fill="white" transform="translate(12 12)"/>
</clipPath>
</defs>
</svg>
