<svg width="48" height="48" viewBox="0 0 48 48" fill="none" xmlns="http://www.w3.org/2000/svg">
<rect width="48" height="48" rx="4" fill="#FFE29D"/>
<path d="M22.5 23.25C22.5663 23.25 22.6299 23.2237 22.6768 23.1768C22.7237 23.1299 22.75 23.0663 22.75 23V12.5C22.75 12.4337 22.7237 12.3701 22.6768 12.3232C22.6299 12.2763 22.5663 12.25 22.5 12.25H16C15.0059 12.2513 14.0528 12.6468 13.3498 13.3498C12.6469 14.0528 12.2514 15.0058 12.25 16V23C12.25 23.0663 12.2764 23.1299 12.3233 23.1768C12.3701 23.2237 12.4337 23.25 12.5 23.25H22.5ZM20 19.25H18.5C18.4337 19.25 18.3701 19.2763 18.3233 19.3232C18.2764 19.3701 18.25 19.4337 18.25 19.5V21C18.25 21.1989 18.171 21.3897 18.0304 21.5303C17.8897 21.671 17.6989 21.75 17.5 21.75C17.3011 21.75 17.1104 21.671 16.9697 21.5303C16.829 21.3897 16.75 21.1989 16.75 21V19.5C16.75 19.4337 16.7237 19.3701 16.6768 19.3232C16.6299 19.2763 16.5663 19.25 16.5 19.25H15C14.8011 19.25 14.6104 19.171 14.4697 19.0303C14.329 18.8897 14.25 18.6989 14.25 18.5C14.25 18.3011 14.329 18.1103 14.4697 17.9697C14.6104 17.829 14.8011 17.75 15 17.75H16.5C16.5663 17.75 16.6299 17.7237 16.6768 17.6768C16.7237 17.6299 16.75 17.5663 16.75 17.5V16C16.75 15.8011 16.829 15.6103 16.9697 15.4697C17.1104 15.329 17.3011 15.25 17.5 15.25C17.6989 15.25 17.8897 15.329 18.0304 15.4697C18.171 15.6103 18.25 15.8011 18.25 16V17.5C18.25 17.5663 18.2764 17.6299 18.3233 17.6768C18.3701 17.7237 18.4337 17.75 18.5 17.75H20C20.1989 17.75 20.3897 17.829 20.5304 17.9697C20.671 18.1103 20.75 18.3011 20.75 18.5C20.75 18.6989 20.671 18.8897 20.5304 19.0303C20.3897 19.171 20.1989 19.25 20 19.25Z" fill="#1F1F1F"/>
<path d="M24.25 23C24.25 23.0663 24.2764 23.1299 24.3233 23.1768C24.3701 23.2237 24.4337 23.25 24.5 23.25H35.5C35.5663 23.25 35.6299 23.2237 35.6768 23.1768C35.7237 23.1299 35.75 23.0663 35.75 23V16C35.7487 15.0058 35.3532 14.0528 34.6502 13.3498C33.9472 12.6468 32.9942 12.2513 32 12.25H24.5C24.4337 12.25 24.3701 12.2763 24.3233 12.3232C24.2764 12.3701 24.25 12.4337 24.25 12.5V23ZM32 19.25H27C26.8011 19.25 26.6104 19.171 26.4697 19.0303C26.329 18.8897 26.25 18.6989 26.25 18.5C26.25 18.3011 26.329 18.1103 26.4697 17.9697C26.6104 17.829 26.8011 17.75 27 17.75H32C32.1989 17.75 32.3897 17.829 32.5304 17.9697C32.671 18.1103 32.75 18.3011 32.75 18.5C32.75 18.6989 32.671 18.8897 32.5304 19.0303C32.3897 19.171 32.1989 19.25 32 19.25Z" fill="#1F1F1F"/>
<path d="M22.75 25C22.75 24.9337 22.7237 24.8701 22.6768 24.8232C22.6299 24.7763 22.5663 24.75 22.5 24.75H12.5C12.4337 24.75 12.3701 24.7763 12.3233 24.8232C12.2764 24.8701 12.25 24.9337 12.25 25V32C12.2514 32.9942 12.6469 33.9472 13.3498 34.6502C14.0528 35.3532 15.0059 35.7487 16 35.75H22.5C22.5663 35.75 22.6299 35.7237 22.6768 35.6768C22.7237 35.6299 22.75 35.5663 22.75 35.5V25ZM14.97 28.03C14.8963 27.9613 14.8372 27.8785 14.7962 27.7865C14.7553 27.6945 14.7332 27.5952 14.7314 27.4945C14.7297 27.3938 14.7482 27.2938 14.7859 27.2004C14.8236 27.107 14.8798 27.0222 14.951 26.951C15.0222 26.8797 15.107 26.8236 15.2004 26.7859C15.2938 26.7482 15.3939 26.7296 15.4946 26.7314C15.5953 26.7332 15.6946 26.7552 15.7866 26.7962C15.8786 26.8372 15.9614 26.8963 16.03 26.97L17.323 28.263C17.3702 28.3095 17.4338 28.3356 17.5 28.3356C17.5663 28.3356 17.6299 28.3095 17.677 28.263L18.97 26.97C19.0387 26.8963 19.1215 26.8372 19.2135 26.7962C19.3055 26.7552 19.4048 26.7332 19.5055 26.7314C19.6062 26.7296 19.7062 26.7482 19.7996 26.7859C19.893 26.8236 19.9778 26.8797 20.0491 26.951C20.1203 27.0222 20.1764 27.107 20.2142 27.2004C20.2519 27.2938 20.2704 27.3938 20.2686 27.4945C20.2668 27.5952 20.2448 27.6945 20.2038 27.7865C20.1628 27.8785 20.1037 27.9613 20.03 28.03L18.737 29.323C18.6905 29.3702 18.6644 29.4337 18.6644 29.5C18.6644 29.5663 18.6905 29.6298 18.737 29.677L20.03 30.97C20.1037 31.0387 20.1628 31.1215 20.2038 31.2135C20.2448 31.3055 20.2668 31.4048 20.2686 31.5055C20.2704 31.6062 20.2519 31.7062 20.2142 31.7996C20.1764 31.893 20.1203 31.9778 20.0491 32.049C19.9778 32.1203 19.893 32.1764 19.7996 32.2141C19.7062 32.2518 19.6062 32.2704 19.5055 32.2686C19.4048 32.2668 19.3055 32.2448 19.2135 32.2038C19.1215 32.1628 19.0387 32.1037 18.97 32.03L17.677 30.737C17.6299 30.6905 17.5663 30.6644 17.5 30.6644C17.4338 30.6644 17.3702 30.6905 17.323 30.737L16.03 32.03C15.8879 32.1625 15.6998 32.2346 15.5055 32.2312C15.3112 32.2277 15.1258 32.149 14.9884 32.0116C14.851 31.8742 14.7723 31.6888 14.7689 31.4945C14.7654 31.3002 14.8376 31.1122 14.97 30.97L16.263 29.677C16.3096 29.6298 16.3357 29.5663 16.3357 29.5C16.3357 29.4337 16.3096 29.3702 16.263 29.323L14.97 28.03Z" fill="#1F1F1F"/>
<path d="M24.5 24.75C24.4337 24.75 24.3701 24.7763 24.3233 24.8232C24.2764 24.8701 24.25 24.9337 24.25 25V35.5C24.25 35.5663 24.2764 35.6299 24.3233 35.6768C24.3701 35.7237 24.4337 35.75 24.5 35.75H32C32.9942 35.7487 33.9472 35.3532 34.6502 34.6502C35.3532 33.9472 35.7487 32.9942 35.75 32V25C35.75 24.9337 35.7237 24.8701 35.6768 24.8232C35.6299 24.7763 35.5663 24.75 35.5 24.75H24.5ZM26.25 28.5C26.25 28.3011 26.329 28.1103 26.4697 27.9697C26.6104 27.829 26.8011 27.75 27 27.75H32C32.1989 27.75 32.3897 27.829 32.5304 27.9697C32.671 28.1103 32.75 28.3011 32.75 28.5C32.75 28.6989 32.671 28.8897 32.5304 29.0303C32.3897 29.171 32.1989 29.25 32 29.25H27C26.8011 29.25 26.6104 29.171 26.4697 29.0303C26.329 28.8897 26.25 28.6989 26.25 28.5ZM27 30.75H32C32.1989 30.75 32.3897 30.829 32.5304 30.9697C32.671 31.1103 32.75 31.3011 32.75 31.5C32.75 31.6989 32.671 31.8897 32.5304 32.0303C32.3897 32.171 32.1989 32.25 32 32.25H27C26.8011 32.25 26.6104 32.171 26.4697 32.0303C26.329 31.8897 26.25 31.6989 26.25 31.5C26.25 31.3011 26.329 31.1103 26.4697 30.9697C26.6104 30.829 26.8011 30.75 27 30.75Z" fill="#1F1F1F"/>
</svg>
