<svg width="21" height="21" viewBox="0 0 21 21" fill="none" xmlns="http://www.w3.org/2000/svg">
<path d="M10.5 14.2916C9.90416 14.2916 9.41666 14.7791 9.41666 15.375C9.41666 15.9708 9.90416 16.4583 10.5 16.4583C11.0958 16.4583 11.5833 15.9708 11.5833 15.375C11.5833 14.7791 11.0958 14.2916 10.5 14.2916ZM7.25 4.54163C6.65416 4.54163 6.16666 5.02913 6.16666 5.62496C6.16666 6.22079 6.65416 6.70829 7.25 6.70829C7.84583 6.70829 8.33333 6.22079 8.33333 5.62496C8.33333 5.02913 7.84583 4.54163 7.25 4.54163ZM7.25 7.79163C6.65416 7.79163 6.16666 8.27913 6.16666 8.87496C6.16666 9.47079 6.65416 9.95829 7.25 9.95829C7.84583 9.95829 8.33333 9.47079 8.33333 8.87496C8.33333 8.27913 7.84583 7.79163 7.25 7.79163ZM7.25 11.0416C6.65416 11.0416 6.16666 11.5291 6.16666 12.125C6.16666 12.7208 6.65416 13.2083 7.25 13.2083C7.84583 13.2083 8.33333 12.7208 8.33333 12.125C8.33333 11.5291 7.84583 11.0416 7.25 11.0416ZM13.75 6.70829C14.3458 6.70829 14.8333 6.22079 14.8333 5.62496C14.8333 5.02913 14.3458 4.54163 13.75 4.54163C13.1542 4.54163 12.6667 5.02913 12.6667 5.62496C12.6667 6.22079 13.1542 6.70829 13.75 6.70829ZM10.5 11.0416C9.90416 11.0416 9.41666 11.5291 9.41666 12.125C9.41666 12.7208 9.90416 13.2083 10.5 13.2083C11.0958 13.2083 11.5833 12.7208 11.5833 12.125C11.5833 11.5291 11.0958 11.0416 10.5 11.0416ZM13.75 11.0416C13.1542 11.0416 12.6667 11.5291 12.6667 12.125C12.6667 12.7208 13.1542 13.2083 13.75 13.2083C14.3458 13.2083 14.8333 12.7208 14.8333 12.125C14.8333 11.5291 14.3458 11.0416 13.75 11.0416ZM13.75 7.79163C13.1542 7.79163 12.6667 8.27913 12.6667 8.87496C12.6667 9.47079 13.1542 9.95829 13.75 9.95829C14.3458 9.95829 14.8333 9.47079 14.8333 8.87496C14.8333 8.27913 14.3458 7.79163 13.75 7.79163ZM10.5 7.79163C9.90416 7.79163 9.41666 8.27913 9.41666 8.87496C9.41666 9.47079 9.90416 9.95829 10.5 9.95829C11.0958 9.95829 11.5833 9.47079 11.5833 8.87496C11.5833 8.27913 11.0958 7.79163 10.5 7.79163ZM10.5 4.54163C9.90416 4.54163 9.41666 5.02913 9.41666 5.62496C9.41666 6.22079 9.90416 6.70829 10.5 6.70829C11.0958 6.70829 11.5833 6.22079 11.5833 5.62496C11.5833 5.02913 11.0958 4.54163 10.5 4.54163Z" fill="#FFE29D"/>
</svg>
