<svg width="16" height="16" viewBox="0 0 16 16" fill="none" xmlns="http://www.w3.org/2000/svg">
<rect width="16" height="16" rx="2" fill="#1F1F1F"/>
<path fill-rule="evenodd" clip-rule="evenodd" d="M11.6332 3.40336C11.6332 3.06679 11.3074 2.82636 10.9858 2.92559L6.12596 4.42509C5.91635 4.48977 5.77338 4.68351 5.77338 4.90287V6.50483L9.32969 7.60214C9.67903 7.70993 9.91732 8.03283 9.91732 8.39843V9.43033C9.91732 9.89057 9.54423 10.2637 9.08399 10.2637H6.27338C5.81314 10.2637 5.44004 9.89057 5.44004 9.43033V6.75082L4.37159 6.42115C4.04998 6.32192 3.72417 6.56236 3.72417 6.89892V11.5743C3.72417 11.8504 3.94803 12.0743 4.22417 12.0743H11.1332C11.4093 12.0743 11.6332 11.8504 11.6332 11.5743V3.40336ZM5.44004 6.40198L4.46987 6.10263C3.93386 5.93725 3.39084 6.33798 3.39084 6.89892V11.5743C3.39084 12.0345 3.76394 12.4076 4.22417 12.4076H11.1332C11.5934 12.4076 11.9665 12.0345 11.9665 11.5743V3.40336C11.9665 2.84242 11.4235 2.44168 10.8875 2.60707L6.02768 4.10658C5.67834 4.21437 5.44004 4.53727 5.44004 4.90287V6.40198ZM5.77338 6.85367V9.43033C5.77338 9.70648 5.99723 9.93033 6.27338 9.93033H9.08399C9.36013 9.93033 9.58399 9.70648 9.58399 9.43033V8.39843C9.58399 8.17907 9.44102 7.98533 9.23141 7.92065L5.77338 6.85367Z" fill="#FFF8E7"/>
<path d="M4.17503 13.24H3.41734C3.15391 13.24 2.99458 12.9489 3.1366 12.727L7.80195 5.43884C7.93349 5.23336 8.23396 5.23416 8.36439 5.44035L12.9749 12.7285C13.1153 12.9504 12.9558 13.24 12.6932 13.24H11.9333C11.8173 13.24 11.7097 13.1798 11.6491 13.0809L8.36614 7.72686C8.23665 7.51567 7.9302 7.51452 7.79913 7.72473L4.45788 13.0831C4.397 13.1807 4.29008 13.24 4.17503 13.24Z" fill="#FFCF5C"/>
<path fill-rule="evenodd" clip-rule="evenodd" d="M7.73177 5.39387C7.89619 5.13702 8.27178 5.13802 8.43482 5.39576L13.0453 12.6839C13.2208 12.9613 13.0215 13.3233 12.6932 13.3233H11.9333C11.7883 13.3233 11.6538 13.248 11.5781 13.1245L8.29511 7.77038C8.19799 7.61199 7.96815 7.61113 7.86984 7.76878L4.52859 13.1271C4.4525 13.2492 4.31885 13.3233 4.17503 13.3233H3.41735C3.08806 13.3233 2.88889 12.9594 3.06642 12.682L7.73177 5.39387ZM8.29397 5.48486C8.19615 5.33022 7.9708 5.32961 7.87214 5.48373L3.20679 12.7719C3.10027 12.9383 3.21977 13.1567 3.41735 13.1567H4.17503C4.26132 13.1567 4.34151 13.1122 4.38717 13.0389L7.72842 7.6806C7.89227 7.41784 8.27532 7.41928 8.43719 7.68326L11.7201 13.0373C11.7656 13.1115 11.8463 13.1567 11.9333 13.1567H12.6932C12.8901 13.1567 13.0097 12.9395 12.9044 12.773L8.29397 5.48486Z" fill="#FFCF5C"/>
</svg>
