<svg width="49" height="48" viewBox="0 0 49 48" fill="none" xmlns="http://www.w3.org/2000/svg">
<rect x="0.520935" width="48" height="48" rx="4" fill="#FFE29D"/>
<g clip-path="url(#clip0)">
<path d="M29.5209 28.25C29.2557 28.25 29.0014 28.3554 28.8138 28.5429C28.6263 28.7304 28.5209 28.9848 28.5209 29.25V32.5C28.5209 32.7652 28.4156 33.0196 28.228 33.2071C28.0405 33.3946 27.7862 33.5 27.5209 33.5H27.0209C26.8883 33.5 26.7611 33.4473 26.6674 33.3536C26.5736 33.2598 26.5209 33.1326 26.5209 33V28C26.5209 27.6022 26.3629 27.2206 26.0816 26.9393C25.8003 26.658 25.4188 26.5 25.0209 26.5H24.0949C23.9887 26.4999 23.8851 26.5337 23.7993 26.5965C23.7136 26.6592 23.65 26.7477 23.6179 26.849L23.1359 28.375C23.0597 28.558 22.9316 28.7146 22.7674 28.8257C22.6032 28.9367 22.4101 28.9973 22.2119 29H16.8299C16.6441 29.0008 16.4617 28.9494 16.3037 28.8517C16.1456 28.7539 16.0182 28.6137 15.9359 28.447L15.4259 26.847C15.3935 26.7462 15.33 26.6583 15.2445 26.596C15.1589 26.5336 15.0558 26.5 14.9499 26.5H14.0209C13.6231 26.5 13.2416 26.658 12.9603 26.9393C12.679 27.2206 12.5209 27.6022 12.5209 28V36C12.5209 36.3978 12.679 36.7794 12.9603 37.0607C13.2416 37.342 13.6231 37.5 14.0209 37.5H15.2119C15.3978 37.5008 15.5801 37.4494 15.7382 37.3517C15.8963 37.2539 16.0237 37.1137 16.1059 36.947C16.1733 36.8127 16.2767 36.6997 16.4045 36.6208C16.5324 36.5418 16.6797 36.5 16.8299 36.5H22.2119C22.3622 36.5 22.5095 36.5418 22.6374 36.6208C22.7652 36.6997 22.8686 36.8127 22.9359 36.947C23.0182 37.1137 23.1456 37.2539 23.3037 37.3517C23.4617 37.4494 23.6441 37.5008 23.8299 37.5H25.0209C25.4188 37.5 25.8003 37.342 26.0816 37.0607C26.3629 36.7794 26.5209 36.3978 26.5209 36C26.5209 35.8674 26.5736 35.7402 26.6674 35.6464C26.7611 35.5527 26.8883 35.5 27.0209 35.5H27.5209C28.3166 35.5 29.0796 35.1839 29.6423 34.6213C30.2049 34.0587 30.5209 33.2957 30.5209 32.5V29.25C30.5209 28.9848 30.4156 28.7304 30.228 28.5429C30.0405 28.3554 29.7862 28.25 29.5209 28.25ZM23.5209 34C23.5209 34.1326 23.4683 34.2598 23.3745 34.3536C23.2807 34.4473 23.1535 34.5 23.0209 34.5H16.0209C15.8883 34.5 15.7611 34.4473 15.6674 34.3536C15.5736 34.2598 15.5209 34.1326 15.5209 34V32C15.5209 31.8674 15.5736 31.7402 15.6674 31.6464C15.7611 31.5527 15.8883 31.5 16.0209 31.5H23.0209C23.1535 31.5 23.2807 31.5527 23.3745 31.6464C23.4683 31.7402 23.5209 31.8674 23.5209 32V34Z" fill="#1F1F1F"/>
<path d="M29.5209 17C28.7958 16.9999 28.0885 17.2251 27.4969 17.6444C26.9053 18.0637 26.4585 18.6564 26.2183 19.3406C25.9781 20.0248 25.9563 20.7667 26.156 21.4638C26.3556 22.1609 26.7669 22.7787 27.3329 23.232C27.3916 23.2789 27.439 23.3384 27.4715 23.406C27.5041 23.4737 27.521 23.5479 27.5209 23.623V24.25C27.5209 24.4489 27.5999 24.6397 27.7406 24.7803C27.8812 24.921 28.072 25 28.2709 25H30.7709C30.9698 25 31.1606 24.921 31.3013 24.7803C31.4419 24.6397 31.5209 24.4489 31.5209 24.25V23.623C31.5209 23.5479 31.5378 23.4737 31.5703 23.406C31.6029 23.3384 31.6502 23.2789 31.7089 23.232C32.2749 22.7787 32.6862 22.1609 32.8859 21.4638C33.0856 20.7667 33.0638 20.0248 32.8236 19.3406C32.5834 18.6564 32.1366 18.0637 31.5449 17.6444C30.9533 17.2251 30.2461 16.9999 29.5209 17V17Z" fill="#1F1F1F"/>
<path d="M29.5209 16C29.7198 16 29.9106 15.921 30.0513 15.7803C30.1919 15.6397 30.2709 15.4489 30.2709 15.25V14.25C30.2709 14.0511 30.1919 13.8603 30.0513 13.7197C29.9106 13.579 29.7198 13.5 29.5209 13.5C29.322 13.5 29.1313 13.579 28.9906 13.7197C28.85 13.8603 28.7709 14.0511 28.7709 14.25V15.25C28.7709 15.4489 28.85 15.6397 28.9906 15.7803C29.1313 15.921 29.322 16 29.5209 16V16Z" fill="#1F1F1F"/>
<path d="M34.4709 15.5499C34.4013 15.4802 34.3186 15.4249 34.2275 15.3872C34.1365 15.3495 34.039 15.3301 33.9404 15.3301C33.8419 15.3301 33.7443 15.3495 33.6533 15.3872C33.5623 15.4249 33.4796 15.4802 33.4099 15.5499L32.7029 16.2569C32.5622 16.3976 32.4832 16.5884 32.4832 16.7874C32.4832 16.9864 32.5622 17.1772 32.7029 17.3179C32.8436 17.4586 33.0344 17.5377 33.2334 17.5377C33.4324 17.5377 33.6232 17.4586 33.7639 17.3179L34.4709 16.6109C34.5406 16.5413 34.5959 16.4586 34.6336 16.3675C34.6713 16.2765 34.6908 16.1789 34.6908 16.0804C34.6908 15.9819 34.6713 15.8843 34.6336 15.7933C34.5959 15.7023 34.5406 15.6196 34.4709 15.5499Z" fill="#1F1F1F"/>
<path d="M35.7709 19.75H34.7709C34.572 19.75 34.3813 19.829 34.2406 19.9697C34.1 20.1103 34.0209 20.3011 34.0209 20.5C34.0209 20.6989 34.1 20.8897 34.2406 21.0303C34.3813 21.171 34.572 21.25 34.7709 21.25H35.7709C35.9698 21.25 36.1606 21.171 36.3013 21.0303C36.4419 20.8897 36.5209 20.6989 36.5209 20.5C36.5209 20.3011 36.4419 20.1103 36.3013 19.9697C36.1606 19.829 35.9698 19.75 35.7709 19.75Z" fill="#1F1F1F"/>
<path d="M25.2779 17.3181C25.3476 17.3877 25.4303 17.443 25.5213 17.4807C25.6124 17.5184 25.7099 17.5378 25.8084 17.5378C25.907 17.5378 26.0045 17.5184 26.0955 17.4807C26.1866 17.443 26.2693 17.3877 26.3389 17.3181C26.4086 17.2484 26.4639 17.1657 26.5016 17.0747C26.5393 16.9836 26.5587 16.8861 26.5587 16.7876C26.5587 16.689 26.5393 16.5915 26.5016 16.5005C26.4639 16.4094 26.4086 16.3267 26.3389 16.2571L25.6319 15.5501C25.5623 15.4804 25.4796 15.4251 25.3885 15.3874C25.2975 15.3497 25.2 15.3303 25.1014 15.3303C25.0029 15.3303 24.9054 15.3497 24.8143 15.3874C24.7233 15.4251 24.6406 15.4804 24.5709 15.5501C24.5013 15.6197 24.446 15.7024 24.4083 15.7935C24.3706 15.8845 24.3512 15.982 24.3512 16.0806C24.3512 16.1791 24.3706 16.2766 24.4083 16.3677C24.446 16.4587 24.5013 16.5414 24.5709 16.6111L25.2779 17.3181Z" fill="#1F1F1F"/>
<path d="M23.2709 21.25H24.2709C24.4698 21.25 24.6606 21.171 24.8013 21.0303C24.9419 20.8897 25.0209 20.6989 25.0209 20.5C25.0209 20.3011 24.9419 20.1103 24.8013 19.9697C24.6606 19.829 24.4698 19.75 24.2709 19.75H23.2709C23.072 19.75 22.8813 19.829 22.7406 19.9697C22.6 20.1103 22.5209 20.3011 22.5209 20.5C22.5209 20.6989 22.6 20.8897 22.7406 21.0303C22.8813 21.171 23.072 21.25 23.2709 21.25V21.25Z" fill="#1F1F1F"/>
<path d="M30.7709 26H28.2709C28.072 26 27.8813 26.079 27.7406 26.2197C27.6 26.3603 27.5209 26.5511 27.5209 26.75C27.5209 26.9489 27.6 27.1397 27.7406 27.2803C27.8813 27.421 28.072 27.5 28.2709 27.5H30.7709C30.9698 27.5 31.1606 27.421 31.3013 27.2803C31.4419 27.1397 31.5209 26.9489 31.5209 26.75C31.5209 26.5511 31.4419 26.3603 31.3013 26.2197C31.1606 26.079 30.9698 26 30.7709 26V26Z" fill="#1F1F1F"/>
</g>
<defs>
<clipPath id="clip0">
<rect width="24" height="24" fill="white" transform="translate(12.5209 12)"/>
</clipPath>
</defs>
</svg>
