<svg width="48" height="48" viewBox="0 0 48 48" fill="none" xmlns="http://www.w3.org/2000/svg">
<rect width="48" height="48" rx="4" fill="#FFE29D"/>
<g clip-path="url(#clip0)">
<path d="M20.5001 21H27.5001C27.5779 20.9999 27.6547 20.9817 27.7243 20.9468C27.7939 20.9118 27.8544 20.8611 27.9009 20.7987C27.9474 20.7362 27.9787 20.6638 27.9923 20.5871C28.0059 20.5104 28.0013 20.4316 27.9791 20.357C27.8007 19.7109 27.4713 19.1164 27.018 18.6226C26.5647 18.1288 26.0006 17.7499 25.3721 17.517C25.3292 17.5014 25.2914 17.4745 25.2627 17.4391C25.234 17.4038 25.2155 17.3612 25.2091 17.3161C25.2027 17.271 25.2088 17.225 25.2265 17.183C25.2443 17.1411 25.2732 17.1048 25.3101 17.078C25.6976 16.8006 25.987 16.4074 26.1367 15.955C26.2864 15.5026 26.2885 15.0144 26.1429 14.5606C25.9973 14.1069 25.7113 13.7111 25.3263 13.4304C24.9413 13.1496 24.4771 12.9983 24.0006 12.9983C23.524 12.9983 23.0598 13.1496 22.6748 13.4304C22.2898 13.7111 22.0039 14.1069 21.8582 14.5606C21.7126 15.0144 21.7148 15.5026 21.8644 15.955C22.0141 16.4074 22.3036 16.8006 22.6911 17.078C22.7279 17.1047 22.7568 17.141 22.7746 17.1829C22.7923 17.2249 22.7983 17.2709 22.7918 17.316C22.7853 17.3611 22.7666 17.4035 22.7378 17.4388C22.7089 17.474 22.671 17.5007 22.6281 17.516C21.9995 17.7487 21.4352 18.1277 20.9819 18.6215C20.5287 19.1153 20.1993 19.7098 20.0211 20.356C19.9986 20.4307 19.9939 20.5096 20.0074 20.5864C20.0209 20.6632 20.0521 20.7358 20.0987 20.7984C20.1452 20.8609 20.2058 20.9118 20.2755 20.9468C20.3452 20.9818 20.4221 21 20.5001 21Z" fill="#1F1F1F"/>
<path d="M35.979 29.8561C35.8006 29.21 35.4712 28.6156 35.0179 28.1218C34.5647 27.628 34.0005 27.249 33.372 27.0161C33.3292 27.0006 33.2914 26.9737 33.2626 26.9383C33.2339 26.9029 33.2154 26.8604 33.209 26.8153C33.2027 26.7701 33.2087 26.7241 33.2265 26.6822C33.2443 26.6402 33.2731 26.6039 33.31 26.5771C33.6974 26.2997 33.9867 25.9065 34.1363 25.4541C34.2858 25.0017 34.2879 24.5135 34.1422 24.0599C33.9966 23.6062 33.7106 23.2105 33.3256 22.9298C32.9406 22.6491 32.4765 22.4978 32 22.4978C31.5235 22.4978 31.0593 22.6491 30.6744 22.9298C30.2894 23.2105 30.0034 23.6062 29.8577 24.0599C29.7121 24.5135 29.7142 25.0017 29.8637 25.4541C30.0133 25.9065 30.3026 26.2997 30.69 26.5771C30.7272 26.6037 30.7563 26.64 30.7743 26.682C30.7923 26.724 30.7985 26.7702 30.7921 26.8154C30.7857 26.8607 30.767 26.9033 30.7381 26.9387C30.7092 26.9741 30.6711 27.0009 30.628 27.0161C30.2682 27.144 29.9287 27.3232 29.62 27.5481C29.5806 27.576 29.5501 27.6148 29.5324 27.6598C29.5146 27.7047 29.5103 27.7538 29.52 27.8011L30.041 30.3011C30.0523 30.3575 30.0828 30.4082 30.1273 30.4447C30.1718 30.4812 30.2275 30.5011 30.285 30.5011H35.5C35.5779 30.5011 35.6547 30.4829 35.7243 30.4479C35.7939 30.413 35.8543 30.3623 35.9008 30.2998C35.9474 30.2374 35.9787 30.1649 35.9922 30.0882C36.0058 30.0115 36.0013 29.9327 35.979 29.8581V29.8561Z" fill="#1F1F1F"/>
<path d="M18.478 27.8C18.4877 27.7527 18.4834 27.7036 18.4657 27.6586C18.4479 27.6137 18.4175 27.5749 18.378 27.547C18.0696 27.3217 17.7301 27.1425 17.37 27.015C17.327 26.9998 17.2889 26.973 17.2599 26.9376C17.231 26.9022 17.2123 26.8596 17.2059 26.8143C17.1996 26.7691 17.2057 26.7229 17.2237 26.6809C17.2417 26.6389 17.2709 26.6026 17.308 26.576C17.6956 26.2987 17.985 25.9055 18.1347 25.4531C18.2844 25.0007 18.2865 24.5124 18.1409 24.0587C17.9953 23.605 17.7093 23.2092 17.3243 22.9284C16.9393 22.6476 16.4751 22.4963 15.9985 22.4963C15.522 22.4963 15.0578 22.6476 14.6728 22.9284C14.2878 23.2092 14.0018 23.605 13.8562 24.0587C13.7106 24.5124 13.7127 25.0007 13.8624 25.4531C14.0121 25.9055 14.3015 26.2987 14.689 26.576C14.7259 26.6027 14.7548 26.639 14.7726 26.681C14.7903 26.7229 14.7963 26.7689 14.7898 26.814C14.7833 26.8591 14.7646 26.9016 14.7358 26.9368C14.7069 26.9721 14.669 26.9988 14.626 27.014C13.9974 27.2468 13.4332 27.6257 12.9799 28.1195C12.5266 28.6133 12.1973 29.2078 12.019 29.854C11.9962 29.929 11.9912 30.0083 12.0046 30.0855C12.018 30.1628 12.0494 30.2358 12.0962 30.2986C12.143 30.3615 12.204 30.4125 12.2741 30.4475C12.3443 30.4825 12.4217 30.5005 12.5 30.5H17.713C17.7706 30.5 17.8263 30.48 17.8708 30.4436C17.9152 30.4071 17.9457 30.3564 17.957 30.3L18.478 27.8Z" fill="#1F1F1F"/>
<path d="M27.666 23.8C27.6199 23.5743 27.4974 23.3714 27.319 23.2257C27.1406 23.0799 26.9174 23.0002 26.687 23H21.313C21.0826 23.0002 20.8594 23.0799 20.681 23.2257C20.5027 23.3714 20.3801 23.5743 20.334 23.8L18.251 33.8C18.2214 33.9452 18.2244 34.0952 18.2598 34.2391C18.2953 34.3831 18.3623 34.5173 18.456 34.6321C18.5497 34.747 18.6677 34.8396 18.8016 34.9032C18.9354 34.9668 19.0818 34.9999 19.23 35H28.77C28.9182 34.9999 29.0646 34.9668 29.1984 34.9032C29.3323 34.8396 29.4504 34.747 29.5441 34.6321C29.6378 34.5173 29.7048 34.3831 29.7402 34.2391C29.7756 34.0952 29.7787 33.9452 29.749 33.8L27.666 23.8ZM26.3 32.827C26.2531 32.8809 26.1952 32.9242 26.1302 32.9539C26.0651 32.9836 25.9945 32.9989 25.923 32.999H22.077C22.0054 32.999 21.9347 32.9836 21.8696 32.9539C21.8045 32.9242 21.7465 32.8809 21.6996 32.8268C21.6526 32.7728 21.6179 32.7093 21.5976 32.6407C21.5773 32.5721 21.572 32.4999 21.582 32.429L21.939 29.929C21.9559 29.8097 22.0152 29.7005 22.1062 29.6215C22.1971 29.5425 22.3135 29.499 22.434 29.499H25.566C25.6865 29.499 25.8029 29.5425 25.8938 29.6215C25.9848 29.7005 26.0441 29.8097 26.061 29.929L26.418 32.429C26.428 32.4999 26.4226 32.5722 26.4023 32.6408C26.3819 32.7095 26.347 32.773 26.3 32.827V32.827Z" fill="#1F1F1F"/>
</g>
<defs>
<clipPath id="clip0">
<rect width="24" height="24" fill="white" transform="translate(12 12)"/>
</clipPath>
</defs>
</svg>
