<svg width="21" height="21" viewBox="0 0 21 21" fill="none" xmlns="http://www.w3.org/2000/svg">
<g clip-path="url(#clip0)">
<path d="M10.5 4C9.35113 4.00129 8.24968 4.45825 7.4373 5.27063C6.62492 6.08301 6.16796 7.18446 6.16667 8.33333C6.16667 10.2346 8.875 14.8469 10.0385 16.7422C10.087 16.821 10.1549 16.8861 10.2357 16.9312C10.3165 16.9763 10.4075 17 10.5 17C10.5927 17.0004 10.6839 16.9769 10.7648 16.9316C10.8457 16.8863 10.9134 16.8209 10.9615 16.7416C12.125 14.8474 14.8333 10.2367 14.8333 8.33333C14.832 7.18446 14.3751 6.08301 13.5627 5.27063C12.7503 4.45825 11.6489 4.00129 10.5 4V4ZM10.5 10.2292C10.125 10.2292 9.7585 10.118 9.44674 9.90966C9.13497 9.70134 8.89197 9.40526 8.74848 9.05884C8.60499 8.71242 8.56745 8.33123 8.6406 7.96347C8.71375 7.59572 8.89431 7.25791 9.15945 6.99278C9.42459 6.72764 9.76239 6.54708 10.1301 6.47393C10.4979 6.40078 10.8791 6.43832 11.2255 6.58181C11.5719 6.7253 11.868 6.9683 12.0763 7.28006C12.2846 7.59183 12.3958 7.95837 12.3958 8.33333C12.3958 8.83614 12.1961 9.31835 11.8406 9.67389C11.485 10.0294 11.0028 10.2292 10.5 10.2292V10.2292Z" fill="#1F1F1F"/>
</g>
<defs>
<clipPath id="clip0">
<rect width="13" height="13" fill="white" transform="translate(4 4)"/>
</clipPath>
</defs>
</svg>
