<svg width="181" height="80" viewBox="0 0 181 80" fill="none" xmlns="http://www.w3.org/2000/svg">
<path d="M19.7875 61.2048H56.9993C58.1039 61.2048 58.9993 60.3094 58.9993 59.2048V15.2101C58.9993 13.8639 57.6961 12.9021 56.4096 13.299L29.4439 21.6194C28.6055 21.8781 28.0336 22.653 28.0336 23.5305V48.4851C28.0336 49.5897 28.929 50.4851 30.0336 50.4851H46.7533C47.8579 50.4851 48.7533 49.5897 48.7533 48.4851V41.0083C48.7533 40.1309 48.1814 39.3559 47.343 39.0972L20.3772 30.7769C19.0908 30.3799 17.7875 31.3417 17.7875 32.688V59.2048C17.7875 60.3094 18.683 61.2048 19.7875 61.2048Z" stroke="#FFF8E7"/>
<path d="M20.8752 66.2001H17.0867C15.7696 66.2001 14.9729 64.7443 15.683 63.6349L39.0098 27.1942C39.6675 26.1668 41.1698 26.1708 41.822 27.2017L64.8743 63.6425C65.5764 64.7522 64.779 66.2001 63.4658 66.2001H59.6663C59.0866 66.2001 58.5485 65.8989 58.2455 65.4047L41.8307 38.6343C41.1833 37.5784 39.6511 37.5726 38.9957 38.6237L22.2894 65.4153C21.985 65.9035 21.4504 66.2001 20.8752 66.2001Z" fill="#FFCF5C"/>
<path fill-rule="evenodd" clip-rule="evenodd" d="M38.6589 26.9694C39.481 25.6851 41.3589 25.6901 42.1741 26.9788L65.2265 63.4195C66.104 64.8067 65.1072 66.6166 63.4658 66.6166H59.6663C58.9417 66.6166 58.2691 66.2401 57.8903 65.6223L41.4755 38.8519C40.9899 38.06 39.8408 38.0556 39.3492 38.8439L22.643 65.6356C22.2625 66.2458 21.5942 66.6166 20.8752 66.6166H17.0867C15.4403 66.6166 14.4445 64.7967 15.3321 63.4101L38.6589 26.9694ZM41.4699 27.4243C40.9807 26.6511 39.854 26.6481 39.3607 27.4186L16.034 63.8594C15.5014 64.6914 16.0989 65.7833 17.0867 65.7833H20.8752C21.3066 65.7833 21.7076 65.5608 21.9358 65.1947L38.6421 38.403C39.4613 37.0892 41.3766 37.0964 42.1859 38.4163L58.6007 65.1867C58.828 65.5573 59.2315 65.7833 59.6663 65.7833H63.4658C64.4507 65.7833 65.0487 64.6973 64.5222 63.865L41.4699 27.4243Z" fill="#FFCF5C"/>
<path d="M94.992 19.444C95.408 19.444 95.84 19.532 96.288 19.708C96.736 19.884 97.168 20.108 97.584 20.38H97.56C97.976 20.684 98.296 21.084 98.52 21.58C98.744 22.06 98.856 22.62 98.856 23.26V34.66C98.856 35.956 98.424 36.924 97.56 37.564C97.144 37.868 96.712 38.108 96.264 38.284C95.832 38.444 95.408 38.524 94.992 38.524H89.76C89.344 38.524 88.912 38.444 88.464 38.284C88.032 38.108 87.608 37.868 87.192 37.564C86.776 37.244 86.456 36.852 86.232 36.388C86.008 35.908 85.896 35.332 85.896 34.66V23.26C85.896 22.62 86.008 22.06 86.232 21.58C86.456 21.084 86.776 20.684 87.192 20.38H87.168C87.584 20.108 88.016 19.884 88.464 19.708C88.912 19.532 89.344 19.444 89.76 19.444H94.992ZM94.392 36.1C94.984 36.1 95.4 35.932 95.64 35.596C95.88 35.26 96 34.884 96 34.468V23.476C96 23.076 95.88 22.708 95.64 22.372C95.4 22.036 94.984 21.868 94.392 21.868H90.36C89.768 21.868 89.352 22.036 89.112 22.372C88.872 22.708 88.752 23.076 88.752 23.476V34.468C88.752 34.884 88.872 35.26 89.112 35.596C89.352 35.932 89.768 36.1 90.36 36.1H94.392ZM115.162 19.444C115.578 19.444 116.01 19.532 116.458 19.708C116.906 19.884 117.338 20.108 117.754 20.38H117.73C118.146 20.684 118.466 21.084 118.69 21.58C118.914 22.06 119.026 22.62 119.026 23.26V34.66C119.026 35.956 118.594 36.924 117.73 37.564C117.314 37.868 116.882 38.108 116.434 38.284C116.002 38.444 115.578 38.524 115.162 38.524H109.93C109.514 38.524 109.082 38.444 108.634 38.284C108.202 38.108 107.778 37.868 107.362 37.564C106.946 37.244 106.626 36.852 106.402 36.388C106.178 35.908 106.066 35.332 106.066 34.66V23.26C106.066 22.62 106.178 22.06 106.402 21.58C106.626 21.084 106.946 20.684 107.362 20.38H107.338C107.754 20.108 108.186 19.884 108.634 19.708C109.082 19.532 109.514 19.444 109.93 19.444H115.162ZM114.562 36.1C115.154 36.1 115.57 35.932 115.81 35.596C116.05 35.26 116.17 34.884 116.17 34.468V23.476C116.17 23.076 116.05 22.708 115.81 22.372C115.57 22.036 115.154 21.868 114.562 21.868H110.53C109.938 21.868 109.522 22.036 109.282 22.372C109.042 22.708 108.922 23.076 108.922 23.476V34.468C108.922 34.884 109.042 35.26 109.282 35.596C109.522 35.932 109.938 36.1 110.53 36.1H114.562ZM135.357 27.532C135.773 27.532 136.205 27.62 136.653 27.796C137.101 27.972 137.533 28.204 137.949 28.492H137.925C138.341 28.78 138.661 29.172 138.885 29.668C139.109 30.164 139.221 30.732 139.221 31.372V34.66C139.221 35.956 138.789 36.924 137.925 37.564C137.509 37.868 137.077 38.108 136.629 38.284C136.197 38.444 135.773 38.524 135.357 38.524H130.125C129.709 38.524 129.277 38.444 128.829 38.284C128.397 38.108 127.973 37.868 127.557 37.564C126.693 36.924 126.261 35.956 126.261 34.66V33.076C126.261 32.324 126.733 31.948 127.677 31.948C128.637 31.948 129.117 32.324 129.117 33.076V34.468C129.117 34.884 129.237 35.26 129.477 35.596C129.717 35.932 130.133 36.1 130.725 36.1H134.757C135.349 36.1 135.765 35.932 136.005 35.596C136.245 35.26 136.365 34.884 136.365 34.468V31.564C136.365 31.164 136.245 30.796 136.005 30.46C135.765 30.108 135.349 29.932 134.757 29.932H130.125C129.293 29.932 128.437 29.628 127.557 29.02C126.693 28.348 126.261 27.38 126.261 26.116V23.26C126.261 22.62 126.373 22.06 126.597 21.58C126.821 21.084 127.141 20.684 127.557 20.38H127.533C127.949 20.108 128.381 19.884 128.829 19.708C129.277 19.532 129.709 19.444 130.125 19.444H135.357C135.773 19.444 136.205 19.532 136.653 19.708C137.101 19.884 137.533 20.108 137.949 20.38H137.925C138.341 20.684 138.661 21.084 138.885 21.58C139.109 22.06 139.221 22.62 139.221 23.26V24.676C139.221 25.428 138.741 25.804 137.781 25.804C136.837 25.804 136.365 25.428 136.365 24.676V23.476C136.365 23.076 136.245 22.708 136.005 22.372C135.765 22.036 135.349 21.868 134.757 21.868H130.725C130.133 21.868 129.717 22.036 129.477 22.372C129.237 22.708 129.117 23.076 129.117 23.476V25.924C129.117 26.34 129.237 26.716 129.477 27.052C129.717 27.372 130.133 27.532 130.725 27.532H135.357ZM153.003 37.54C153.003 38.308 152.523 38.692 151.563 38.692C150.619 38.692 150.147 38.308 150.147 37.54V21.868H145.947C145.371 21.868 145.067 21.46 145.035 20.644C145.035 19.844 145.339 19.444 145.947 19.444H157.203C157.811 19.444 158.099 19.844 158.067 20.644C158.067 21.46 157.779 21.868 157.203 21.868H153.003V37.54ZM163.548 21.868C162.988 21.868 162.692 21.46 162.66 20.644C162.66 19.844 162.956 19.444 163.548 19.444H174.084C174.612 19.444 175.02 19.532 175.308 19.708C175.596 19.868 175.756 20.092 175.788 20.38C175.804 20.652 175.796 20.916 175.764 21.172C175.748 21.412 175.692 21.596 175.596 21.724L166.14 36.1H174.828C175.42 36.1 175.716 36.492 175.716 37.276C175.748 38.108 175.452 38.524 174.828 38.524H164.076C163.02 38.524 162.452 38.204 162.372 37.564C162.34 37.292 162.34 37.044 162.372 36.82C162.404 36.58 162.468 36.396 162.564 36.268C162.852 35.82 163.148 35.356 163.452 34.876C163.772 34.396 164.124 33.868 164.508 33.292C164.892 32.716 165.316 32.068 165.78 31.348C166.26 30.628 166.804 29.812 167.412 28.9C168.02 27.972 168.7 26.932 169.452 25.78C170.22 24.628 171.084 23.324 172.044 21.868H163.548Z" fill="white"/>
<path d="M90.4393 60.1983C89.4493 60.1983 88.5993 59.9783 87.8893 59.5383C87.1793 59.0983 86.6293 58.4733 86.2393 57.6633C85.8593 56.8433 85.6693 55.8683 85.6693 54.7383C85.6693 53.6083 85.8593 52.6383 86.2393 51.8283C86.6293 51.0083 87.1793 50.3783 87.8893 49.9383C88.5993 49.4983 89.4493 49.2783 90.4393 49.2783C91.4193 49.2783 92.2643 49.4983 92.9743 49.9383C93.6943 50.3783 94.2443 51.0033 94.6243 51.8133C95.0043 52.6233 95.1943 53.5933 95.1943 54.7233C95.1943 55.8533 94.9993 56.8283 94.6093 57.6483C94.2293 58.4683 93.6843 59.0983 92.9743 59.5383C92.2643 59.9783 91.4193 60.1983 90.4393 60.1983ZM90.4243 59.3733C91.6243 59.3733 92.5543 58.9683 93.2143 58.1583C93.8843 57.3483 94.2193 56.2033 94.2193 54.7233C94.2193 53.2433 93.8893 52.1033 93.2293 51.3033C92.5693 50.5033 91.6343 50.1033 90.4243 50.1033C89.2243 50.1033 88.2893 50.5083 87.6193 51.3183C86.9593 52.1183 86.6293 53.2533 86.6293 54.7233C86.6293 56.1933 86.9593 57.3383 87.6193 58.1583C88.2893 58.9683 89.2243 59.3733 90.4243 59.3733ZM99.9591 60.0783V49.3983H100.679L107.789 58.9683L107.444 58.9983V49.3983H108.314V60.0783H107.594L100.484 50.5233L100.814 50.4783V60.0783H99.9591ZM116.102 60.0783V50.2083H112.277V49.3983H120.857V50.2083H117.032V60.0783H116.102ZM128.015 60.0783L124.295 49.3983H125.225L128.645 59.4183H128.195L131.675 49.3983L132.41 49.4133L135.86 59.4183H135.41L138.845 49.3983H139.775L136.055 60.0783H135.245L131.87 50.4183H132.185L128.81 60.0783H128.015ZM155.321 60.0783V49.3983H159.416C160.536 49.3983 161.401 49.6483 162.011 50.1483C162.621 50.6483 162.926 51.3733 162.926 52.3233C162.926 53.2333 162.616 53.9433 161.996 54.4533C161.386 54.9633 160.526 55.2183 159.416 55.2183L160.481 55.0233C160.871 55.0233 161.206 55.1283 161.486 55.3383C161.766 55.5483 161.991 55.8933 162.161 56.3733L163.526 60.0783H162.551L161.246 56.5233C161.056 56.0233 160.806 55.6983 160.496 55.5483C160.186 55.3883 159.761 55.3083 159.221 55.3083H156.221V60.0783H155.321ZM156.236 54.5133H159.371C160.251 54.5133 160.906 54.3283 161.336 53.9583C161.776 53.5883 161.996 53.0433 161.996 52.3233C161.996 51.6133 161.781 51.0833 161.351 50.7333C160.921 50.3733 160.261 50.1933 159.371 50.1933H156.236V54.5133ZM168.048 60.0783V49.3983H172.143C173.213 49.3983 174.053 49.6583 174.663 50.1783C175.273 50.6983 175.578 51.4133 175.578 52.3233C175.578 53.2333 175.273 53.9533 174.663 54.4833C174.053 55.0133 173.213 55.2783 172.143 55.2783H168.963V60.0783H168.048ZM168.963 54.4683H172.083C172.933 54.4683 173.568 54.2833 173.988 53.9133C174.418 53.5433 174.633 53.0133 174.633 52.3233C174.633 51.6433 174.418 51.1183 173.988 50.7483C173.568 50.3783 172.933 50.1933 172.083 50.1933H168.963V54.4683Z" fill="white"/>
<path d="M144.146 60.0783V49.3983H150.716V50.1933H145.061V54.2583H150.416V55.0683H145.061V59.2833H150.716V60.0783H144.146Z" fill="#1F1F1F"/>
<path d="M144.452 59.6611H150.382M144.452 49.7426H150.382M144.452 54.7019H150.382" stroke="white" stroke-width="0.75" stroke-linecap="round" stroke-linejoin="bevel"/>
</svg>
