<svg width="48" height="48" viewBox="0 0 48 48" fill="none" xmlns="http://www.w3.org/2000/svg">
<path d="M34.5 14.5H13.5C12.9477 14.5 12.5 14.9477 12.5 15.5V16.5C12.5 17.0523 12.9477 17.5 13.5 17.5H34.5C35.0523 17.5 35.5 17.0523 35.5 16.5V15.5C35.5 14.9477 35.0523 14.5 34.5 14.5Z" fill="#EDF2F7"/>
<path d="M34.5 22.5H13.5C12.9477 22.5 12.5 22.9477 12.5 23.5V24.5C12.5 25.0523 12.9477 25.5 13.5 25.5H34.5C35.0523 25.5 35.5 25.0523 35.5 24.5V23.5C35.5 22.9477 35.0523 22.5 34.5 22.5Z" fill="#EDF2F7"/>
<path d="M34.5 30.5H13.5C12.9477 30.5 12.5 30.9477 12.5 31.5V32.5C12.5 33.0523 12.9477 33.5 13.5 33.5H34.5C35.0523 33.5 35.5 33.0523 35.5 32.5V31.5C35.5 30.9477 35.0523 30.5 34.5 30.5Z" fill="#EDF2F7"/>
</svg>
