<svg width="32" height="32" viewBox="0 0 32 32" fill="none" xmlns="http://www.w3.org/2000/svg">
<path d="M27.388 26.2L24.125 22.938C24.1018 22.9147 24.0743 22.8963 24.044 22.8837C24.0137 22.8711 23.9813 22.8646 23.9485 22.8646C23.9157 22.8646 23.8832 22.8711 23.8529 22.8837C23.8226 22.8963 23.7951 22.9147 23.772 22.938L22.6 24.112C22.5057 24.203 22.3794 24.2534 22.2483 24.2523C22.1172 24.2512 21.9918 24.1986 21.8991 24.1059C21.8064 24.0132 21.7538 23.8878 21.7526 23.7567C21.7515 23.6256 21.8019 23.4993 21.893 23.405L23.07 22.229C23.1165 22.1818 23.1426 22.1182 23.1426 22.052C23.1426 21.9857 23.1165 21.9221 23.07 21.875L20.63 19.436C20.6068 19.4127 20.5793 19.3943 20.549 19.3817C20.5187 19.3691 20.4863 19.3626 20.4535 19.3626C20.4207 19.3626 20.3882 19.3691 20.3579 19.3817C20.3276 19.3943 20.3001 19.4127 20.277 19.436L19.1 20.612C19.0057 20.703 18.8794 20.7534 18.7483 20.7523C18.6172 20.7512 18.4918 20.6986 18.3991 20.6059C18.3064 20.5132 18.2538 20.3878 18.2526 20.2567C18.2515 20.1256 18.3019 19.9993 18.393 19.905L19.57 18.729C19.6165 18.6818 19.6426 18.6182 19.6426 18.552C19.6426 18.4857 19.6165 18.4221 19.57 18.375L17.13 15.936C17.1068 15.9127 17.0793 15.8943 17.049 15.8817C17.0187 15.8691 16.9863 15.8626 16.9535 15.8626C16.9207 15.8626 16.8882 15.8691 16.8579 15.8817C16.8276 15.8943 16.8001 15.9127 16.777 15.936L15.6 17.112C15.5057 17.203 15.3794 17.2534 15.2483 17.2523C15.1172 17.2512 14.9918 17.1986 14.8991 17.1059C14.8064 17.0132 14.7538 16.8878 14.7526 16.7567C14.7515 16.6256 14.8019 16.4993 14.893 16.405L16.07 15.229C16.1165 15.1818 16.1426 15.1182 16.1426 15.052C16.1426 14.9857 16.1165 14.9221 16.07 14.875L13.633 12.444C13.6098 12.4207 13.5823 12.4023 13.552 12.3897C13.5217 12.3771 13.4893 12.3706 13.4565 12.3706C13.4237 12.3706 13.3912 12.3771 13.3609 12.3897C13.3306 12.4023 13.3031 12.4207 13.28 12.444L12.111 13.612C12.0642 13.6586 12.0087 13.6957 11.9477 13.7209C11.8866 13.7461 11.8212 13.7591 11.7551 13.7591C11.689 13.759 11.6236 13.746 11.5626 13.7206C11.5016 13.6953 11.4462 13.6582 11.3995 13.6115C11.3528 13.5647 11.3158 13.5092 11.2905 13.4482C11.2653 13.3871 11.2523 13.3217 11.2524 13.2556C11.2524 13.1895 11.2655 13.1241 11.2908 13.0631C11.3161 13.0021 11.3532 12.9466 11.4 12.9L12.572 11.737C12.5952 11.7137 12.6137 11.6861 12.6263 11.6558C12.6389 11.6254 12.6454 11.5928 12.6454 11.56C12.6454 11.5271 12.6389 11.4945 12.6263 11.4641C12.6137 11.4338 12.5952 11.4062 12.572 11.383L10.133 8.94396C10.1098 8.92071 10.0823 8.90226 10.052 8.88967C10.0217 8.87708 9.98927 8.87059 9.95647 8.87059C9.92367 8.87059 9.89119 8.87708 9.8609 8.88967C9.83061 8.90226 9.8031 8.92071 9.77997 8.94396L8.61097 10.112C8.51721 10.2062 8.38984 10.2594 8.25688 10.2598C8.12392 10.2602 7.99625 10.2077 7.90197 10.114C7.80768 10.0202 7.7545 9.89283 7.75413 9.75987C7.75375 9.62691 7.80621 9.49924 7.89997 9.40496L9.07197 8.23696C9.09525 8.21373 9.11372 8.18615 9.12632 8.15577C9.13893 8.1254 9.14541 8.09284 9.14541 8.05996C9.14541 8.02707 9.13893 7.99451 9.12632 7.96414C9.11372 7.93377 9.09525 7.90618 9.07197 7.88296L5.79997 4.61196C5.06797 3.87896 4.24097 4.29996 4.24097 5.25896V26.259C4.24097 26.6568 4.399 27.0383 4.68031 27.3196C4.96161 27.6009 5.34314 27.759 5.74097 27.759H26.741C27.692 27.759 28.122 26.933 27.388 26.2ZM7.74097 14.759C7.74097 14.209 8.05997 14.077 8.44797 14.466L17.534 23.552C17.923 23.941 17.791 24.259 17.241 24.259H8.74097C8.47575 24.259 8.2214 24.1536 8.03386 23.9661C7.84632 23.7785 7.74097 23.5242 7.74097 23.259V14.759Z" fill="#FFCF5C"/>
</svg>
