<svg width="48" height="48" viewBox="0 0 48 48" fill="none" xmlns="http://www.w3.org/2000/svg">
<rect width="48" height="48" rx="4" fill="#FFE29D"/>
<path d="M26.0447 18.6574C26.0138 18.6262 25.977 18.6014 25.9365 18.5845C25.896 18.5676 25.8526 18.5588 25.8087 18.5587C25.7648 18.5587 25.7214 18.5674 25.6809 18.5842C25.6404 18.601 25.6036 18.6257 25.5727 18.6567L18.2913 25.94C18.2288 26.0026 18.1937 26.0873 18.1937 26.1757C18.1937 26.2641 18.2288 26.3489 18.2913 26.4114L21.59 29.71C21.6525 29.7725 21.7373 29.8076 21.8257 29.8076C21.914 29.8076 21.9988 29.7725 22.0613 29.71L29.3393 22.432C29.4016 22.3696 29.4366 22.2849 29.4366 22.1967C29.4366 22.1085 29.4016 22.0239 29.3393 21.9614L26.0447 18.6574Z" fill="#1A202C"/>
<path d="M17.62 27.2C17.5781 27.1582 17.5258 27.1284 17.4685 27.1135C17.4112 27.0986 17.351 27.0993 17.294 27.1154C17.237 27.1314 17.1852 27.1623 17.1441 27.2049C17.1029 27.2476 17.0739 27.3004 17.06 27.358L16.056 31.5427C16.0428 31.5981 16.0439 31.6561 16.0595 31.7109C16.075 31.7658 16.1043 31.8157 16.1447 31.856C16.1853 31.8959 16.2353 31.9248 16.29 31.9402C16.3448 31.9556 16.4026 31.9569 16.458 31.944L20.6393 30.944C20.697 30.9302 20.7499 30.9013 20.7927 30.8602C20.8354 30.8191 20.8665 30.7674 20.8826 30.7104C20.8987 30.6533 20.8992 30.593 20.8843 30.5356C20.8693 30.4783 20.8393 30.4259 20.7973 30.384L17.62 27.2Z" fill="#1A202C"/>
<path d="M31.4666 17.9494L30.0513 16.5334C29.7388 16.2215 29.3154 16.0464 28.8739 16.0464C28.4325 16.0464 28.0091 16.2215 27.6966 16.5334L26.7513 17.478C26.6888 17.5405 26.6537 17.6253 26.6537 17.7137C26.6537 17.8021 26.6888 17.8869 26.7513 17.9494L30.0513 21.2487C30.1138 21.3112 30.1986 21.3463 30.2869 21.3463C30.3753 21.3463 30.4601 21.3112 30.5226 21.2487L31.4666 20.3027C31.778 19.9903 31.9529 19.5672 31.9529 19.126C31.9529 18.6849 31.778 18.2618 31.4666 17.9494Z" fill="#1A202C"/>
</svg>
