<svg width="49" height="48" viewBox="0 0 49 48" fill="none" xmlns="http://www.w3.org/2000/svg">
<rect x="0.520935" width="48" height="48" rx="4" fill="#FFE29D"/>
<g clip-path="url(#clip0)">
<path d="M32.2709 17.9999H35.7709C35.8502 18 35.9284 17.9813 35.999 17.9452C36.0696 17.9092 36.1306 17.8568 36.177 17.7926C36.2234 17.7283 36.2538 17.6539 36.2658 17.5756C36.2778 17.4972 36.271 17.4171 36.2459 17.3419L34.4959 12.3419C34.4631 12.2419 34.3994 12.1548 34.3141 12.093C34.2289 12.0313 34.1262 11.998 34.0209 11.998C33.9156 11.998 33.813 12.0313 33.7277 12.093C33.6424 12.1548 33.5788 12.2419 33.5459 12.3419L31.7959 17.3419C31.7709 17.4171 31.7641 17.4972 31.7761 17.5756C31.7881 17.6539 31.8185 17.7283 31.8649 17.7926C31.9113 17.8568 31.9723 17.9092 32.0429 17.9452C32.1135 17.9813 32.1917 18 32.2709 17.9999Z" fill="#1F1F1F"/>
<path d="M29.0209 14H16.5209C16.3883 14 16.2611 14.0527 16.1674 14.1464C16.0736 14.2402 16.0209 14.3674 16.0209 14.5V33.5C16.0209 33.6326 16.0736 33.7598 16.1674 33.8536C16.2611 33.9473 16.3883 34 16.5209 34H29.0209C29.1535 34 29.2807 33.9473 29.3745 33.8536C29.4683 33.7598 29.5209 33.6326 29.5209 33.5V14.5C29.5209 14.3674 29.4683 14.2402 29.3745 14.1464C29.2807 14.0527 29.1535 14 29.0209 14V14ZM20.0209 22.5V19.5C20.0209 19.3674 20.0736 19.2402 20.1674 19.1464C20.2611 19.0527 20.3883 19 20.5209 19H25.5209C25.6535 19 25.7807 19.0527 25.8745 19.1464C25.9683 19.2402 26.0209 19.3674 26.0209 19.5V22.5C26.0209 22.6326 25.9683 22.7598 25.8745 22.8536C25.7807 22.9473 25.6535 23 25.5209 23H20.5209C20.3883 23 20.2611 22.9473 20.1674 22.8536C20.0736 22.7598 20.0209 22.6326 20.0209 22.5Z" fill="#1F1F1F"/>
<path d="M14.5209 14H14.0209C13.6231 14 13.2416 14.158 12.9603 14.4393C12.679 14.7206 12.5209 15.1022 12.5209 15.5V32.5C12.5209 32.8978 12.679 33.2794 12.9603 33.5607C13.2416 33.842 13.6231 34 14.0209 34H14.5209C14.6535 34 14.7807 33.9473 14.8745 33.8536C14.9683 33.7598 15.0209 33.6326 15.0209 33.5V14.5C15.0209 14.3674 14.9683 14.2402 14.8745 14.1464C14.7807 14.0527 14.6535 14 14.5209 14V14Z" fill="#1F1F1F"/>
<path d="M36.0209 19H32.0209C31.7448 19 31.5209 19.2239 31.5209 19.5V31C31.5209 31.2761 31.7448 31.5 32.0209 31.5H36.0209C36.2971 31.5 36.5209 31.2761 36.5209 31V19.5C36.5209 19.2239 36.2971 19 36.0209 19Z" fill="#1F1F1F"/>
<path d="M36.0209 32.5H32.0209C31.8883 32.5 31.7611 32.5527 31.6674 32.6464C31.5736 32.7402 31.5209 32.8674 31.5209 33V33.5C31.5209 34.163 31.7843 34.7989 32.2532 35.2678C32.722 35.7366 33.3579 36 34.0209 36C34.684 36 35.3199 35.7366 35.7887 35.2678C36.2575 34.7989 36.5209 34.163 36.5209 33.5V33C36.5209 32.8674 36.4683 32.7402 36.3745 32.6464C36.2807 32.5527 36.1535 32.5 36.0209 32.5Z" fill="#1F1F1F"/>
</g>
<defs>
<clipPath id="clip0">
<rect width="24" height="24" fill="white" transform="translate(12.5209 12)"/>
</clipPath>
</defs>
</svg>
