<svg width="48" height="48" viewBox="0 0 48 48" fill="none" xmlns="http://www.w3.org/2000/svg">
<rect width="48" height="48" rx="4" fill="#FFE29D"/>
<path d="M30.707 21.2071L31.707 20.2071C31.8025 20.1148 31.8787 20.0045 31.9311 19.8825C31.9835 19.7605 32.0111 19.6293 32.0123 19.4965C32.0134 19.3637 31.9881 19.232 31.9378 19.1091C31.8876 18.9862 31.8133 18.8746 31.7194 18.7807C31.6255 18.6868 31.5139 18.6125 31.391 18.5623C31.2681 18.512 31.1364 18.4867 31.0036 18.4878C30.8708 18.489 30.7396 18.5166 30.6176 18.569C30.4956 18.6214 30.3853 18.6976 30.293 18.7931L29.293 19.7931C29.2001 19.8861 29.0899 19.9598 28.9685 20.0101C28.8471 20.0605 28.7169 20.0864 28.5855 20.0864C28.4541 20.0864 28.324 20.0605 28.2026 20.0101C28.0812 19.9598 27.9709 19.8861 27.878 19.7931C27.3066 19.2477 26.547 18.9434 25.757 18.9434C24.9671 18.9434 24.2075 19.2477 23.636 19.7931C23.4485 19.9806 23.1942 20.0859 22.929 20.0859C22.6638 20.0859 22.4095 19.9806 22.222 19.7931C21.6504 19.2476 20.8906 18.9433 20.1005 18.9433C19.3104 18.9433 18.5506 19.2476 17.979 19.7931L16.979 20.7931C16.7915 20.9807 16.6862 21.2352 16.6863 21.5004C16.6864 21.7657 16.7919 22.0201 16.9795 22.2076C17.1672 22.3951 17.4216 22.5004 17.6869 22.5003C17.9521 22.5002 18.2065 22.3947 18.394 22.2071L19.394 21.2071C19.5845 21.0253 19.8377 20.9238 20.101 20.9238C20.3643 20.9238 20.6175 21.0253 20.808 21.2071C21.3706 21.7695 22.1335 22.0854 22.929 22.0854C23.7245 22.0854 24.4874 21.7695 25.05 21.2071C25.2405 21.0253 25.4937 20.9238 25.757 20.9238C26.0203 20.9238 26.2735 21.0253 26.464 21.2071C26.7426 21.4857 27.0733 21.7067 27.4373 21.8575C27.8014 22.0083 28.1915 22.0859 28.5855 22.0859C28.9795 22.0859 29.3697 22.0083 29.7337 21.8575C30.0977 21.7067 30.4284 21.4857 30.707 21.2071Z" fill="#1F1F1F"/>
<path d="M23.636 25.7929C23.4485 25.9804 23.1942 26.0857 22.929 26.0857C22.6638 26.0857 22.4095 25.9804 22.222 25.7929C21.6504 25.2475 20.8906 24.9431 20.1005 24.9431C19.3104 24.9431 18.5506 25.2475 17.979 25.7929L16.979 26.7929C16.7915 26.9806 16.6862 27.235 16.6863 27.5003C16.6864 27.7656 16.7919 28.0199 16.9795 28.2074C17.1672 28.3949 17.4216 28.5002 17.6869 28.5001C17.9521 28.5 18.2065 28.3946 18.394 28.2069L19.394 27.2069C19.5845 27.0251 19.8377 26.9237 20.101 26.9237C20.3643 26.9237 20.6175 27.0251 20.808 27.2069C21.3706 27.7693 22.1335 28.0853 22.929 28.0853C23.7245 28.0853 24.4874 27.7693 25.05 27.2069C25.2322 27.0183 25.333 26.7657 25.3307 26.5035C25.3284 26.2413 25.2232 25.9905 25.0378 25.8051C24.8524 25.6197 24.6016 25.5145 24.3394 25.5123C24.0772 25.51 23.8246 25.6108 23.636 25.7929V25.7929Z" fill="#1F1F1F"/>
<path d="M36 14C36 13.4696 35.7893 12.9609 35.4142 12.5858C35.0391 12.2107 34.5304 12 34 12H14C13.4696 12 12.9609 12.2107 12.5858 12.5858C12.2107 12.9609 12 13.4696 12 14V34C12 34.5304 12.2107 35.0391 12.5858 35.4142C12.9609 35.7893 13.4696 36 14 36H28C28.2652 35.9999 28.5195 35.8946 28.707 35.707L35.707 28.707C35.8946 28.5195 35.9999 28.2652 36 28V14ZM14 14.5C14 14.3674 14.0527 14.2402 14.1464 14.1464C14.2402 14.0527 14.3674 14 14.5 14H33.5C33.6326 14 33.7598 14.0527 33.8536 14.1464C33.9473 14.2402 34 14.3674 34 14.5V27C34 27.1326 33.9473 27.2598 33.8536 27.3536C33.7598 27.4473 33.6326 27.5 33.5 27.5H29.5C28.9696 27.5 28.4609 27.7107 28.0858 28.0858C27.7107 28.4609 27.5 28.9696 27.5 29.5V33.5C27.5 33.6326 27.4473 33.7598 27.3536 33.8536C27.2598 33.9473 27.1326 34 27 34H14.5C14.3674 34 14.2402 33.9473 14.1464 33.8536C14.0527 33.7598 14 33.6326 14 33.5V14.5Z" fill="#1F1F1F"/>
</svg>
