<svg width="48" height="48" viewBox="0 0 48 48" fill="none" xmlns="http://www.w3.org/2000/svg">
<rect width="48" height="48" rx="4" fill="#FFE29D"/>
<g clip-path="url(#clip0)">
<path d="M28.4161 20.0001C28.1507 19.8014 27.8174 19.7162 27.4893 19.7631C27.1612 19.8099 26.8651 19.9851 26.6661 20.2501L22.931 25.2301L20.883 23.1821C20.6487 22.9478 20.3309 22.8161 19.9995 22.8161C19.6682 22.8161 19.3504 22.9478 19.116 23.1821C18.8817 23.4164 18.7501 23.7342 18.7501 24.0656C18.7501 24.397 18.8817 24.7148 19.116 24.9491L21.557 27.3911C21.7634 27.5916 22.0098 27.7462 22.2801 27.8449C22.5503 27.9435 22.8384 27.984 23.1254 27.9636C23.4124 27.9432 23.6918 27.8624 23.9454 27.7265C24.1991 27.5906 24.4211 27.4027 24.597 27.1751L28.6661 21.7491C28.8646 21.4839 28.9499 21.1508 28.903 20.8229C28.8561 20.4949 28.681 20.199 28.4161 20.0001Z" fill="#1F1F1F"/>
<path d="M35.0311 21.9776L33.1931 20.4996C33.1158 20.4367 33.0553 20.3554 33.0172 20.2632C32.9792 20.171 32.9647 20.0708 32.9751 19.9716L33.2301 17.6266C33.2722 17.2409 33.2272 16.8506 33.0984 16.4846C32.9696 16.1186 32.7603 15.7862 32.4859 15.5118C32.2116 15.2374 31.8791 15.0281 31.5131 14.8993C31.1471 14.7705 30.7568 14.7255 30.3711 14.7676L28.0251 15.0226C27.9261 15.0342 27.8258 15.0202 27.7337 14.9821C27.6417 14.9439 27.5609 14.8828 27.4991 14.8046L26.0211 12.9666C25.778 12.6645 25.4703 12.4207 25.1205 12.2532C24.7708 12.0857 24.3879 11.9988 24.0001 11.9988C23.6123 11.9988 23.2295 12.0857 22.8797 12.2532C22.53 12.4207 22.2222 12.6645 21.9791 12.9666V12.9666L20.5001 14.8046C20.4378 14.8826 20.3569 14.9435 20.2647 14.9818C20.1726 15.0201 20.0723 15.0345 19.9731 15.0236L17.6281 14.7686C17.2424 14.7264 16.8522 14.7712 16.4862 14.8999C16.1202 15.0286 15.7877 15.2378 15.5133 15.5121C15.2389 15.7864 15.0296 16.1188 14.9008 16.4847C14.772 16.8507 14.727 17.2409 14.7691 17.6266L15.0241 19.9736C15.0353 20.0725 15.0213 20.1726 14.9833 20.2646C14.9454 20.3565 14.8848 20.4374 14.8071 20.4996L12.9681 21.9776C12.666 22.2207 12.4222 22.5285 12.2547 22.8782C12.0872 23.228 12.0003 23.6108 12.0003 23.9986C12.0003 24.3864 12.0872 24.7693 12.2547 25.119C12.4222 25.4688 12.666 25.7765 12.9681 26.0196L14.8061 27.4996C14.8843 27.5621 14.9453 27.6435 14.9834 27.736C15.0215 27.8285 15.0355 27.9292 15.0241 28.0286L14.7691 30.3696C14.7271 30.7554 14.7721 31.1457 14.9009 31.5117C15.0297 31.8778 15.2389 32.2103 15.5133 32.4847C15.7876 32.7592 16.12 32.9686 16.4861 33.0975C16.8521 33.2264 17.2423 33.2716 17.6281 33.2296L19.9741 32.9736C20.0731 32.9622 20.1734 32.9762 20.2654 33.0143C20.3575 33.0525 20.4383 33.1135 20.5001 33.1916L21.9791 35.0296C22.222 35.3321 22.5297 35.5762 22.8795 35.7439C23.2292 35.9116 23.6122 35.9987 24.0001 35.9987C24.388 35.9987 24.771 35.9116 25.1208 35.7439C25.4706 35.5762 25.7782 35.3321 26.0211 35.0296L27.5001 33.1926C27.5629 33.1152 27.6439 33.0547 27.7359 33.0165C27.8279 32.9782 27.928 32.9635 28.0271 32.9736L30.3731 33.2296C30.7588 33.2715 31.149 33.2264 31.5149 33.0975C31.8808 32.9687 32.2132 32.7594 32.4875 32.485C32.7619 32.2107 32.9712 31.8783 33.1 31.5124C33.2289 31.1465 33.274 30.7563 33.2321 30.3706L32.9771 28.0236C32.9659 27.9248 32.9799 27.8247 33.0179 27.7327C33.0558 27.6407 33.1165 27.5598 33.1941 27.4976L35.0331 26.0196C35.3356 25.7767 35.5797 25.4691 35.7474 25.1193C35.9151 24.7695 36.0021 24.3865 36.0021 23.9986C36.0021 23.6107 35.9151 23.2277 35.7474 22.878C35.5797 22.5282 35.3356 22.2205 35.0331 21.9776H35.0311ZM33.7781 24.4606L31.9391 25.9386C31.5993 26.2106 31.3337 26.5641 31.1671 26.9662C31.0005 27.3683 30.9382 27.806 30.9861 28.2386L31.2421 30.5856C31.2517 30.6737 31.2414 30.7628 31.2119 30.8464C31.1825 30.93 31.1347 31.0059 31.0721 31.0686C31.0097 31.1319 30.9336 31.18 30.8497 31.2095C30.7659 31.239 30.6764 31.2489 30.5881 31.2386L28.2411 30.9836C27.8085 30.9358 27.3708 30.9981 26.9687 31.1647C26.5666 31.3313 26.2131 31.5969 25.9411 31.9366L24.4631 33.7756C24.405 33.8409 24.3338 33.8932 24.2541 33.9289C24.1744 33.9647 24.088 33.9832 24.0006 33.9832C23.9132 33.9832 23.8269 33.9647 23.7471 33.9289C23.6674 33.8932 23.5962 33.8409 23.5381 33.7756L22.0601 31.9386C21.8183 31.636 21.5114 31.3917 21.1622 31.224C20.813 31.0562 20.4305 30.9693 20.0431 30.9696C19.9476 30.9695 19.8521 30.9748 19.7571 30.9856L17.4111 31.2406C17.323 31.2509 17.2337 31.2409 17.15 31.2115C17.0662 31.182 16.9904 31.1338 16.9281 31.0706C16.8651 31.008 16.8169 30.932 16.7873 30.8482C16.7577 30.7644 16.7474 30.675 16.7571 30.5866L17.0131 28.2426C17.0609 27.81 16.9986 27.3723 16.832 26.9702C16.6654 26.5681 16.3999 26.2147 16.0601 25.9426L14.2211 24.4606C14.152 24.4049 14.0963 24.3345 14.058 24.2545C14.0197 24.1744 13.9998 24.0868 13.9998 23.9981C13.9998 23.9094 14.0197 23.8218 14.058 23.7418C14.0963 23.6617 14.152 23.5913 14.2211 23.5356L16.0601 22.0586C16.4 21.7867 16.6655 21.4332 16.8321 21.0311C16.9988 20.629 17.061 20.1912 17.0131 19.7586L16.7571 17.4096C16.7474 17.3214 16.7577 17.2322 16.7871 17.1485C16.8166 17.0648 16.8645 16.9887 16.9273 16.9261C16.9901 16.8634 17.0662 16.8156 17.1499 16.7863C17.2337 16.7569 17.3229 16.7468 17.4111 16.7566L19.7581 17.0116C20.1907 17.0593 20.6284 16.997 21.0305 16.8304C21.4325 16.6638 21.786 16.3983 22.0581 16.0586L23.5361 14.2206C23.5942 14.1553 23.6654 14.1031 23.7451 14.0673C23.8249 14.0315 23.9112 14.013 23.9986 14.013C24.086 14.013 24.1724 14.0315 24.2521 14.0673C24.3318 14.1031 24.403 14.1553 24.4611 14.2206L25.9381 16.0596C26.21 16.3996 26.5634 16.6653 26.9656 16.8319C27.3677 16.9985 27.8055 17.0607 28.2381 17.0126L30.5841 16.7576C30.6723 16.7482 30.7615 16.7586 30.8452 16.7881C30.9288 16.8176 31.0048 16.8655 31.0675 16.9282C31.1303 16.9909 31.1781 17.0669 31.2077 17.1506C31.2372 17.2342 31.2476 17.3234 31.2381 17.4116L30.9821 19.7586C30.9348 20.1912 30.9973 20.6287 31.1639 21.0307C31.3305 21.4328 31.5957 21.7863 31.9351 22.0586L33.7731 23.5356C33.8425 23.5911 33.8986 23.6614 33.9371 23.7415C33.9756 23.8216 33.9956 23.9093 33.9956 23.9981C33.9956 24.087 33.9756 24.1747 33.9371 24.2547C33.8986 24.3348 33.8425 24.4052 33.7731 24.4606H33.7781Z" fill="#1F1F1F"/>
</g>
<defs>
<clipPath id="clip0">
<rect width="24" height="24" fill="white" transform="translate(12 12)"/>
</clipPath>
</defs>
</svg>
