<svg width="32" height="32" viewBox="0 0 32 32" fill="none" xmlns="http://www.w3.org/2000/svg">
<path d="M27.25 5.75H26.25C26.1837 5.75 26.1201 5.72366 26.0732 5.67678C26.0263 5.62989 26 5.5663 26 5.5V5C26 4.73478 25.8946 4.48043 25.7071 4.29289C25.5196 4.10536 25.2652 4 25 4C24.7348 4 24.4804 4.10536 24.2929 4.29289C24.1054 4.48043 24 4.73478 24 5V5.4C24.0002 5.41357 23.9977 5.42703 23.9925 5.43958C23.9873 5.45213 23.9797 5.4635 23.97 5.473L21.427 8.013C21.392 8.04805 21.3474 8.07194 21.2989 8.08162C21.2503 8.0913 21.2 8.08635 21.1543 8.06739C21.1085 8.04843 21.0695 8.01632 21.042 7.97513C21.0145 7.93393 20.9999 7.88551 21 7.836V5C21 4.73478 20.8946 4.48043 20.7071 4.29289C20.5196 4.10536 20.2652 4 20 4C19.7348 4 19.4804 4.10536 19.2929 4.29289C19.1054 4.48043 19 4.73478 19 5V5.25C19 5.3163 18.9737 5.37989 18.9268 5.42678C18.8799 5.47366 18.8163 5.5 18.75 5.5H5C4.73478 5.5 4.48043 5.60536 4.29289 5.79289C4.10536 5.98043 4 6.23478 4 6.5C4 6.76522 4.10536 7.01957 4.29289 7.20711C4.48043 7.39464 4.73478 7.5 5 7.5H9.25C9.3163 7.5 9.37989 7.52634 9.42678 7.57322C9.47366 7.62011 9.5 7.6837 9.5 7.75V11.939C9.49982 11.9743 9.49226 12.0092 9.47779 12.0414C9.46332 12.0736 9.44227 12.1024 9.416 12.126L5.336 15.752C4.619 16.39 4 16.54 4 17.5V22.5C4 22.8978 4.15804 23.2794 4.43934 23.5607C4.72064 23.842 5.10218 24 5.5 24H15.5C15.8978 24 16.2794 23.842 16.5607 23.5607C16.842 23.2794 17 22.8978 17 22.5V17.5C17 16.54 16.381 16.39 15.664 15.752L11.584 12.126C11.5577 12.1024 11.5367 12.0736 11.5222 12.0414C11.5077 12.0092 11.5002 11.9743 11.5 11.939V7.75C11.5 7.6837 11.5263 7.62011 11.5732 7.57322C11.6201 7.52634 11.6837 7.5 11.75 7.5H18.75C18.8163 7.5 18.8799 7.52634 18.9268 7.57322C18.9737 7.62011 19 7.6837 19 7.75V27C19 27.2652 19.1054 27.5196 19.2929 27.7071C19.4804 27.8946 19.7348 28 20 28C20.2652 28 20.5196 27.8946 20.7071 27.7071C20.8946 27.5196 21 27.2652 21 27V26.6C21.0001 26.5724 21.0108 26.5459 21.03 26.526L23.573 23.983C23.608 23.9479 23.6526 23.9241 23.7011 23.9144C23.7497 23.9047 23.8 23.9096 23.8457 23.9286C23.8915 23.9476 23.9305 23.9797 23.958 24.0209C23.9855 24.0621 24.0001 24.1105 24 24.16V27C24 27.2652 24.1054 27.5196 24.2929 27.7071C24.4804 27.8946 24.7348 28 25 28C25.2652 28 25.5196 27.8946 25.7071 27.7071C25.8946 27.5196 26 27.2652 26 27V7.5C26 7.4337 26.0263 7.37011 26.0732 7.32322C26.1201 7.27634 26.1837 7.25 26.25 7.25H27.25C27.4489 7.25 27.6397 7.17098 27.7803 7.03033C27.921 6.88968 28 6.69891 28 6.5C28 6.30109 27.921 6.11032 27.7803 5.96967C27.6397 5.82902 27.4489 5.75 27.25 5.75ZM13.75 18.5V21.5C13.75 21.6989 13.671 21.8897 13.5303 22.0303C13.3897 22.171 13.1989 22.25 13 22.25C12.8011 22.25 12.6103 22.171 12.4697 22.0303C12.329 21.8897 12.25 21.6989 12.25 21.5V18.5C12.25 18.3011 12.329 18.1103 12.4697 17.9697C12.6103 17.829 12.8011 17.75 13 17.75C13.1989 17.75 13.3897 17.829 13.5303 17.9697C13.671 18.1103 13.75 18.3011 13.75 18.5ZM8.75 18.5V21.5C8.75 21.6989 8.67098 21.8897 8.53033 22.0303C8.38968 22.171 8.19891 22.25 8 22.25C7.80109 22.25 7.61032 22.171 7.46967 22.0303C7.32902 21.8897 7.25 21.6989 7.25 21.5V18.5C7.25 18.3011 7.32902 18.1103 7.46967 17.9697C7.61032 17.829 7.80109 17.75 8 17.75C8.19891 17.75 8.38968 17.829 8.53033 17.9697C8.67098 18.1103 8.75 18.3011 8.75 18.5ZM8.725 16C8.67428 16 8.62475 15.9846 8.58299 15.9558C8.54124 15.927 8.50923 15.8862 8.49122 15.8388C8.47321 15.7914 8.47004 15.7396 8.48215 15.6903C8.49426 15.6411 8.52106 15.5967 8.559 15.563L10.334 13.986C10.3796 13.945 10.4387 13.9222 10.5 13.9222C10.5613 13.9222 10.6204 13.945 10.666 13.986L12.441 15.563C12.4789 15.5967 12.5057 15.6411 12.5178 15.6903C12.53 15.7396 12.5268 15.7914 12.5088 15.8388C12.4908 15.8862 12.4588 15.927 12.417 15.9558C12.3752 15.9846 12.3257 16 12.275 16H8.725ZM21.425 16.013C21.3899 16.0474 21.3455 16.0707 21.2973 16.08C21.2491 16.0892 21.1992 16.0841 21.1539 16.0653C21.1086 16.0464 21.0698 16.0146 21.0424 15.9738C21.0151 15.933 21.0003 15.8851 21 15.836V12.164C20.9999 12.1145 21.0145 12.0661 21.042 12.0249C21.0695 11.9837 21.1085 11.9516 21.1543 11.9326C21.2 11.9136 21.2503 11.9087 21.2989 11.9184C21.3474 11.9281 21.392 11.9519 21.427 11.987L23.263 13.823C23.3095 13.8702 23.3356 13.9337 23.3356 14C23.3356 14.0663 23.3095 14.1298 23.263 14.177L21.425 16.013ZM23.571 15.987C23.606 15.9519 23.6506 15.9281 23.6991 15.9184C23.7477 15.9087 23.798 15.9136 23.8437 15.9326C23.8895 15.9516 23.9285 15.9837 23.956 16.0249C23.9835 16.0661 23.9981 16.1145 23.998 16.164V19.836C23.9981 19.8855 23.9835 19.9339 23.956 19.9751C23.9285 20.0163 23.8895 20.0484 23.8437 20.0674C23.798 20.0864 23.7477 20.0913 23.6991 20.0816C23.6506 20.0719 23.606 20.0481 23.571 20.013L21.735 18.177C21.6885 18.1298 21.6624 18.0663 21.6624 18C21.6624 17.9337 21.6885 17.8702 21.735 17.823L23.571 15.987ZM21.735 10.177C21.6885 10.1298 21.6624 10.0663 21.6624 10C21.6624 9.93375 21.6885 9.87016 21.735 9.823L23.571 7.987C23.6059 7.95125 23.6506 7.92675 23.6995 7.91667C23.7484 7.90658 23.7992 7.91137 23.8454 7.93041C23.8915 7.94945 23.9309 7.98188 23.9585 8.02351C23.986 8.06514 24.0005 8.11407 24 8.164V11.836C24.0001 11.8855 23.9855 11.9339 23.958 11.9751C23.9305 12.0163 23.8915 12.0484 23.8457 12.0674C23.8 12.0864 23.7497 12.0913 23.7011 12.0816C23.6526 12.0719 23.608 12.0481 23.573 12.013L21.735 10.177ZM21.425 24.013C21.3899 24.0474 21.3455 24.0707 21.2973 24.08C21.2491 24.0892 21.1992 24.0841 21.1539 24.0653C21.1086 24.0464 21.0698 24.0146 21.0424 23.9738C21.0151 23.933 21.0003 23.8851 21 23.836V20.164C20.9999 20.1145 21.0145 20.0661 21.042 20.0249C21.0695 19.9837 21.1085 19.9516 21.1543 19.9326C21.2 19.9136 21.2503 19.9087 21.2989 19.9184C21.3474 19.9281 21.392 19.9519 21.427 19.987L23.263 21.823C23.3095 21.8702 23.3356 21.9337 23.3356 22C23.3356 22.0663 23.3095 22.1298 23.263 22.177L21.425 24.013Z" fill="#FFCF5C"/>
</svg>
