<svg width="32" height="32" viewBox="0 0 32 32" fill="none" xmlns="http://www.w3.org/2000/svg">
<path d="M16.75 9H10.75C10.5511 9 10.3603 9.07902 10.2197 9.21967C10.079 9.36032 10 9.55109 10 9.75C10 9.94891 10.079 10.1397 10.2197 10.2803C10.3603 10.421 10.5511 10.5 10.75 10.5H16.75C16.9489 10.5 17.1397 10.421 17.2803 10.2803C17.421 10.1397 17.5 9.94891 17.5 9.75C17.5 9.55109 17.421 9.36032 17.2803 9.21967C17.1397 9.07902 16.9489 9 16.75 9Z" fill="#FFCF5C"/>
<path d="M17.5 13.25C17.5 13.0511 17.421 12.8603 17.2803 12.7197C17.1397 12.579 16.9489 12.5 16.75 12.5H8.75C8.55109 12.5 8.36032 12.579 8.21967 12.7197C8.07902 12.8603 8 13.0511 8 13.25C8 13.4489 8.07902 13.6397 8.21967 13.7803C8.36032 13.921 8.55109 14 8.75 14H16.75C16.9489 14 17.1397 13.921 17.2803 13.7803C17.421 13.6397 17.5 13.4489 17.5 13.25Z" fill="#FFCF5C"/>
<path d="M8.75 16C8.55109 16 8.36032 16.079 8.21967 16.2197C8.07902 16.3603 8 16.5511 8 16.75C8 16.9489 8.07902 17.1397 8.21967 17.2803C8.36032 17.421 8.55109 17.5 8.75 17.5H14.25C14.4489 17.5 14.6397 17.421 14.7803 17.2803C14.921 17.1397 15 16.9489 15 16.75C15 16.5511 14.921 16.3603 14.7803 16.2197C14.6397 16.079 14.4489 16 14.25 16H8.75Z" fill="#FFCF5C"/>
<path d="M15.3 21.655C15.281 21.6093 15.2489 21.5703 15.2078 21.5427C15.1667 21.5152 15.1185 21.5003 15.069 21.5H6.5C6.36739 21.5 6.24021 21.4473 6.14645 21.3536C6.05268 21.2598 6 21.1326 6 21V6.5C6 6.36739 6.05268 6.24021 6.14645 6.14645C6.24021 6.05268 6.36739 6 6.5 6H19.5C19.6326 6 19.7598 6.05268 19.8536 6.14645C19.9473 6.24021 20 6.36739 20 6.5V16.57C20.0001 16.6194 20.0149 16.6677 20.0424 16.7087C20.0699 16.7498 20.109 16.7817 20.1547 16.8006C20.2004 16.8194 20.2507 16.8243 20.2991 16.8146C20.3476 16.8049 20.3921 16.781 20.427 16.746L21.707 15.466C21.8946 15.2785 21.9999 15.0242 22 14.759V6C22 5.46957 21.7893 4.96086 21.4142 4.58579C21.0391 4.21071 20.5304 4 20 4H6C5.46957 4 4.96086 4.21071 4.58579 4.58579C4.21071 4.96086 4 5.46957 4 6V21.5C4 22.0304 4.21071 22.5391 4.58579 22.9142C4.96086 23.2893 5.46957 23.5 6 23.5H13.868C13.975 23.5 14.0791 23.4657 14.1651 23.4022C14.2512 23.3387 14.3146 23.2492 14.346 23.147C14.4412 22.8363 14.6132 22.5547 14.846 22.328L15.246 21.928C15.281 21.893 15.3049 21.8483 15.3145 21.7997C15.3241 21.7511 15.3191 21.7007 15.3 21.655Z" fill="#FFCF5C"/>
<path d="M16.0621 24.1309C16.0299 24.0993 15.9898 24.0768 15.946 24.066C15.9021 24.0552 15.8562 24.0564 15.813 24.0695C15.7698 24.0826 15.7309 24.1071 15.7005 24.1405C15.6701 24.1738 15.6492 24.2147 15.6401 24.2589L15.0121 27.3999C14.9972 27.4726 14.9987 27.5476 15.0165 27.6196C15.0342 27.6916 15.0678 27.7588 15.1147 27.8162C15.1616 27.8736 15.2207 27.9199 15.2877 27.9517C15.3547 27.9835 15.4279 28 15.5021 27.9999C15.5357 28.0002 15.5692 27.9969 15.6021 27.9899L18.7451 27.3609C18.7894 27.352 18.8304 27.3312 18.8639 27.3007C18.8973 27.2702 18.9218 27.2313 18.9349 27.188C18.9479 27.1447 18.9489 27.0986 18.9379 27.0548C18.9268 27.0109 18.9041 26.9709 18.8721 26.9389L16.0621 24.1309Z" fill="#FFCF5C"/>
<path d="M27.228 15.765C26.7369 15.2753 26.0716 15.0002 25.378 15.0002C24.6844 15.0002 24.0191 15.2753 23.528 15.765L17.028 22.265C16.9342 22.3588 16.8816 22.4859 16.8816 22.6185C16.8816 22.7511 16.9342 22.8782 17.028 22.972L20.028 25.972C20.1217 26.0657 20.2489 26.1184 20.3815 26.1184C20.5141 26.1184 20.6412 26.0657 20.735 25.972L27.235 19.472C27.478 19.2282 27.6705 18.9388 27.8017 18.6206C27.9328 18.3023 28 17.9613 27.9993 17.6171C27.9987 17.2728 27.9302 16.9321 27.7979 16.6143C27.6655 16.2965 27.4719 16.0079 27.228 15.765Z" fill="#FFCF5C"/>
</svg>
