<svg width="282" height="178" viewBox="0 0 282 178" fill="none" xmlns="http://www.w3.org/2000/svg">
<g filter="url(#filter0_d)">
<rect x="2.5" y="0.5" width="132" height="80" rx="3.5" stroke="#FFF8E7"/>
</g>
<g filter="url(#filter1_d)">
<rect x="143.5" y="89.5" width="132" height="80" rx="3.5" stroke="#FFF8E7"/>
</g>
<path d="M83.6666 23.6667C83.6666 23.3131 83.5262 22.9739 83.2761 22.7239C83.0261 22.4738 82.6869 22.3334 82.3333 22.3334H63.6666C63.3131 22.3334 62.974 22.474 62.724 22.724L54.724 30.724C54.4739 30.974 54.3334 31.3131 54.3333 31.6667V50.3334C54.3333 50.687 54.4738 51.0261 54.7238 51.2762C54.9739 51.5262 55.313 51.6667 55.6666 51.6667H74.3333C74.6869 51.6666 75.026 51.5261 75.276 51.276L83.276 43.276C83.526 43.0261 83.6666 42.687 83.6666 42.3334V23.6667ZM62.0973 27.1214C62.1439 27.0746 62.2034 27.0428 62.2681 27.0299C62.3329 27.017 62.4 27.0236 62.461 27.0489C62.5219 27.0741 62.574 27.1169 62.6107 27.1719C62.6473 27.2268 62.6668 27.2914 62.6666 27.3574V28C62.6665 28.0439 62.675 28.0873 62.6917 28.1278C62.7083 28.1683 62.7329 28.2051 62.7639 28.2361C62.7949 28.2671 62.8317 28.2917 62.8722 28.3084C62.9127 28.325 62.9562 28.3335 63 28.3334H64.3333C64.3771 28.3335 64.4206 28.325 64.4611 28.3084C64.5016 28.2917 64.5384 28.2671 64.5694 28.2361C64.6004 28.2051 64.6249 28.1683 64.6416 28.1278C64.6583 28.0873 64.6668 28.0439 64.6666 28V25.3334C64.6666 25.245 64.7018 25.1602 64.7643 25.0977C64.8268 25.0352 64.9116 25 65 25H78.3106C78.3767 24.9999 78.4412 25.0194 78.4961 25.056C78.5511 25.0926 78.5939 25.1447 78.6192 25.2057C78.6444 25.2667 78.651 25.3338 78.6381 25.3986C78.6252 25.4633 78.5934 25.5228 78.5466 25.5694L73.88 30.236C73.8489 30.2672 73.8118 30.2918 73.7711 30.3086C73.7303 30.3253 73.6867 30.3337 73.6426 30.3334H59.6906C59.6246 30.3335 59.5601 30.314 59.5051 30.2774C59.4502 30.2408 59.4074 30.1887 59.3821 30.1277C59.3568 30.0667 59.3502 29.9996 59.3632 29.9348C59.3761 29.8701 59.4079 29.8107 59.4546 29.764L62.0973 27.1214ZM73 48.6667C73 48.7551 72.9649 48.8399 72.9023 48.9024C72.8398 48.9649 72.7551 49 72.6666 49H59.2186C59.1526 49.0002 59.0881 48.9807 59.0331 48.9441C58.9782 48.9074 58.9354 48.8553 58.9101 48.7943C58.8848 48.7334 58.8782 48.6663 58.8912 48.6015C58.9041 48.5368 58.9359 48.4773 58.9826 48.4307L63.9826 43.4307C64.0454 43.3684 64.1302 43.3334 64.2186 43.3334H70.6666C70.7551 43.3334 70.8398 43.2983 70.9023 43.2357C70.9649 43.1732 71 43.0884 71 43V41.6667C71 41.5783 70.9649 41.4935 70.9023 41.431C70.8398 41.3685 70.7551 41.3334 70.6666 41.3334H65C64.9116 41.3334 64.8268 41.2983 64.7643 41.2357C64.7018 41.1732 64.6666 41.0884 64.6666 41V35.3334C64.6666 35.245 64.6315 35.1602 64.569 35.0977C64.5065 35.0352 64.4217 35 64.3333 35H63C62.9116 35 62.8268 35.0352 62.7643 35.0977C62.7018 35.1602 62.6666 35.245 62.6666 35.3334V41.7814C62.6667 41.8698 62.6317 41.9547 62.5693 42.0174L57.5693 47.0174C57.5227 47.0641 57.4632 47.096 57.3985 47.1089C57.3338 47.1218 57.2667 47.1152 57.2057 47.0899C57.1447 47.0646 57.0926 47.0218 57.056 46.9669C57.0193 46.9119 56.9999 46.8474 57 46.7814V33.3334C57 33.245 57.0351 33.1602 57.0976 33.0977C57.1601 33.0352 57.2449 33 57.3333 33H72.6666C72.7551 33 72.8398 33.0352 72.9023 33.0977C72.9649 33.1602 73 33.245 73 33.3334V48.6667ZM76.236 46.5454C76.1894 46.5921 76.1299 46.624 76.0652 46.6369C76.0004 46.6498 75.9333 46.6432 75.8723 46.6179C75.8114 46.5926 75.7593 46.5498 75.7226 46.4949C75.686 46.4399 75.6665 46.3754 75.6666 46.3094V32.3574C75.6665 32.3136 75.675 32.2701 75.6917 32.2296C75.7084 32.1891 75.733 32.1523 75.764 32.1214L80.4306 27.4547C80.4773 27.408 80.5367 27.3761 80.6015 27.3632C80.6662 27.3503 80.7333 27.3569 80.7943 27.3822C80.8553 27.4075 80.9074 27.4503 80.944 27.5052C80.9806 27.5601 81.0001 27.6247 81 27.6907V41C81 41.0884 80.9649 41.1732 80.9023 41.2357C80.8398 41.2983 80.7551 41.3334 80.6666 41.3334H78C77.9116 41.3334 77.8268 41.3685 77.7643 41.431C77.7018 41.4935 77.6666 41.5783 77.6666 41.6667V43C77.6666 43.0884 77.7018 43.1732 77.7643 43.2357C77.8268 43.2983 77.9116 43.3334 78 43.3334H78.6426C78.7087 43.3333 78.7732 43.3527 78.8281 43.3894C78.8831 43.426 78.9259 43.4781 78.9512 43.5391C78.9764 43.6 78.983 43.6672 78.9701 43.7319C78.9572 43.7966 78.9254 43.8561 78.8786 43.9027L76.236 46.5454Z" fill="#FFCF5C"/>
<path d="M228.184 51.6L223.833 47.2507C223.802 47.2197 223.766 47.1951 223.725 47.1783C223.685 47.1615 223.642 47.1529 223.598 47.1529C223.554 47.1529 223.511 47.1615 223.471 47.1783C223.43 47.1951 223.394 47.2197 223.363 47.2507L221.8 48.816C221.674 48.9375 221.506 49.0047 221.331 49.0031C221.156 49.0016 220.989 48.9315 220.865 48.8079C220.742 48.6843 220.672 48.5171 220.67 48.3423C220.669 48.1675 220.736 47.9991 220.857 47.8734L222.427 46.3054C222.489 46.2425 222.524 46.1577 222.524 46.0694C222.524 45.981 222.489 45.8962 222.427 45.8334L219.173 42.5814C219.142 42.5504 219.106 42.5258 219.065 42.509C219.025 42.4922 218.982 42.4835 218.938 42.4835C218.894 42.4835 218.851 42.4922 218.811 42.509C218.77 42.5258 218.734 42.5504 218.703 42.5814L217.133 44.1494C217.008 44.2708 216.839 44.338 216.664 44.3365C216.49 44.335 216.322 44.2648 216.199 44.1412C216.075 44.0176 216.005 43.8504 216.004 43.6756C216.002 43.5008 216.069 43.3324 216.191 43.2067L217.76 41.6387C217.822 41.5758 217.857 41.491 217.857 41.4027C217.857 41.3144 217.822 41.2296 217.76 41.1667L214.507 37.9147C214.476 37.8837 214.439 37.8591 214.399 37.8423C214.358 37.8255 214.315 37.8169 214.271 37.8169C214.228 37.8169 214.184 37.8255 214.144 37.8423C214.104 37.8591 214.067 37.8837 214.036 37.9147L212.467 39.4827C212.341 39.6041 212.173 39.6713 211.998 39.6698C211.823 39.6683 211.656 39.5982 211.532 39.4746C211.409 39.351 211.338 39.1838 211.337 39.009C211.335 38.8342 211.403 38.6658 211.524 38.54L213.093 36.972C213.155 36.9091 213.19 36.8244 213.19 36.736C213.19 36.6477 213.155 36.5629 213.093 36.5L209.844 33.2587C209.813 33.2277 209.776 33.2031 209.736 33.1863C209.696 33.1695 209.652 33.1609 209.609 33.1609C209.565 33.1609 209.522 33.1695 209.481 33.1863C209.441 33.2031 209.404 33.2277 209.373 33.2587L207.815 34.816C207.752 34.8783 207.678 34.9276 207.597 34.9613C207.516 34.9949 207.428 35.0122 207.34 35.0122C207.252 35.0121 207.165 34.9947 207.084 34.9609C207.002 34.9272 206.928 34.8777 206.866 34.8154C206.804 34.753 206.754 34.679 206.721 34.5976C206.687 34.5162 206.67 34.429 206.67 34.3409C206.67 34.2528 206.687 34.1656 206.721 34.0842C206.755 34.0029 206.804 33.9289 206.867 33.8667L208.429 32.316C208.46 32.2851 208.485 32.2483 208.502 32.2078C208.519 32.1673 208.527 32.1239 208.527 32.08C208.527 32.0362 208.519 31.9928 208.502 31.9523C208.485 31.9118 208.46 31.875 208.429 31.844L205.177 28.592C205.146 28.561 205.11 28.5364 205.069 28.5196C205.029 28.5028 204.986 28.4942 204.942 28.4942C204.898 28.4942 204.855 28.5028 204.815 28.5196C204.774 28.5364 204.738 28.561 204.707 28.592L203.148 30.1494C203.023 30.2751 202.853 30.346 202.676 30.3465C202.499 30.347 202.328 30.277 202.203 30.152C202.077 30.027 202.006 29.8572 202.006 29.6799C202.005 29.5026 202.075 29.3324 202.2 29.2067L203.763 27.6494C203.794 27.6184 203.818 27.5816 203.835 27.5411C203.852 27.5006 203.861 27.4572 203.861 27.4134C203.861 27.3695 203.852 27.3261 203.835 27.2856C203.818 27.2451 203.794 27.2083 203.763 27.1774L199.4 22.816C198.424 21.8387 197.321 22.4 197.321 23.6787V51.6787C197.321 52.2091 197.532 52.7178 197.907 53.0929C198.282 53.468 198.791 53.6787 199.321 53.6787H227.321C228.589 53.6787 229.163 52.5774 228.184 51.6ZM201.988 36.3454C201.988 35.612 202.413 35.436 202.931 35.9547L215.045 48.0694C215.564 48.588 215.388 49.012 214.655 49.012H203.321C202.968 49.012 202.629 48.8715 202.379 48.6215C202.128 48.3715 201.988 48.0323 201.988 47.6787V36.3454Z" fill="#FFCF5C"/>
<g clip-path="url(#clip0)">
<path d="M228 117.333H226.667C226.578 117.333 226.493 117.298 226.431 117.236C226.368 117.173 226.333 117.088 226.333 117V116.333C226.333 115.98 226.193 115.641 225.943 115.391C225.693 115.14 225.354 115 225 115C224.646 115 224.307 115.14 224.057 115.391C223.807 115.641 223.667 115.98 223.667 116.333V116.867C223.667 116.885 223.664 116.903 223.657 116.919C223.65 116.936 223.64 116.951 223.627 116.964L220.236 120.351C220.189 120.397 220.13 120.429 220.065 120.442C220 120.455 219.933 120.448 219.872 120.423C219.811 120.398 219.759 120.355 219.723 120.3C219.686 120.245 219.667 120.181 219.667 120.115V116.333C219.667 115.98 219.526 115.641 219.276 115.391C219.026 115.14 218.687 115 218.333 115C217.98 115 217.641 115.14 217.391 115.391C217.14 115.641 217 115.98 217 116.333V116.667C217 116.755 216.965 116.84 216.902 116.902C216.84 116.965 216.755 117 216.667 117H198.333C197.98 117 197.641 117.14 197.391 117.391C197.14 117.641 197 117.98 197 118.333C197 118.687 197.14 119.026 197.391 119.276C197.641 119.526 197.98 119.667 198.333 119.667H204C204.088 119.667 204.173 119.702 204.236 119.764C204.298 119.827 204.333 119.912 204.333 120V125.585C204.333 125.632 204.323 125.679 204.304 125.722C204.284 125.765 204.256 125.803 204.221 125.835L198.781 130.669C197.825 131.52 197 131.72 197 133V139.667C197 140.197 197.211 140.706 197.586 141.081C197.961 141.456 198.47 141.667 199 141.667H212.333C212.864 141.667 213.372 141.456 213.748 141.081C214.123 140.706 214.333 140.197 214.333 139.667V133C214.333 131.72 213.508 131.52 212.552 130.669L207.112 125.835C207.077 125.803 207.049 125.765 207.03 125.722C207.01 125.679 207 125.632 207 125.585V120C207 119.912 207.035 119.827 207.098 119.764C207.16 119.702 207.245 119.667 207.333 119.667H216.667C216.755 119.667 216.84 119.702 216.902 119.764C216.965 119.827 217 119.912 217 120V145.667C217 146.02 217.14 146.359 217.391 146.609C217.641 146.86 217.98 147 218.333 147C218.687 147 219.026 146.86 219.276 146.609C219.526 146.359 219.667 146.02 219.667 145.667V145.133C219.667 145.097 219.681 145.061 219.707 145.035L223.097 141.644C223.144 141.597 223.203 141.565 223.268 141.553C223.333 141.54 223.4 141.546 223.461 141.571C223.522 141.597 223.574 141.64 223.611 141.694C223.647 141.749 223.667 141.814 223.667 141.88V145.667C223.667 146.02 223.807 146.359 224.057 146.609C224.307 146.86 224.646 147 225 147C225.354 147 225.693 146.86 225.943 146.609C226.193 146.359 226.333 146.02 226.333 145.667V119.667C226.333 119.578 226.368 119.493 226.431 119.431C226.493 119.368 226.578 119.333 226.667 119.333H228C228.265 119.333 228.52 119.228 228.707 119.04C228.895 118.853 229 118.599 229 118.333C229 118.068 228.895 117.814 228.707 117.626C228.52 117.439 228.265 117.333 228 117.333ZM210 134.333V138.333C210 138.599 209.895 138.853 209.707 139.04C209.52 139.228 209.265 139.333 209 139.333C208.735 139.333 208.48 139.228 208.293 139.04C208.105 138.853 208 138.599 208 138.333V134.333C208 134.068 208.105 133.814 208.293 133.626C208.48 133.439 208.735 133.333 209 133.333C209.265 133.333 209.52 133.439 209.707 133.626C209.895 133.814 210 134.068 210 134.333ZM203.333 134.333V138.333C203.333 138.599 203.228 138.853 203.04 139.04C202.853 139.228 202.599 139.333 202.333 139.333C202.068 139.333 201.814 139.228 201.626 139.04C201.439 138.853 201.333 138.599 201.333 138.333V134.333C201.333 134.068 201.439 133.814 201.626 133.626C201.814 133.439 202.068 133.333 202.333 133.333C202.599 133.333 202.853 133.439 203.04 133.626C203.228 133.814 203.333 134.068 203.333 134.333ZM203.3 131C203.232 131 203.166 130.979 203.111 130.941C203.055 130.903 203.012 130.848 202.988 130.785C202.964 130.722 202.96 130.653 202.976 130.587C202.992 130.521 203.028 130.462 203.079 130.417L205.445 128.315C205.506 128.26 205.585 128.23 205.667 128.23C205.748 128.23 205.827 128.26 205.888 128.315L208.255 130.417C208.305 130.462 208.341 130.521 208.357 130.587C208.373 130.653 208.369 130.722 208.345 130.785C208.321 130.848 208.278 130.903 208.223 130.941C208.167 130.979 208.101 131 208.033 131H203.3ZM220.233 131.017C220.187 131.063 220.127 131.094 220.063 131.107C219.999 131.119 219.932 131.112 219.872 131.087C219.811 131.062 219.76 131.019 219.723 130.965C219.687 130.911 219.667 130.847 219.667 130.781V125.885C219.667 125.819 219.686 125.755 219.723 125.7C219.759 125.645 219.811 125.602 219.872 125.577C219.933 125.552 220 125.545 220.065 125.558C220.13 125.571 220.189 125.603 220.236 125.649L222.684 128.097C222.746 128.16 222.781 128.245 222.781 128.333C222.781 128.422 222.746 128.506 222.684 128.569L220.233 131.017ZM223.095 130.983C223.141 130.936 223.201 130.904 223.265 130.891C223.33 130.878 223.397 130.885 223.458 130.91C223.519 130.935 223.571 130.978 223.608 131.033C223.645 131.088 223.664 131.153 223.664 131.219V136.115C223.664 136.181 223.645 136.245 223.608 136.3C223.571 136.355 223.519 136.398 223.458 136.423C223.397 136.448 223.33 136.455 223.265 136.442C223.201 136.429 223.141 136.397 223.095 136.351L220.647 133.903C220.585 133.84 220.55 133.755 220.55 133.667C220.55 133.578 220.585 133.494 220.647 133.431L223.095 130.983ZM220.647 123.236C220.585 123.173 220.55 123.088 220.55 123C220.55 122.912 220.585 122.827 220.647 122.764L223.095 120.316C223.141 120.268 223.201 120.236 223.266 120.222C223.331 120.209 223.399 120.215 223.46 120.241C223.522 120.266 223.575 120.309 223.611 120.365C223.648 120.42 223.667 120.485 223.667 120.552V125.448C223.667 125.514 223.647 125.579 223.611 125.634C223.574 125.688 223.522 125.731 223.461 125.757C223.4 125.782 223.333 125.788 223.268 125.775C223.203 125.763 223.144 125.731 223.097 125.684L220.647 123.236ZM220.233 141.684C220.187 141.73 220.127 141.761 220.063 141.773C219.999 141.786 219.932 141.779 219.872 141.754C219.811 141.729 219.76 141.686 219.723 141.632C219.687 141.577 219.667 141.513 219.667 141.448V136.552C219.667 136.486 219.686 136.421 219.723 136.366C219.759 136.312 219.811 136.269 219.872 136.243C219.933 136.218 220 136.212 220.065 136.225C220.13 136.237 220.189 136.269 220.236 136.316L222.684 138.764C222.746 138.827 222.781 138.912 222.781 139C222.781 139.088 222.746 139.173 222.684 139.236L220.233 141.684Z" fill="#FFCF5C"/>
</g>
<g clip-path="url(#clip1)">
<path d="M71 121.667H63C62.7348 121.667 62.4804 121.772 62.2929 121.96C62.1054 122.147 62 122.401 62 122.667C62 122.932 62.1054 123.186 62.2929 123.374C62.4804 123.561 62.7348 123.667 63 123.667H71C71.2652 123.667 71.5196 123.561 71.7071 123.374C71.8946 123.186 72 122.932 72 122.667C72 122.401 71.8946 122.147 71.7071 121.96C71.5196 121.772 71.2652 121.667 71 121.667Z" fill="#FFCF5C"/>
<path d="M72 127.333C72 127.068 71.8946 126.814 71.7071 126.626C71.5195 126.439 71.2652 126.333 71 126.333H60.3333C60.0681 126.333 59.8137 126.439 59.6262 126.626C59.4387 126.814 59.3333 127.068 59.3333 127.333C59.3333 127.599 59.4387 127.853 59.6262 128.04C59.8137 128.228 60.0681 128.333 60.3333 128.333H71C71.2652 128.333 71.5195 128.228 71.7071 128.04C71.8946 127.853 72 127.599 72 127.333Z" fill="#FFCF5C"/>
<path d="M60.3333 131C60.0681 131 59.8137 131.105 59.6262 131.293C59.4387 131.48 59.3333 131.735 59.3333 132C59.3333 132.265 59.4387 132.52 59.6262 132.707C59.8137 132.895 60.0681 133 60.3333 133H67.6666C67.9319 133 68.1862 132.895 68.3738 132.707C68.5613 132.52 68.6666 132.265 68.6666 132C68.6666 131.735 68.5613 131.48 68.3738 131.293C68.1862 131.105 67.9319 131 67.6666 131H60.3333Z" fill="#FFCF5C"/>
<path d="M69.0667 138.54C69.0413 138.479 68.9985 138.427 68.9438 138.39C68.889 138.354 68.8246 138.334 68.7587 138.333H57.3333C57.1565 138.333 56.987 138.263 56.8619 138.138C56.7369 138.013 56.6667 137.843 56.6667 137.667V118.333C56.6667 118.157 56.7369 117.987 56.8619 117.862C56.987 117.737 57.1565 117.667 57.3333 117.667H74.6667C74.8435 117.667 75.013 117.737 75.1381 117.862C75.2631 117.987 75.3333 118.157 75.3333 118.333V131.76C75.3335 131.826 75.3532 131.89 75.3899 131.945C75.4266 132 75.4787 132.042 75.5396 132.067C75.6006 132.093 75.6676 132.099 75.7322 132.086C75.7968 132.073 75.8561 132.041 75.9027 131.995L77.6093 130.288C77.8594 130.038 77.9999 129.699 78 129.345V117.667C78 116.959 77.719 116.281 77.219 115.781C76.7189 115.281 76.0406 115 75.3333 115H56.6667C55.9594 115 55.2811 115.281 54.781 115.781C54.281 116.281 54 116.959 54 117.667V138.333C54 139.041 54.281 139.719 54.781 140.219C55.2811 140.719 55.9594 141 56.6667 141H67.1573C67.2999 141 67.4388 140.954 67.5535 140.87C67.6682 140.785 67.7527 140.666 67.7947 140.529C67.9216 140.115 68.1509 139.74 68.4613 139.437L68.9947 138.904C69.0414 138.857 69.0732 138.798 69.086 138.733C69.0988 138.668 69.0921 138.601 69.0667 138.54Z" fill="#FFCF5C"/>
<path d="M70.0827 141.841C70.0398 141.799 69.9863 141.769 69.9279 141.755C69.8694 141.74 69.8082 141.742 69.7506 141.759C69.693 141.777 69.6412 141.81 69.6006 141.854C69.56 141.898 69.5322 141.953 69.52 142.012L68.6827 146.2C68.6629 146.297 68.6649 146.397 68.6886 146.493C68.7122 146.589 68.757 146.678 68.8195 146.755C68.882 146.832 68.9608 146.893 69.0502 146.936C69.1395 146.978 69.2371 147 69.336 147C69.3808 147 69.4255 146.996 69.4693 146.987L73.66 146.148C73.7191 146.136 73.7738 146.108 73.8184 146.068C73.863 146.027 73.8957 145.975 73.9131 145.917C73.9304 145.86 73.9318 145.798 73.9171 145.74C73.9023 145.681 73.872 145.628 73.8293 145.585L70.0827 141.841Z" fill="#FFCF5C"/>
<path d="M84.9707 130.687C84.3158 130.034 83.4288 129.667 82.504 129.667C81.5792 129.667 80.6922 130.034 80.0373 130.687L71.3707 139.353C71.2457 139.478 71.1755 139.648 71.1755 139.825C71.1755 140.001 71.2457 140.171 71.3707 140.296L75.3707 144.296C75.4957 144.421 75.6652 144.491 75.842 144.491C76.0188 144.491 76.1883 144.421 76.3133 144.296L84.98 135.629C85.304 135.304 85.5607 134.918 85.7356 134.494C85.9104 134.07 86 133.615 85.9991 133.156C85.9983 132.697 85.907 132.243 85.7305 131.819C85.5541 131.395 85.2959 131.011 84.9707 130.687Z" fill="#FFCF5C"/>
</g>
<defs>
<filter id="filter0_d" x="0" y="0" width="141" height="89" filterUnits="userSpaceOnUse" color-interpolation-filters="sRGB">
<feFlood flood-opacity="0" result="BackgroundImageFix"/>
<feColorMatrix in="SourceAlpha" type="matrix" values="0 0 0 0 0 0 0 0 0 0 0 0 0 0 0 0 0 0 127 0"/>
<feOffset dx="2" dy="4"/>
<feGaussianBlur stdDeviation="2"/>
<feColorMatrix type="matrix" values="0 0 0 0 1 0 0 0 0 0.811765 0 0 0 0 0.360784 0 0 0 0.25 0"/>
<feBlend mode="normal" in2="BackgroundImageFix" result="effect1_dropShadow"/>
<feBlend mode="normal" in="SourceGraphic" in2="effect1_dropShadow" result="shape"/>
</filter>
<filter id="filter1_d" x="141" y="89" width="141" height="89" filterUnits="userSpaceOnUse" color-interpolation-filters="sRGB">
<feFlood flood-opacity="0" result="BackgroundImageFix"/>
<feColorMatrix in="SourceAlpha" type="matrix" values="0 0 0 0 0 0 0 0 0 0 0 0 0 0 0 0 0 0 127 0"/>
<feOffset dx="2" dy="4"/>
<feGaussianBlur stdDeviation="2"/>
<feColorMatrix type="matrix" values="0 0 0 0 1 0 0 0 0 0.811765 0 0 0 0 0.360784 0 0 0 0.25 0"/>
<feBlend mode="normal" in2="BackgroundImageFix" result="effect1_dropShadow"/>
<feBlend mode="normal" in="SourceGraphic" in2="effect1_dropShadow" result="shape"/>
</filter>
<clipPath id="clip0">
<rect width="32" height="32" fill="white" transform="translate(197 115)"/>
</clipPath>
<clipPath id="clip1">
<rect width="32" height="32" fill="white" transform="translate(54 115)"/>
</clipPath>
</defs>
</svg>
