<svg width="48" height="48" viewBox="0 0 48 48" fill="none" xmlns="http://www.w3.org/2000/svg">
<rect width="48" height="48" rx="4" fill="#FFE29D"/>
<path d="M22 15.3119H22.75C22.8163 15.3119 22.8799 15.3382 22.9268 15.3851C22.9736 15.432 23 15.4956 23 15.5619V16.5619C23 16.8271 23.1053 17.0815 23.2929 17.269C23.4804 17.4565 23.7348 17.5619 24 17.5619C24.2652 17.5619 24.5196 17.4565 24.7071 17.269C24.8946 17.0815 25 16.8271 25 16.5619V15.5619C25 15.4956 25.0263 15.432 25.0732 15.3851C25.1201 15.3382 25.1837 15.3119 25.25 15.3119H26C26.1549 15.3119 26.306 15.2639 26.4325 15.1745C26.5591 15.0852 26.6549 14.9588 26.7067 14.8129C26.7585 14.6669 26.7639 14.5084 26.722 14.3593C26.6802 14.2101 26.5932 14.0776 26.473 13.9799L24.473 12.3549C24.3391 12.2466 24.1722 12.1875 24 12.1875C23.8278 12.1875 23.6608 12.2466 23.527 12.3549L21.527 13.9799C21.4068 14.0776 21.3198 14.2101 21.2779 14.3593C21.2361 14.5084 21.2414 14.6669 21.2933 14.8129C21.3451 14.9588 21.4409 15.0852 21.5674 15.1745C21.694 15.2639 21.8451 15.3119 22 15.3119Z" fill="#1F1F1F"/>
<path d="M27.586 30.4759C27.395 30.2914 27.2426 30.0707 27.1378 29.8267C27.033 29.5827 26.9778 29.3203 26.9755 29.0547C26.9732 28.7891 27.0238 28.5258 27.1244 28.28C27.2249 28.0342 27.3734 27.8109 27.5612 27.6231C27.749 27.4353 27.9723 27.2868 28.2181 27.1862C28.4639 27.0857 28.7272 27.0351 28.9928 27.0374C29.2584 27.0397 29.5208 27.0949 29.7648 27.1997C30.0088 27.3045 30.2295 27.4569 30.414 27.6479L31.073 28.3069C31.1079 28.3419 31.1524 28.3657 31.2009 28.3755C31.2493 28.3852 31.2996 28.3803 31.3453 28.3615C31.391 28.3426 31.4301 28.3107 31.4576 28.2696C31.4851 28.2286 31.4999 28.1803 31.5 28.1309V22.1559C31.4999 22.0102 31.4574 21.8676 31.3776 21.7456C31.2979 21.6236 31.1844 21.5275 31.051 21.4689L24.3 18.5159C24.2054 18.4747 24.1032 18.4534 24 18.4534C23.8968 18.4534 23.7946 18.4747 23.7 18.5159L16.949 21.4689C16.8156 21.5275 16.7021 21.6236 16.6224 21.7456C16.5426 21.8676 16.5001 22.0102 16.5 22.1559V28.1309C16.5001 28.1803 16.5149 28.2286 16.5424 28.2696C16.5699 28.3107 16.609 28.3426 16.6547 28.3615C16.7004 28.3803 16.7507 28.3852 16.7991 28.3755C16.8476 28.3657 16.8921 28.3419 16.927 28.3069L17.586 27.6479C17.7705 27.4569 17.9912 27.3045 18.2352 27.1997C18.4792 27.0949 18.7416 27.0397 19.0072 27.0374C19.2728 27.0351 19.5361 27.0857 19.7819 27.1862C20.0277 27.2868 20.251 27.4353 20.4388 27.6231C20.6266 27.8109 20.7751 28.0342 20.8756 28.28C20.9762 28.5258 21.0268 28.7891 21.0245 29.0547C21.0222 29.3203 20.967 29.5827 20.8622 29.8267C20.7574 30.0707 20.605 30.2914 20.414 30.4759L19.253 31.6369C19.2244 31.6659 19.2031 31.7015 19.1911 31.7405C19.1791 31.7794 19.1767 31.8208 19.184 31.8609C19.1918 31.9008 19.2091 31.9382 19.2346 31.9699C19.26 32.0016 19.2927 32.0266 19.33 32.0429L23.8 33.9899C23.8631 34.0174 23.9312 34.0316 24 34.0316C24.0688 34.0316 24.1369 34.0174 24.2 33.9899V33.9899L28.664 32.0369C28.7013 32.0205 28.734 31.9953 28.7593 31.9634C28.7846 31.9316 28.8018 31.894 28.8093 31.854C28.8167 31.814 28.8144 31.7727 28.8023 31.7338C28.7902 31.695 28.7688 31.6596 28.74 31.6309L27.586 30.4759ZM28.355 21.9269C28.3995 21.9464 28.4374 21.9784 28.464 22.0191C28.4905 22.0598 28.5047 22.1073 28.5047 22.1559C28.5047 22.2045 28.4905 22.252 28.464 22.2927C28.4374 22.3334 28.3995 22.3654 28.355 22.3849L24.1 24.2469C24.0684 24.2603 24.0344 24.2671 24 24.2671C23.9656 24.2671 23.9316 24.2603 23.9 24.2469L19.645 22.3849C19.6005 22.3654 19.5626 22.3334 19.536 22.2927C19.5095 22.252 19.4953 22.2045 19.4953 22.1559C19.4953 22.1073 19.5095 22.0598 19.536 22.0191C19.5626 21.9784 19.6005 21.9464 19.645 21.9269L23.9 20.0659C23.9315 20.0521 23.9656 20.0449 24 20.0449C24.0344 20.0449 24.0685 20.0521 24.1 20.0659L28.355 21.9269Z" fill="#1F1F1F"/>
<path d="M19.707 29.7691C19.8025 29.6768 19.8787 29.5665 19.9311 29.4445C19.9835 29.3225 20.0111 29.1913 20.0123 29.0585C20.0134 28.9257 19.9881 28.794 19.9379 28.6711C19.8876 28.5482 19.8133 28.4366 19.7194 28.3427C19.6255 28.2488 19.5139 28.1746 19.391 28.1243C19.2681 28.074 19.1364 28.0487 19.0036 28.0498C18.8709 28.051 18.7396 28.0786 18.6176 28.131C18.4956 28.1834 18.3853 28.2596 18.293 28.3551L14.5 32.1481C14.4768 32.1714 14.4492 32.1898 14.4188 32.2024C14.3885 32.2151 14.3559 32.2215 14.323 32.2215C14.2901 32.2215 14.2576 32.2151 14.2272 32.2024C14.1968 32.1898 14.1693 32.1714 14.146 32.1481L13.53 31.5321C13.4251 31.4273 13.2916 31.356 13.1462 31.3271C13.0008 31.2982 12.8501 31.3131 12.7131 31.3698C12.5761 31.4265 12.4591 31.5225 12.3766 31.6458C12.2942 31.769 12.2502 31.9139 12.25 32.0621V35.0621C12.25 35.261 12.329 35.4518 12.4697 35.5924C12.6104 35.7331 12.8011 35.8121 13 35.8121H16C16.1483 35.812 16.2931 35.7679 16.4164 35.6855C16.5396 35.6031 16.6356 35.486 16.6923 35.349C16.749 35.2121 16.7639 35.0614 16.735 34.916C16.7061 34.7706 16.6348 34.637 16.53 34.5321L15.914 33.9161C15.8907 33.8929 15.8723 33.8653 15.8597 33.8349C15.8471 33.8045 15.8406 33.772 15.8406 33.7391C15.8406 33.7062 15.8471 33.6736 15.8597 33.6433C15.8723 33.6129 15.8907 33.5853 15.914 33.5621L19.707 29.7691Z" fill="#1F1F1F"/>
<path d="M35.7501 35.0621V32.0621C35.7499 31.9139 35.7059 31.769 35.6234 31.6458C35.541 31.5225 35.4239 31.4265 35.287 31.3698C35.15 31.3131 34.9993 31.2982 34.8539 31.3271C34.7085 31.356 34.5749 31.4273 34.4701 31.5321L33.8541 32.1481C33.8308 32.1714 33.8032 32.1898 33.7729 32.2024C33.7425 32.2151 33.7099 32.2215 33.6771 32.2215C33.6442 32.2215 33.6116 32.2151 33.5812 32.2024C33.5509 32.1898 33.5233 32.1714 33.5001 32.1481L29.7071 28.3551C29.6148 28.2596 29.5045 28.1834 29.3825 28.131C29.2605 28.0786 29.1292 28.051 28.9965 28.0498C28.8637 28.0487 28.732 28.074 28.6091 28.1243C28.4862 28.1746 28.3745 28.2488 28.2807 28.3427C28.1868 28.4366 28.1125 28.5482 28.0622 28.6711C28.0119 28.794 27.9866 28.9257 27.9878 29.0585C27.989 29.1913 28.0165 29.3225 28.069 29.4445C28.1214 29.5665 28.1975 29.6768 28.2931 29.7691L32.0861 33.5621C32.1093 33.5853 32.1278 33.6129 32.1404 33.6433C32.153 33.6736 32.1595 33.7062 32.1595 33.7391C32.1595 33.772 32.153 33.8045 32.1404 33.8349C32.1278 33.8653 32.1093 33.8929 32.0861 33.9161L31.4701 34.5321C31.3653 34.637 31.294 34.7706 31.2651 34.916C31.2362 35.0614 31.2511 35.2121 31.3078 35.349C31.3645 35.486 31.4605 35.6031 31.5837 35.6855C31.7069 35.7679 31.8518 35.812 32.0001 35.8121H35.0001C35.199 35.8121 35.3897 35.7331 35.5304 35.5924C35.671 35.4518 35.7501 35.261 35.7501 35.0621V35.0621Z" fill="#1F1F1F"/>
</svg>
