<svg width="16" height="16" fill="none" xmlns="http://www.w3.org/2000/svg"><path d="M.195 8.49l3.186 3.307a.644.644 0 00.726.15.673.673 0 00.3-.255.711.711 0 00.112-.384V9.212c0-.046.017-.09.048-.123a.164.164 0 01.118-.05H15c.265 0 .52-.11.707-.305A1.06 1.06 0 0016 8c0-.275-.105-.54-.293-.734A.982.982 0 0015 6.962H4.685a.164.164 0 01-.118-.051.177.177 0 01-.048-.123V4.692c0-.137-.04-.27-.113-.384a.673.673 0 00-.299-.255.644.644 0 00-.726.15L.195 7.51A.706.706 0 000 8c0 .184.07.36.195.49z" fill="#1F1F1F"/></svg>