<svg width="48" height="48" viewBox="0 0 48 48" fill="none" xmlns="http://www.w3.org/2000/svg">
<rect width="48" height="48" rx="4" fill="#FFE29D"/>
<path d="M14.25 29C14.1174 29 13.9902 29.0527 13.8964 29.1464C13.8027 29.2402 13.75 29.3674 13.75 29.5V32C13.75 32.5304 13.9607 33.0391 14.3358 33.4142C14.7108 33.7893 15.2196 34 15.75 34C16.2804 34 16.7891 33.7893 17.1642 33.4142C17.5393 33.0391 17.75 32.5304 17.75 32C17.75 31.7348 17.8553 31.4804 18.0429 31.2929C18.2304 31.1054 18.4848 31 18.75 31H29.25C29.6885 30.9996 30.1192 30.884 30.4988 30.6645C30.8785 30.4451 31.1937 30.1297 31.413 29.75C31.4569 29.674 31.48 29.5878 31.48 29.5C31.48 29.4122 31.4569 29.326 31.413 29.25C31.3691 29.174 31.306 29.1109 31.23 29.067C31.154 29.0231 31.0678 29 30.98 29H14.25Z" fill="#1F1F1F"/>
<path d="M34.75 25.5001H32.75V24.4851C32.7285 21.9075 31.7709 19.4256 30.0556 17.5015C28.3403 15.5774 25.9842 14.3423 23.426 14.0261C23.0051 13.9711 22.5774 14.0025 22.169 14.1184C21.7607 14.2342 21.3802 14.4322 21.051 14.7001L18.851 16.5241C17.2233 17.1277 15.818 18.2129 14.8224 19.6351C13.8268 21.0573 13.2881 22.7491 13.278 24.4851C13.1445 24.4835 13.012 24.5082 12.888 24.5579C12.7641 24.6076 12.6512 24.6812 12.5557 24.7745C12.4602 24.8679 12.3841 24.9791 12.3316 25.1019C12.2792 25.2247 12.2514 25.3566 12.25 25.4901V26.4901C12.2509 26.6239 12.2782 26.7562 12.3304 26.8794C12.3825 27.0027 12.4585 27.1144 12.5539 27.2082C12.6493 27.3021 12.7623 27.3761 12.8863 27.4262C13.0104 27.4763 13.1432 27.5014 13.277 27.5001H34.75C35.0152 27.5001 35.2696 27.3947 35.4571 27.2072C35.6446 27.0197 35.75 26.7653 35.75 26.5001C35.75 26.2349 35.6446 25.9805 35.4571 25.793C35.2696 25.6054 35.0152 25.5001 34.75 25.5001Z" fill="#1F1F1F"/>
</svg>
