<svg width="48" height="48" viewBox="0 0 48 48" fill="none" xmlns="http://www.w3.org/2000/svg">
<rect width="48" height="48" rx="4" fill="#FFE29D"/>
<g clip-path="url(#clip0)">
<path d="M16 28C15.2089 28 14.4355 28.2346 13.7777 28.6741C13.1199 29.1136 12.6072 29.7384 12.3045 30.4693C12.0017 31.2002 11.9225 32.0044 12.0769 32.7804C12.2312 33.5563 12.6122 34.269 13.1716 34.8284C13.731 35.3878 14.4437 35.7688 15.2196 35.9231C15.9956 36.0775 16.7998 35.9983 17.5307 35.6955C18.2616 35.3928 18.8864 34.8801 19.3259 34.2223C19.7654 33.5645 20 32.7911 20 32C20 30.9391 19.5786 29.9217 18.8284 29.1716C18.0783 28.4214 17.0609 28 16 28V28ZM16 34.5C15.5055 34.5 15.0222 34.3534 14.6111 34.0787C14.2 33.804 13.8795 33.4135 13.6903 32.9567C13.5011 32.4999 13.4516 31.9972 13.548 31.5123C13.6445 31.0273 13.8826 30.5819 14.2322 30.2322C14.5819 29.8826 15.0273 29.6445 15.5123 29.548C15.9972 29.4516 16.4999 29.5011 16.9567 29.6903C17.4135 29.8795 17.804 30.2 18.0787 30.6111C18.3534 31.0222 18.5 31.5055 18.5 32C18.5 32.663 18.2366 33.2989 17.7678 33.7678C17.2989 34.2366 16.663 34.5 16 34.5Z" fill="#1F1F1F"/>
<path d="M16 33.5C16.8285 33.5 17.5 32.8284 17.5 32C17.5 31.1716 16.8285 30.5 16 30.5C15.1716 30.5 14.5 31.1716 14.5 32C14.5 32.8284 15.1716 33.5 16 33.5Z" fill="#1F1F1F"/>
<path d="M21.25 25.7499H22.25C22.3826 25.7499 22.5098 25.8026 22.6036 25.8964C22.6974 25.9902 22.75 26.1173 22.75 26.2499V28.7499C22.75 29.0152 22.8554 29.2695 23.0429 29.457C23.2305 29.6446 23.4848 29.7499 23.75 29.7499H24.75C25.0152 29.7499 25.2696 29.6446 25.4571 29.457C25.6447 29.2695 25.75 29.0152 25.75 28.7499V26.7499C25.75 26.4847 25.8554 26.2304 26.0429 26.0428C26.2305 25.8553 26.4848 25.7499 26.75 25.7499C27.0152 25.7499 27.2696 25.8553 27.4571 26.0428C27.6447 26.2304 27.75 26.4847 27.75 26.7499V28.7499C27.75 29.0152 27.8554 29.2695 28.0429 29.457C28.2305 29.6446 28.4848 29.7499 28.75 29.7499H29.75C30.0152 29.7499 30.2696 29.6446 30.4571 29.457C30.6447 29.2695 30.75 29.0152 30.75 28.7499V26.2499C30.75 26.1173 30.8027 25.9902 30.8965 25.8964C30.9902 25.8026 31.1174 25.7499 31.25 25.7499H32.25C32.3509 25.7499 32.4494 25.7193 32.5326 25.6622C32.6158 25.6051 32.6798 25.5242 32.7162 25.4301C32.7525 25.336 32.7595 25.233 32.7363 25.1349C32.7131 25.0367 32.6607 24.9478 32.586 24.8799L27.423 20.1869C27.2399 20.0178 26.9998 19.9238 26.7505 19.9238C26.5013 19.9238 26.2611 20.0178 26.078 20.1869L20.914 24.8799C20.8394 24.9478 20.787 25.0367 20.7638 25.1349C20.7405 25.233 20.7476 25.336 20.7839 25.4301C20.8203 25.5242 20.8842 25.6051 20.9674 25.6622C21.0506 25.7193 21.1491 25.7499 21.25 25.7499V25.7499Z" fill="#1F1F1F"/>
<path d="M34 14.5H22.5C22.2348 14.5 21.9805 14.6054 21.7929 14.7929C21.6054 14.9804 21.5 15.2348 21.5 15.5C21.5 15.7652 21.6054 16.0196 21.7929 16.2071C21.9805 16.3946 22.2348 16.5 22.5 16.5H33.5C33.6326 16.5 33.7598 16.5527 33.8536 16.6464C33.9474 16.7402 34 16.8674 34 17V33.5C34 33.6326 33.9474 33.7598 33.8536 33.8536C33.7598 33.9473 33.6326 34 33.5 34H21.5C21.2348 34 20.9805 34.1054 20.7929 34.2929C20.6054 34.4804 20.5 34.7348 20.5 35C20.5 35.2652 20.6054 35.5196 20.7929 35.7071C20.9805 35.8946 21.2348 36 21.5 36H34C34.5305 36 35.0392 35.7893 35.4142 35.4142C35.7893 35.0391 36 34.5304 36 34V16.5C36 15.9696 35.7893 15.4609 35.4142 15.0858C35.0392 14.7107 34.5305 14.5 34 14.5Z" fill="#1F1F1F"/>
<path d="M16 12C14.9391 12 13.9217 12.4214 13.1716 13.1716C12.4214 13.9217 12 14.9391 12 16V27.778C12.0001 27.8731 12.0273 27.9662 12.0784 28.0464C12.1295 28.1266 12.2024 28.1906 12.2886 28.2308C12.3748 28.271 12.4707 28.2858 12.565 28.2734C12.6593 28.2611 12.7481 28.2221 12.821 28.161C13.7106 27.4113 14.8366 27.0001 16 27.0001C17.1634 27.0001 18.2894 27.4113 19.179 28.161C19.2519 28.2221 19.3407 28.2611 19.435 28.2734C19.5293 28.2858 19.6252 28.271 19.7114 28.2308C19.7976 28.1906 19.8705 28.1266 19.9216 28.0464C19.9727 27.9662 19.9999 27.8731 20 27.778V16C20 14.9391 19.5786 13.9217 18.8284 13.1716C18.0783 12.4214 17.0609 12 16 12V12Z" fill="#1F1F1F"/>
</g>
<defs>
<clipPath id="clip0">
<rect width="24" height="24" fill="white" transform="translate(12 12)"/>
</clipPath>
</defs>
</svg>
