<svg width="32" height="32" viewBox="0 0 32 32" fill="none" xmlns="http://www.w3.org/2000/svg">
<path d="M27 6C27 5.73478 26.8946 5.48043 26.7071 5.29289C26.5196 5.10536 26.2652 5 26 5H12C11.7348 5.00006 11.4805 5.10545 11.293 5.293L5.293 11.293C5.10545 11.4805 5.00006 11.7348 5 12V26C5 26.2652 5.10536 26.5196 5.29289 26.7071C5.48043 26.8946 5.73478 27 6 27H20C20.2652 26.9999 20.5195 26.8946 20.707 26.707L26.707 20.707C26.8946 20.5195 26.9999 20.2652 27 20V6ZM10.823 8.591C10.858 8.55595 10.9026 8.53206 10.9511 8.52238C10.9997 8.5127 11.05 8.51765 11.0957 8.53661C11.1415 8.55557 11.1805 8.58768 11.208 8.62887C11.2355 8.67007 11.2501 8.71849 11.25 8.768V9.25C11.2499 9.28287 11.2562 9.31544 11.2688 9.34583C11.2813 9.37622 11.2997 9.40383 11.3229 9.42707C11.3462 9.45031 11.3738 9.46872 11.4042 9.48124C11.4346 9.49376 11.4671 9.50013 11.5 9.5H12.5C12.5329 9.50013 12.5654 9.49376 12.5958 9.48124C12.6262 9.46872 12.6538 9.45031 12.6771 9.42707C12.7003 9.40383 12.7187 9.37622 12.7312 9.34583C12.7438 9.31544 12.7501 9.28287 12.75 9.25V7.25C12.75 7.1837 12.7763 7.12011 12.8232 7.07322C12.8701 7.02634 12.9337 7 13 7H22.983C23.0325 6.99991 23.0809 7.01453 23.1221 7.04199C23.1633 7.06945 23.1954 7.10853 23.2144 7.15427C23.2334 7.20001 23.2383 7.25034 23.2286 7.2989C23.2189 7.34745 23.1951 7.39204 23.16 7.427L19.66 10.927C19.6367 10.9504 19.6089 10.9689 19.5783 10.9814C19.5478 10.9939 19.515 11.0002 19.482 11H9.018C8.96849 11.0001 8.92007 10.9855 8.87887 10.958C8.83768 10.9305 8.80557 10.8915 8.78661 10.8457C8.76765 10.8 8.7627 10.7497 8.77238 10.7011C8.78206 10.6526 8.80595 10.608 8.841 10.573L10.823 8.591ZM19 24.75C19 24.8163 18.9737 24.8799 18.9268 24.9268C18.8799 24.9737 18.8163 25 18.75 25H8.664C8.61449 25.0001 8.56607 24.9855 8.52487 24.958C8.48368 24.9305 8.45157 24.8915 8.43261 24.8457C8.41365 24.8 8.4087 24.7497 8.41838 24.7011C8.42806 24.6526 8.45195 24.608 8.487 24.573L12.237 20.823C12.284 20.7762 12.3477 20.75 12.414 20.75H17.25C17.3163 20.75 17.3799 20.7237 17.4268 20.6768C17.4737 20.6299 17.5 20.5663 17.5 20.5V19.5C17.5 19.4337 17.4737 19.3701 17.4268 19.3232C17.3799 19.2763 17.3163 19.25 17.25 19.25H13C12.9337 19.25 12.8701 19.2237 12.8232 19.1768C12.7763 19.1299 12.75 19.0663 12.75 19V14.75C12.75 14.6837 12.7237 14.6201 12.6768 14.5732C12.6299 14.5263 12.5663 14.5 12.5 14.5H11.5C11.4337 14.5 11.3701 14.5263 11.3232 14.5732C11.2763 14.6201 11.25 14.6837 11.25 14.75V19.586C11.25 19.6523 11.2238 19.716 11.177 19.763L7.427 23.513C7.39204 23.5481 7.34745 23.5719 7.2989 23.5816C7.25034 23.5913 7.20001 23.5864 7.15427 23.5674C7.10853 23.5484 7.06945 23.5163 7.04199 23.4751C7.01453 23.4339 6.99991 23.3855 7 23.336V13.25C7 13.1837 7.02634 13.1201 7.07322 13.0732C7.12011 13.0263 7.1837 13 7.25 13H18.75C18.8163 13 18.8799 13.0263 18.9268 13.0732C18.9737 13.1201 19 13.1837 19 13.25V24.75ZM21.427 23.159C21.392 23.1941 21.3474 23.2179 21.2989 23.2276C21.2503 23.2373 21.2 23.2324 21.1543 23.2134C21.1085 23.1944 21.0695 23.1623 21.042 23.1211C21.0145 23.0799 20.9999 23.0315 21 22.982V12.518C20.9999 12.4851 21.0063 12.4526 21.0188 12.4222C21.0313 12.3918 21.0498 12.3642 21.073 12.341L24.573 8.841C24.608 8.80595 24.6526 8.78206 24.7011 8.77238C24.7497 8.7627 24.8 8.76765 24.8457 8.78661C24.8915 8.80557 24.9305 8.83768 24.958 8.87887C24.9855 8.92007 25.0001 8.96849 25 9.018V19C25 19.0663 24.9737 19.1299 24.9268 19.1768C24.8799 19.2237 24.8163 19.25 24.75 19.25H22.75C22.6837 19.25 22.6201 19.2763 22.5732 19.3232C22.5263 19.3701 22.5 19.4337 22.5 19.5V20.5C22.5 20.5663 22.5263 20.6299 22.5732 20.6768C22.6201 20.7237 22.6837 20.75 22.75 20.75H23.232C23.2815 20.7499 23.3299 20.7645 23.3711 20.792C23.4123 20.8195 23.4444 20.8585 23.4634 20.9043C23.4824 20.95 23.4873 21.0003 23.4776 21.0489C23.4679 21.0974 23.4441 21.142 23.409 21.177L21.427 23.159Z" fill="#FFCF5C"/>
</svg>
