<svg width="49" height="48" viewBox="0 0 49 48" fill="none" xmlns="http://www.w3.org/2000/svg">
<rect x="0.520935" width="48" height="48" rx="4" fill="#FFE29D"/>
<path d="M33.9799 28.5C33.9799 27.4391 33.5585 26.4217 32.8084 25.6716C32.0582 24.9214 31.0408 24.5 29.9799 24.5H29.4799V24C29.4799 23.7348 29.3746 23.4804 29.1871 23.2929C28.9995 23.1054 28.7452 23 28.4799 23H16.4799C16.2147 23 15.9604 23.1054 15.7728 23.2929C15.5853 23.4804 15.4799 23.7348 15.4799 24V33.5C15.4799 33.8283 15.5446 34.1534 15.6703 34.4567C15.7959 34.76 15.98 35.0356 16.2122 35.2678C16.4443 35.4999 16.7199 35.6841 17.0232 35.8097C17.3266 35.9353 17.6516 36 17.9799 36H26.9799C27.3083 36 27.6333 35.9353 27.9367 35.8097C28.24 35.6841 28.5156 35.4999 28.7477 35.2678C28.9799 35.0356 29.164 34.76 29.2896 34.4567C29.4153 34.1534 29.4799 33.8283 29.4799 33.5V32.5H29.9799C31.0408 32.5 32.0582 32.0786 32.8084 31.3284C33.5585 30.5783 33.9799 29.5609 33.9799 28.5ZM29.9799 30.5H29.7299C29.6971 30.5001 29.6645 30.4938 29.6341 30.4812C29.6037 30.4687 29.5761 30.4503 29.5529 30.4271C29.5296 30.4038 29.5112 30.3762 29.4987 30.3458C29.4862 30.3154 29.4798 30.2829 29.4799 30.25V26.75C29.4798 26.7171 29.4862 26.6846 29.4987 26.6542C29.5112 26.6238 29.5296 26.5962 29.5529 26.5729C29.5761 26.5497 29.6037 26.5313 29.6341 26.5188C29.6645 26.5062 29.6971 26.4999 29.7299 26.5H29.9799C30.5104 26.5 31.0191 26.7107 31.3942 27.0858C31.7692 27.4609 31.9799 27.9696 31.9799 28.5C31.9799 29.0304 31.7692 29.5391 31.3942 29.9142C31.0191 30.2893 30.5104 30.5 29.9799 30.5Z" fill="#1F1F1F"/>
<path d="M18.1699 14.8639C18.2082 14.8435 18.2404 14.8133 18.2634 14.7766C18.2864 14.7398 18.2995 14.6977 18.3012 14.6543C18.3029 14.611 18.2933 14.5679 18.2732 14.5294C18.2532 14.491 18.2234 14.4584 18.1869 14.4349L15.8209 12.9049C15.7391 12.8559 15.6449 12.8314 15.5495 12.8342C15.4541 12.837 15.3615 12.867 15.2826 12.9208C15.2038 12.9745 15.1419 13.0497 15.1044 13.1374C15.0669 13.2252 15.0553 13.3218 15.0709 13.4159L15.4929 15.9459C15.4996 15.9852 15.5155 16.0223 15.5393 16.0542C15.5632 16.0861 15.5943 16.1118 15.6301 16.1292C15.6659 16.1466 15.7054 16.1552 15.7452 16.1543C15.785 16.1534 15.824 16.143 15.8589 16.1239L18.1699 14.8639Z" fill="#1F1F1F"/>
<path d="M16.1669 17.0941C16.1101 17.1258 16.0678 17.1784 16.0491 17.2408C16.0304 17.3032 16.0368 17.3704 16.0669 17.4281L18.2869 21.7281C18.3292 21.8097 18.393 21.878 18.4715 21.9256C18.55 21.9732 18.6401 21.9983 18.7319 21.9981H21.7319C21.8188 21.9981 21.9042 21.9755 21.9797 21.9324C22.0551 21.8893 22.1181 21.8274 22.1623 21.7526C22.2065 21.6778 22.2305 21.5927 22.2318 21.5059C22.2331 21.419 22.2118 21.3333 22.1699 21.2571L19.1439 15.7571C19.1118 15.6993 19.0583 15.6564 18.9949 15.6377C18.9315 15.619 18.8633 15.626 18.8049 15.6571L16.1669 17.0941Z" fill="#1F1F1F"/>
<path d="M26.0599 19.293H26.0529C25.8295 19.1992 25.6164 19.0826 25.4169 18.945C25.3881 18.9255 25.3556 18.912 25.3214 18.9056C25.2871 18.8993 25.2519 18.9 25.218 18.9079C25.1841 18.9158 25.1522 18.9307 25.1243 18.9515C25.0964 18.9724 25.0731 18.9988 25.0559 19.029L23.8139 21.257C23.7716 21.3332 23.7499 21.419 23.751 21.5061C23.752 21.5932 23.7758 21.6785 23.8199 21.7535C23.8641 21.8286 23.9271 21.8908 24.0027 21.9341C24.0783 21.9773 24.1638 22.0001 24.2509 22H26.0829C26.1845 22.0001 26.2837 21.9693 26.3673 21.9116C26.4509 21.8539 26.515 21.7721 26.5509 21.677L27.2209 19.893C27.2342 19.8578 27.2394 19.8201 27.2361 19.7826C27.2328 19.7451 27.2211 19.7089 27.2019 19.6765C27.1827 19.6442 27.1564 19.6165 27.1251 19.5957C27.0938 19.5748 27.0582 19.5613 27.0209 19.556C26.7897 19.5267 26.5619 19.4744 26.3409 19.4C26.2479 19.368 26.1539 19.333 26.0599 19.293Z" fill="#1F1F1F"/>
<path d="M29.5379 14.815C29.386 14.1286 29.0406 13.5001 28.5426 13.0038C28.0446 12.5076 27.4149 12.1645 26.7279 12.015C26.6303 11.9912 26.5278 11.9973 26.4337 12.0326C26.3397 12.0679 26.2584 12.1307 26.2006 12.2128C26.1427 12.295 26.1109 12.3926 26.1094 12.4931C26.1079 12.5935 26.1366 12.6921 26.1919 12.776C26.7209 13.581 26.4019 14.058 25.8389 14.77C25.6219 15.0171 25.4396 15.2927 25.2969 15.589C25.1763 15.8455 25.1104 16.1243 25.1037 16.4077C25.0969 16.6911 25.1494 16.9728 25.2578 17.2347C25.3661 17.4967 25.5279 17.7331 25.7328 17.9289C25.9378 18.1248 26.1813 18.2757 26.4479 18.372C26.806 18.5546 27.2099 18.6276 27.6092 18.5819C28.0085 18.5362 28.3855 18.3738 28.6929 18.115C29.1149 17.69 29.4156 17.16 29.5642 16.5799C29.7127 15.9998 29.7037 15.3905 29.5379 14.815V14.815Z" fill="#1F1F1F"/>
</svg>
