<svg width="48" height="48" viewBox="0 0 48 48" fill="none" xmlns="http://www.w3.org/2000/svg">
<rect width="48" height="48" rx="4" fill="#FFE29D"/>
<path d="M21 20H27C27.2652 20 27.5195 19.8946 27.7071 19.7071C27.8946 19.5196 28 19.2652 28 19C28 18.7348 27.8946 18.4804 27.7071 18.2929C27.5195 18.1054 27.2652 18 27 18H21C20.7348 18 20.4804 18.1054 20.2929 18.2929C20.1053 18.4804 20 18.7348 20 19C20 19.2652 20.1053 19.5196 20.2929 19.7071C20.4804 19.8946 20.7348 20 21 20V20Z" fill="#1A202C"/>
<path d="M21.471 16.5C21.4862 16.6215 21.5455 16.7333 21.6377 16.8141C21.7298 16.8948 21.8484 16.9389 21.971 16.938H26.035C26.1575 16.9389 26.2761 16.8948 26.3683 16.8141C26.4605 16.7333 26.5198 16.6215 26.535 16.5C26.7504 15.4194 27.159 14.3865 27.741 13.451C27.7916 13.3595 27.8122 13.2545 27.8 13.1506C27.7878 13.0468 27.7434 12.9495 27.6729 12.8722C27.6025 12.795 27.5097 12.7417 27.4075 12.72C27.3052 12.6982 27.1987 12.7091 27.103 12.751L25.241 13.551C25.2104 13.564 25.1774 13.5708 25.1442 13.5709C25.1109 13.5711 25.0779 13.5646 25.0472 13.5518C25.0164 13.5391 24.9886 13.5203 24.9652 13.4966C24.9418 13.473 24.9234 13.4448 24.911 13.414L24.47 12.314C24.4328 12.2213 24.3687 12.1419 24.286 12.086C24.2033 12.0301 24.1058 12.0002 24.006 12.0002C23.9062 12.0002 23.8086 12.0301 23.7259 12.086C23.6432 12.1419 23.5792 12.2213 23.542 12.314L23.101 13.414C23.0886 13.4448 23.0702 13.473 23.0468 13.4966C23.0234 13.5203 22.9955 13.5391 22.9648 13.5518C22.934 13.5646 22.9011 13.5711 22.8678 13.5709C22.8345 13.5708 22.8016 13.564 22.771 13.551L20.9 12.755C20.8042 12.7131 20.6977 12.7022 20.5955 12.724C20.4933 12.7457 20.4004 12.799 20.33 12.8762C20.2596 12.9535 20.2152 13.0508 20.203 13.1546C20.1908 13.2585 20.2114 13.3635 20.262 13.455C20.8446 14.3891 21.2541 15.4206 21.471 16.5V16.5Z" fill="#1A202C"/>
<path d="M27.438 21.121C27.3354 21.0428 27.21 21.0003 27.081 21H20.919C20.7899 20.9998 20.6643 21.0424 20.562 21.121C18.011 23.071 15.162 26.521 15.162 29.521C15.16 33.75 17.518 36 24 36C30.482 36 32.84 33.75 32.84 29.518C32.84 26.523 29.99 23.071 27.438 21.121ZM24.964 27.75C25.1629 27.75 25.3536 27.829 25.4943 27.9697C25.6349 28.1103 25.714 28.3011 25.714 28.5C25.714 28.6989 25.6349 28.8897 25.4943 29.0303C25.3536 29.171 25.1629 29.25 24.964 29.25H23.207C23.1699 29.25 23.1333 29.2582 23.0998 29.2741C23.0664 29.29 23.0369 29.3131 23.0135 29.3419C22.9901 29.3706 22.9735 29.4042 22.9647 29.4402C22.956 29.4762 22.9554 29.5137 22.963 29.55C23.283 31.008 24.337 31.75 26.107 31.75C26.3059 31.75 26.4966 31.829 26.6373 31.9697C26.7779 32.1103 26.857 32.3011 26.857 32.5C26.857 32.6989 26.7779 32.8897 26.6373 33.0303C26.4966 33.171 26.3059 33.25 26.107 33.25C23.474 33.25 21.796 31.85 21.443 29.463C21.4344 29.4044 21.4052 29.3508 21.3607 29.3117C21.3162 29.2727 21.2592 29.2508 21.2 29.25H20.4C20.201 29.25 20.0103 29.171 19.8696 29.0303C19.729 28.8897 19.65 28.6989 19.65 28.5C19.65 28.3011 19.729 28.1103 19.8696 27.9697C20.0103 27.829 20.201 27.75 20.4 27.75H21.2C21.2598 27.7499 21.3177 27.7284 21.363 27.6893C21.4083 27.6502 21.4381 27.5962 21.447 27.537C21.8 25.153 23.478 23.75 26.111 23.75C26.3099 23.75 26.5006 23.829 26.6413 23.9697C26.7819 24.1103 26.861 24.3011 26.861 24.5C26.861 24.6989 26.7819 24.8897 26.6413 25.0303C26.5006 25.171 26.3099 25.25 26.111 25.25C24.341 25.25 23.287 25.988 22.967 27.45C22.9596 27.4862 22.9603 27.5237 22.9691 27.5596C22.9779 27.5955 22.9946 27.629 23.018 27.6577C23.0413 27.6864 23.0707 27.7096 23.1041 27.7256C23.1375 27.7415 23.174 27.7499 23.211 27.75H24.964Z" fill="#1A202C"/>
</svg>
