<svg width="48" height="48" viewBox="0 0 48 48" fill="none" xmlns="http://www.w3.org/2000/svg">
<g clip-path="url(#clip0)">
<path d="M26.2999 24.1798C26.2766 24.1566 26.2582 24.129 26.2456 24.0986C26.233 24.0682 26.2265 24.0357 26.2265 24.0028C26.2265 23.9699 26.233 23.9373 26.2456 23.907C26.2582 23.8766 26.2766 23.849 26.2999 23.8258L35.5629 14.5638C35.8442 14.2821 36.002 13.9003 36.0018 13.5022C36.0015 13.1042 35.8431 12.7225 35.5614 12.4413C35.2798 12.16 34.8979 12.0022 34.4999 12.0024C34.1018 12.0027 33.7202 12.1611 33.4389 12.4428L24.1769 21.7008C24.1537 21.7241 24.1261 21.7425 24.0957 21.7551C24.0654 21.7677 24.0328 21.7742 23.9999 21.7742C23.967 21.7742 23.9345 21.7677 23.9041 21.7551C23.8737 21.7425 23.8462 21.7241 23.8229 21.7008L14.5609 12.4428C14.4217 12.3034 14.2563 12.1929 14.0743 12.1175C13.8923 12.042 13.6973 12.0032 13.5003 12.0031C13.1024 12.0031 12.7208 12.161 12.4394 12.4423C12.158 12.7235 11.9999 13.1051 11.9998 13.5029C11.9997 13.9008 12.1577 14.2824 12.4389 14.5638L21.6999 23.8258C21.7232 23.849 21.7417 23.8766 21.7543 23.907C21.7669 23.9373 21.7734 23.9699 21.7734 24.0028C21.7734 24.0357 21.7669 24.0682 21.7543 24.0986C21.7417 24.129 21.7232 24.1566 21.6999 24.1798L12.4389 33.4428C12.2997 33.5821 12.1892 33.7475 12.1139 33.9295C12.0385 34.1116 11.9998 34.3066 11.9998 34.5036C11.9999 34.9015 12.158 35.283 12.4394 35.5643C12.5788 35.7035 12.7442 35.814 12.9262 35.8893C13.1082 35.9647 13.3033 36.0034 13.5003 36.0034C13.8981 36.0033 14.2797 35.8452 14.5609 35.5638L23.8229 26.3008C23.8462 26.2775 23.8737 26.259 23.9041 26.2464C23.9345 26.2338 23.967 26.2273 23.9999 26.2273C24.0328 26.2273 24.0654 26.2338 24.0957 26.2464C24.1261 26.259 24.1537 26.2775 24.1769 26.3008L33.4389 35.5638C33.7202 35.8452 34.1017 36.0033 34.4996 36.0034C34.8974 36.0035 35.279 35.8455 35.5604 35.5643C35.8418 35.283 36 34.9015 36.0001 34.5036C36.0001 34.1058 35.8422 33.7242 35.5609 33.4428L26.2999 24.1798Z" fill="white"/>
</g>
<defs>
<clipPath id="clip0">
<rect width="24" height="24" fill="white" transform="translate(12 12)"/>
</clipPath>
</defs>
</svg>
