<svg width="48" height="48" viewBox="0 0 48 48" fill="none" xmlns="http://www.w3.org/2000/svg">
<rect width="48" height="48" rx="4" fill="#FFE29D"/>
<path d="M36 14.124C36 13.5936 35.7893 13.0849 35.4142 12.7098C35.0391 12.3347 34.5304 12.124 34 12.124H14C13.4696 12.124 12.9609 12.3347 12.5858 12.7098C12.2107 13.0849 12 13.5936 12 14.124V28.624C12 29.1545 12.2107 29.6632 12.5858 30.0382C12.9609 30.4133 13.4696 30.624 14 30.624H17.5C17.7652 30.624 18.0196 30.5187 18.2071 30.3311C18.3946 30.1436 18.5 29.8892 18.5 29.624C18.5 29.3588 18.3946 29.1045 18.2071 28.9169C18.0196 28.7294 17.7652 28.624 17.5 28.624H14.25C14.1837 28.624 14.1201 28.5977 14.0732 28.5508C14.0263 28.5039 14 28.4403 14 28.374V18.685L18.561 14.124H33.75C33.8163 14.124 33.8799 14.1504 33.9268 14.1972C33.9737 14.2441 34 14.3077 34 14.374V23.96C34.0001 23.9929 33.9937 24.0254 33.9812 24.0558C33.9687 24.0862 33.9502 24.1138 33.927 24.137L29.97 28.094C29.9003 28.1636 29.845 28.2462 29.8072 28.3371C29.7695 28.4281 29.75 28.5256 29.75 28.624V29.624C29.75 29.8892 29.8554 30.1436 30.0429 30.3311C30.2304 30.5187 30.4848 30.624 30.75 30.624H34C34.5304 30.624 35.0391 30.4133 35.4142 30.0382C35.7893 29.6632 36 29.1545 36 28.624V14.124Z" fill="#1F1F1F"/>
<path d="M24 21.8999C22.9578 21.8968 21.9411 22.2218 21.094 22.8288C20.2469 23.4359 19.6124 24.2942 19.2804 25.2821C18.9485 26.27 18.9359 27.3373 19.2445 28.3327C19.5532 29.3281 20.1674 30.2011 21 30.8279V35.3789C20.9998 35.4817 21.0313 35.5821 21.0903 35.6663C21.1492 35.7506 21.2327 35.8146 21.3293 35.8497C21.4259 35.8848 21.531 35.8892 21.6303 35.8624C21.7295 35.8356 21.8181 35.7789 21.884 35.6999L24 33.1559L26.116 35.6999C26.1821 35.7792 26.2711 35.8361 26.3708 35.8628C26.4706 35.8894 26.5761 35.8846 26.673 35.8489C26.7699 35.8131 26.8533 35.7483 26.9118 35.6633C26.9704 35.5782 27.0012 35.4772 27 35.3739V30.8229C27.8305 30.1955 28.4427 29.3228 28.7501 28.3283C29.0574 27.3339 29.0443 26.2679 28.7126 25.2813C28.3809 24.2947 27.7474 23.4373 26.9016 22.8305C26.0559 22.2237 25.0408 21.8982 24 21.8999V21.8999ZM24 23.8999C24.5894 23.8997 25.1657 24.0744 25.6559 24.4017C26.1461 24.7291 26.5283 25.1945 26.7539 25.7391C26.9796 26.2836 27.0387 26.8829 26.9237 27.461C26.8088 28.0392 26.525 28.5703 26.1081 28.9871C25.6913 29.4039 25.1602 29.6878 24.5821 29.8027C24.0039 29.9177 23.4047 29.8586 22.8601 29.6329C22.3155 29.4072 21.8501 29.0251 21.5228 28.5349C21.1954 28.0447 21.0208 27.4684 21.021 26.8789C21.022 26.0892 21.3362 25.3321 21.8947 24.7736C22.4531 24.2152 23.2102 23.901 24 23.8999V23.8999Z" fill="#1F1F1F"/>
<path d="M24 28.353C24.8168 28.353 25.479 27.6908 25.479 26.874C25.479 26.0572 24.8168 25.395 24 25.395C23.1831 25.395 22.521 26.0572 22.521 26.874C22.521 27.6908 23.1831 28.353 24 28.353Z" fill="#1F1F1F"/>
<path d="M26.5 17.374C26.6989 17.374 26.8896 17.295 27.0303 17.1544C27.171 17.0137 27.25 16.8229 27.25 16.624C27.25 16.4251 27.171 16.2343 27.0303 16.0937C26.8896 15.953 26.6989 15.874 26.5 15.874H21.5C21.3011 15.874 21.1103 15.953 20.9696 16.0937C20.829 16.2343 20.75 16.4251 20.75 16.624C20.75 16.8229 20.829 17.0137 20.9696 17.1544C21.1103 17.295 21.3011 17.374 21.5 17.374H26.5Z" fill="#1F1F1F"/>
<path d="M29 18.645H19C18.8011 18.645 18.6104 18.724 18.4697 18.8647C18.329 19.0053 18.25 19.1961 18.25 19.395C18.25 19.5939 18.329 19.7847 18.4697 19.9253C18.6104 20.066 18.8011 20.145 19 20.145H29C29.1989 20.145 29.3897 20.066 29.5304 19.9253C29.671 19.7847 29.75 19.5939 29.75 19.395C29.75 19.1961 29.671 19.0053 29.5304 18.8647C29.3897 18.724 29.1989 18.645 29 18.645Z" fill="#1F1F1F"/>
</svg>
