<svg width="48" height="48" viewBox="0 0 48 48" fill="none" xmlns="http://www.w3.org/2000/svg">
<rect width="48" height="48" rx="4" fill="#FFE29D"/>
<g clip-path="url(#clip0)">
<path d="M21.733 21.638C21.6394 21.6728 21.5583 21.7349 21.5003 21.8162C21.4423 21.8975 21.41 21.9944 21.4075 22.0942C21.405 22.1941 21.4325 22.2924 21.4864 22.3765C21.5404 22.4606 21.6182 22.5266 21.71 22.566C22.4343 22.9654 23.2029 23.2789 24 23.5C24.7971 23.2789 25.5656 22.9654 26.29 22.566C26.3823 22.5274 26.4609 22.4619 26.5157 22.3782C26.5704 22.2944 26.5987 22.1961 26.597 22.096C26.5953 21.9964 26.5635 21.8997 26.5059 21.8185C26.4482 21.7373 26.3674 21.6755 26.274 21.641C26.0677 21.1666 26.0421 20.633 26.202 20.141C26.7123 19.5885 27.1011 18.9351 27.3433 18.2231C27.5854 17.511 27.6756 16.7561 27.608 16.007C27.65 15.5036 27.5885 14.9969 27.4273 14.5181C27.266 14.0394 27.0085 13.5987 26.6704 13.2233C26.3324 12.8479 25.9211 12.5457 25.4618 12.3353C25.0025 12.1249 24.505 12.0108 24 12C23.4949 12.0108 22.9974 12.1249 22.5382 12.3353C22.0789 12.5457 21.6676 12.8479 21.3296 13.2233C20.9915 13.5987 20.734 14.0394 20.5727 14.5181C20.4115 14.9969 20.35 15.5036 20.392 16.007C20.3237 16.7515 20.4121 17.5021 20.6513 18.2105C20.8905 18.9188 21.2753 19.5693 21.781 20.12C21.9539 20.6144 21.9368 21.1555 21.733 21.638Z" fill="#1F1F1F"/>
<path d="M32.871 22.5281C32.6748 22.3885 32.4479 22.2982 32.2094 22.2648C31.971 22.2313 31.728 22.2558 31.501 22.3361L24 24.9831L16.5 22.3361C16.2738 22.2561 16.0316 22.2316 15.794 22.2646C15.5563 22.2975 15.33 22.387 15.134 22.5255C14.9381 22.6641 14.7783 22.8476 14.6679 23.0606C14.5576 23.2737 14.5 23.5102 14.5 23.7501V31.6501C14.4998 31.9605 14.5959 32.2632 14.775 32.5166C14.9541 32.77 15.2074 32.9617 15.5 33.0651L23.666 35.9471C23.7741 35.9813 23.8866 35.9992 24 36.0001C24.1132 35.9975 24.2254 35.9783 24.333 35.9431L32.5 33.0611C32.7921 32.9569 33.0449 32.7651 33.2239 32.5118C33.4028 32.2586 33.4993 31.9562 33.5 31.6461V23.7461C33.499 23.5078 33.4414 23.2732 33.3321 23.0614C33.2228 22.8497 33.0647 22.6669 32.871 22.5281ZM16.5 24.8101C16.4999 24.7702 16.5094 24.7307 16.5278 24.6952C16.5461 24.6597 16.5728 24.6291 16.6054 24.6061C16.6381 24.583 16.6758 24.5682 16.7154 24.5628C16.755 24.5574 16.7954 24.5616 16.833 24.5751L22.833 26.6921C22.8818 26.7093 22.9241 26.7413 22.9541 26.7835C22.984 26.8258 23 26.8763 23 26.9281V33.2331C23.0001 33.2731 22.9906 33.3125 22.9722 33.348C22.9538 33.3835 22.9272 33.4141 22.8946 33.4372C22.8619 33.4602 22.8242 33.4751 22.7846 33.4804C22.7449 33.4858 22.7046 33.4816 22.667 33.4681L16.667 31.3521C16.6181 31.3349 16.5758 31.303 16.5459 31.2607C16.516 31.2184 16.4999 31.1679 16.5 31.1161V24.8101ZM31.5 31.1161C31.5 31.1679 31.484 31.2184 31.4541 31.2607C31.4241 31.303 31.3818 31.3349 31.333 31.3521L25.333 33.4681C25.2954 33.4816 25.255 33.4858 25.2154 33.4804C25.1758 33.4751 25.1381 33.4602 25.1054 33.4372C25.0728 33.4141 25.0461 33.3835 25.0278 33.348C25.0094 33.3125 24.9999 33.2731 25 33.2331V26.9331C24.9999 26.8813 25.016 26.8308 25.0459 26.7885C25.0758 26.7463 25.1181 26.7143 25.167 26.6971L31.167 24.5801C31.2046 24.5666 31.2449 24.5624 31.2846 24.5678C31.3242 24.5732 31.3619 24.588 31.3946 24.6111C31.4272 24.6341 31.4538 24.6647 31.4722 24.7002C31.4906 24.7357 31.5001 24.7752 31.5 24.8151V31.1161Z" fill="#1F1F1F"/>
</g>
<defs>
<clipPath id="clip0">
<rect width="24" height="24" fill="white" transform="translate(12 12)"/>
</clipPath>
</defs>
</svg>
