<svg width="48" height="48" viewBox="0 0 48 48" fill="none" xmlns="http://www.w3.org/2000/svg">
<rect width="48" height="48" rx="4" fill="#FFE29D"/>
<g clip-path="url(#clip0)">
<path d="M35.888 18.332C35.8546 18.3178 35.8177 18.314 35.782 18.3209C35.7464 18.3279 35.7136 18.3453 35.688 18.371L25.941 28.116C25.4253 28.6314 24.7261 28.9209 23.997 28.9209C23.2679 28.9209 22.5687 28.6314 22.053 28.116L12.31 18.371C12.2845 18.3451 12.2518 18.3275 12.2161 18.3205C12.1803 18.3135 12.1434 18.3176 12.11 18.332C12.0772 18.3461 12.0493 18.3696 12.0297 18.3995C12.0102 18.4294 11.9998 18.4643 12 18.5V30.5C12 31.0305 12.2107 31.5392 12.5858 31.9142C12.9609 32.2893 13.4696 32.5 14 32.5H34C34.5304 32.5 35.0391 32.2893 35.4142 31.9142C35.7893 31.5392 36 31.0305 36 30.5V18.5C36.0001 18.4641 35.9896 18.4289 35.9696 18.399C35.9497 18.369 35.9212 18.3457 35.888 18.332V18.332Z" fill="#1F1F1F"/>
<path d="M23.115 27.056C23.3497 27.29 23.6676 27.4214 23.999 27.4214C24.3304 27.4214 24.6483 27.29 24.883 27.056L34.569 17.37C34.6346 17.3045 34.6806 17.2219 34.702 17.1317C34.7234 17.0415 34.7192 16.947 34.69 16.859C34.58 16.53 34.274 16.5 34 16.5H14C13.725 16.5 13.417 16.53 13.309 16.859C13.2798 16.947 13.2757 17.0415 13.297 17.1317C13.3184 17.2219 13.3644 17.3045 13.43 17.37L23.115 27.056Z" fill="#1F1F1F"/>
</g>
<defs>
<clipPath id="clip0">
<rect width="24" height="24" fill="white" transform="translate(12 11)"/>
</clipPath>
</defs>
</svg>
