<svg width="48" height="48" viewBox="0 0 48 48" fill="none" xmlns="http://www.w3.org/2000/svg">
<rect width="48" height="48" rx="4" fill="#FFE29D"/>
<path d="M34.1689 28.4904L31.7169 26.0374C31.4558 25.7758 31.1457 25.5683 30.8043 25.4267C30.463 25.2851 30.097 25.2122 29.7274 25.2122C29.3579 25.2122 28.9919 25.2851 28.6505 25.4267C28.3091 25.5683 27.999 25.7758 27.7379 26.0374L27.2379 26.5374C24.7737 24.4726 22.4974 22.1934 20.4359 19.7264L20.9359 19.2264C21.4624 18.6983 21.7581 17.9831 21.7581 17.2374C21.7581 16.4917 21.4624 15.7764 20.9359 15.2484L18.4789 12.7984C17.9425 12.286 17.2293 12 16.4874 12C15.7456 12 15.0323 12.286 14.4959 12.7984L13.1559 14.1444C12.512 14.7929 12.1109 15.6433 12.0198 16.5527C11.9288 17.462 12.1534 18.375 12.6559 19.1384C16.651 25.1582 21.8099 30.3181 27.8289 34.3144C28.5949 34.8123 29.5078 35.0342 30.4168 34.9433C31.3259 34.8524 32.1768 34.4542 32.8289 33.8144L34.1739 32.4684C34.4354 32.2075 34.6429 31.8975 34.7845 31.5563C34.926 31.2151 34.9989 30.8493 34.9989 30.4799C34.9989 30.1105 34.926 29.7447 34.7845 29.4035C34.6429 29.0623 34.4354 28.7523 34.1739 28.4914L34.1689 28.4904Z" fill="#1F1F1F"/>
</svg>
