<svg width="320" height="378" viewBox="0 0 320 378" fill="none" xmlns="http://www.w3.org/2000/svg">
<path d="M4.77832 376L315.778 376C316.883 376 317.778 375.105 317.778 374L317.778 4.71385C317.778 3.36649 316.473 2.40459 315.186 2.80353L82.5011 74.932C81.6639 75.1915 81.0932 75.9659 81.0932 76.8423L81.0932 291.684C81.0932 292.789 81.9887 293.684 83.0932 293.684L237.463 293.684C238.568 293.684 239.463 292.789 239.463 291.684V211.053C239.463 210.176 238.893 209.402 238.056 209.143L5.37049 137.014C4.08354 136.615 2.77832 137.577 2.77832 138.924L2.77832 374C2.77832 375.105 3.67375 376 4.77832 376Z" stroke="#FFF8E7" stroke-opacity="0.05" stroke-width="4"/>
</svg>
