<svg width="911" height="1082" viewBox="0 0 911 1082" fill="none" xmlns="http://www.w3.org/2000/svg">
<path d="M5.00002 1079H906C907.105 1079 908 1078.1 908 1077L908 5.71497C908 4.36728 906.694 3.40534 905.407 3.80487L229.407 213.645C228.57 213.904 228 214.678 228 215.555L228 840.177C228 841.282 228.895 842.177 230 842.177L681 842.177C682.105 842.177 683 841.282 683 840.177V601.679C683 600.803 682.43 600.029 681.593 599.769L5.59292 389.929C4.30581 389.53 3 390.492 3 391.839L3 1077C3 1078.1 3.89545 1079 5.00002 1079Z" stroke="#FFF8E7" stroke-opacity="0.05" stroke-width="6"/>
</svg>
