<svg width="64" height="64" viewBox="0 0 64 64" fill="none" xmlns="http://www.w3.org/2000/svg">
<rect width="64" height="64" rx="3" fill="#1F1F1F"/>
<path d="M16.23 48.9639H45.1994C46.304 48.9639 47.1994 48.0684 47.1994 46.9639V12.7101C47.1994 11.3639 45.8962 10.4021 44.6097 10.799L23.8371 17.2085C22.9987 17.4672 22.4268 18.2421 22.4268 19.1196V38.3881C22.4268 39.4927 23.3222 40.3881 24.4268 40.3881H37.0026C38.1072 40.3881 39.0026 39.4927 39.0026 38.3881V33.1018C39.0026 32.2244 38.4307 31.4494 37.5923 31.1907L16.8197 24.7813C15.5332 24.3844 14.23 25.3461 14.23 26.6924V46.9639C14.23 48.0684 15.1254 48.9639 16.23 48.9639Z" stroke="#FFF8E7"/>
<path d="M16.7002 52.9601H13.6695C12.6158 52.9601 11.9784 51.7954 12.5465 50.9079L31.2079 21.7554C31.7341 20.9334 32.936 20.9367 33.4577 21.7614L51.8996 50.914C52.4612 51.8018 51.8233 52.9601 50.7728 52.9601H47.7332C47.2694 52.9601 46.8389 52.7191 46.5965 52.3237L33.4647 30.9074C32.9467 30.0627 31.7209 30.0581 31.1966 30.8989L17.8316 52.3323C17.5881 52.7228 17.1604 52.9601 16.7002 52.9601Z" fill="#FFCF5C"/>
<path fill-rule="evenodd" clip-rule="evenodd" d="M30.9271 21.5755C31.5848 20.5481 33.0871 20.5521 33.7393 21.583L52.1812 50.7356C52.8832 51.8453 52.0858 53.2933 50.7727 53.2933H47.7331C47.1533 53.2933 46.6153 52.992 46.3122 52.4978L33.1804 31.0815C32.7919 30.448 31.8726 30.4445 31.4794 31.0751L18.1144 52.5085C17.81 52.9966 17.2754 53.2933 16.7001 53.2933H13.6694C12.3522 53.2933 11.5556 51.8374 12.2657 50.7281L30.9271 21.5755ZM33.1759 21.9394C32.7846 21.3209 31.8832 21.3185 31.4886 21.9349L12.8272 51.0875C12.4011 51.7531 12.8791 52.6266 13.6694 52.6266H16.7001C17.0453 52.6266 17.366 52.4486 17.5487 52.1557L30.9137 30.7224C31.5691 29.6713 33.1013 29.6771 33.7488 30.733L46.8806 52.1493C47.0624 52.4459 47.3852 52.6266 47.7331 52.6266H50.7727C51.5605 52.6266 52.039 51.7578 51.6178 51.092L33.1759 21.9394Z" fill="#FFCF5C"/>
</svg>
